G04*
G04 #@! TF.GenerationSoftware,Altium Limited,Altium Designer,23.5.1 (21)*
G04*
G04 Layer_Color=8421504*
%FSLAX44Y44*%
%MOMM*%
G71*
G04*
G04 #@! TF.SameCoordinates,FC4C4C8E-A767-40D1-8FD6-770ACC15EC19*
G04*
G04*
G04 #@! TF.FilePolarity,Positive*
G04*
G01*
G75*
%ADD14R,2.8500X3.2000*%
%ADD15R,1.9000X1.3500*%
%ADD16R,1.4000X0.3000*%
%ADD17R,0.3000X1.4000*%
%ADD18R,1.3500X1.9000*%
%ADD19R,0.9000X1.5000*%
%ADD20R,1.5000X0.9000*%
%ADD21R,2.1500X4.1000*%
%ADD22R,1.8000X1.1500*%
%ADD23R,0.8500X0.3000*%
%ADD24R,0.3000X0.8500*%
%ADD25R,1.2500X1.2500*%
%ADD26R,1.8000X2.9000*%
%ADD27R,1.1500X1.8000*%
%ADD28R,0.6000X0.7000*%
%ADD29R,1.2000X1.0000*%
%ADD30R,4.1000X2.1500*%
%ADD31R,1.1000X0.9000*%
%ADD32R,1.4000X0.9000*%
%ADD33R,4.4000X2.5000*%
%ADD34R,1.3500X1.5500*%
%ADD35R,1.0000X1.2000*%
%ADD36R,1.3500X1.9000*%
%ADD37R,1.8000X1.1700*%
%ADD38R,1.1000X0.7500*%
%ADD39R,1.1000X0.8500*%
%ADD40R,3.2000X2.8500*%
D14*
X626960Y916240D02*
D03*
X683960D02*
D03*
D15*
X635460Y961240D02*
D03*
Y993240D02*
D03*
X1212000Y1257000D02*
D03*
Y1225000D02*
D03*
X1293000Y1235000D02*
D03*
Y1203000D02*
D03*
X1197000Y1111000D02*
D03*
Y1079000D02*
D03*
X1052000Y1147000D02*
D03*
Y1115000D02*
D03*
X1005000Y935000D02*
D03*
Y967000D02*
D03*
X632210Y1184180D02*
D03*
Y1216180D02*
D03*
X656340Y1165130D02*
D03*
Y1197130D02*
D03*
X656240Y1140540D02*
D03*
Y1108540D02*
D03*
X683010Y1197130D02*
D03*
Y1165130D02*
D03*
D16*
X582500Y1164000D02*
D03*
Y1159000D02*
D03*
Y1154000D02*
D03*
Y1149000D02*
D03*
Y1144000D02*
D03*
X626500D02*
D03*
Y1149000D02*
D03*
Y1154000D02*
D03*
Y1159000D02*
D03*
Y1164000D02*
D03*
D17*
X663000Y962000D02*
D03*
X668000D02*
D03*
X673000D02*
D03*
X678000D02*
D03*
X683000D02*
D03*
Y1006000D02*
D03*
X678000D02*
D03*
X673000D02*
D03*
X668000D02*
D03*
X663000D02*
D03*
D18*
X769000Y1074000D02*
D03*
X801000D02*
D03*
X1068000Y1182000D02*
D03*
X1036000D02*
D03*
X632000Y1074000D02*
D03*
X664000D02*
D03*
X689460Y1044240D02*
D03*
X721460D02*
D03*
X666165Y1044340D02*
D03*
X634165D02*
D03*
X613820Y1020210D02*
D03*
X645820D02*
D03*
X1055000Y935000D02*
D03*
X1087000D02*
D03*
X605240Y1194540D02*
D03*
X573240D02*
D03*
D19*
X1282600Y869500D02*
D03*
X1269900D02*
D03*
X1257200D02*
D03*
X1244500D02*
D03*
X1231800D02*
D03*
X1219100D02*
D03*
X1206400D02*
D03*
X1193700D02*
D03*
X1181000D02*
D03*
X1168300D02*
D03*
X1155600D02*
D03*
X1142900D02*
D03*
X1130200D02*
D03*
X1117500D02*
D03*
Y694500D02*
D03*
X1130200D02*
D03*
X1142900D02*
D03*
X1155600D02*
D03*
X1168300D02*
D03*
X1181000D02*
D03*
X1193700D02*
D03*
X1206400D02*
D03*
X1219100D02*
D03*
X1231800D02*
D03*
X1244500D02*
D03*
X1257200D02*
D03*
X1269900D02*
D03*
X1282600D02*
D03*
D20*
X1105000Y839150D02*
D03*
Y826450D02*
D03*
Y813750D02*
D03*
Y801050D02*
D03*
Y788350D02*
D03*
Y775650D02*
D03*
Y762950D02*
D03*
Y750250D02*
D03*
Y737550D02*
D03*
Y724850D02*
D03*
D21*
X949000Y841000D02*
D03*
Y926000D02*
D03*
X566170Y1104250D02*
D03*
Y1019250D02*
D03*
D22*
X1252000Y1205000D02*
D03*
Y1235000D02*
D03*
X686240Y1109540D02*
D03*
Y1139540D02*
D03*
D23*
X1281500Y1146500D02*
D03*
Y1151500D02*
D03*
Y1156500D02*
D03*
Y1161500D02*
D03*
X1252500D02*
D03*
Y1156500D02*
D03*
Y1151500D02*
D03*
Y1146500D02*
D03*
D24*
X1274500Y1168500D02*
D03*
X1269500D02*
D03*
X1264500D02*
D03*
X1259500D02*
D03*
Y1139500D02*
D03*
X1264500D02*
D03*
X1269500D02*
D03*
X1274500D02*
D03*
D25*
X1267000Y1154000D02*
D03*
D26*
X899343Y1133971D02*
D03*
Y1173971D02*
D03*
D27*
X723000Y1074000D02*
D03*
X693000D02*
D03*
D28*
X1198500Y1040000D02*
D03*
X1179500D02*
D03*
X1189000Y1020000D02*
D03*
D29*
X805000Y1241500D02*
D03*
Y1258500D02*
D03*
X861000Y1241500D02*
D03*
Y1258500D02*
D03*
D30*
X810750Y954170D02*
D03*
X725750D02*
D03*
D31*
X984500Y1130500D02*
D03*
X1007500D02*
D03*
D32*
X996000Y1163500D02*
D03*
D33*
X981500Y1056000D02*
D03*
X898500D02*
D03*
D34*
X302250Y988400D02*
D03*
D35*
X362500Y986650D02*
D03*
X399500D02*
D03*
D36*
X409250Y1021650D02*
D03*
Y1081350D02*
D03*
D37*
X304500Y1101600D02*
D03*
D38*
X301000Y1089500D02*
D03*
D39*
Y1079000D02*
D03*
Y1068000D02*
D03*
Y1057000D02*
D03*
Y1046000D02*
D03*
Y1035000D02*
D03*
Y1024000D02*
D03*
Y1013000D02*
D03*
D40*
X528240Y1146040D02*
D03*
Y1203040D02*
D03*
M02*
