G04*
G04 #@! TF.GenerationSoftware,Altium Limited,Altium Designer,23.5.1 (21)*
G04*
G04 Layer_Color=16711935*
%FSLAX44Y44*%
%MOMM*%
G71*
G04*
G04 #@! TF.SameCoordinates,FC4C4C8E-A767-40D1-8FD6-770ACC15EC19*
G04*
G04*
G04 #@! TF.FilePolarity,Negative*
G04*
G01*
G75*
%ADD42R,2.1032X1.5532*%
%ADD45R,1.5532X2.1032*%
%ADD49R,2.0032X1.3532*%
%ADD50R,1.0532X0.5032*%
%ADD55R,0.8032X0.9032*%
%ADD68R,1.1032X1.1032*%
%ADD69C,2.2032*%
%ADD70C,5.2032*%
%ADD71C,2.1532*%
%ADD72R,2.0032X2.0032*%
%ADD73C,2.0032*%
%ADD74C,0.5782*%
%ADD75C,1.3032*%
%ADD76R,1.7782X1.7782*%
%ADD77C,1.7782*%
%ADD78C,0.2032*%
%ADD79C,1.7032*%
%ADD80R,1.7032X1.7032*%
%ADD81C,1.6032*%
%ADD82C,0.8532*%
%ADD117R,2.4032X2.3532*%
%ADD118R,1.9032X2.6532*%
%ADD119R,1.3032X0.8532*%
%ADD120R,1.2532X0.6032*%
G04:AMPARAMS|DCode=121|XSize=0.9032mm|YSize=0.8032mm|CornerRadius=0mm|HoleSize=0mm|Usage=FLASHONLY|Rotation=45.000|XOffset=0mm|YOffset=0mm|HoleType=Round|Shape=Rectangle|*
%AMROTATEDRECTD121*
4,1,4,-0.0354,-0.6033,-0.6033,-0.0354,0.0354,0.6033,0.6033,0.0354,-0.0354,-0.6033,0.0*
%
%ADD121ROTATEDRECTD121*%

%ADD122R,2.0032X1.2032*%
G04:AMPARAMS|DCode=123|XSize=1.5532mm|YSize=2.1032mm|CornerRadius=0mm|HoleSize=0mm|Usage=FLASHONLY|Rotation=315.000|XOffset=0mm|YOffset=0mm|HoleType=Round|Shape=Rectangle|*
%AMROTATEDRECTD123*
4,1,4,-1.2927,-0.1945,0.1945,1.2927,1.2927,0.1945,-0.1945,-1.2927,-1.2927,-0.1945,0.0*
%
%ADD123ROTATEDRECTD123*%

G04:AMPARAMS|DCode=124|XSize=1.3032mm|YSize=0.8532mm|CornerRadius=0mm|HoleSize=0mm|Usage=FLASHONLY|Rotation=135.000|XOffset=0mm|YOffset=0mm|HoleType=Round|Shape=Rectangle|*
%AMROTATEDRECTD124*
4,1,4,0.7624,-0.1591,0.1591,-0.7624,-0.7624,0.1591,-0.1591,0.7624,0.7624,-0.1591,0.0*
%
%ADD124ROTATEDRECTD124*%

%ADD125R,1.6732X1.2232*%
%ADD126R,1.2232X1.6732*%
%ADD127R,1.7282X0.8532*%
%ADD128R,4.4032X2.5032*%
%ADD129R,1.6782X0.6532*%
%ADD130R,3.0032X3.0032*%
%ADD131R,1.0032X0.5032*%
%ADD132R,0.5032X1.0032*%
D42*
X693929Y1107000D02*
D03*
Y1075000D02*
D03*
X783000Y1172000D02*
D03*
Y1139999D02*
D03*
X664000Y1106000D02*
D03*
Y1074000D02*
D03*
X786000Y1091000D02*
D03*
Y1123000D02*
D03*
X373000Y993000D02*
D03*
Y961000D02*
D03*
X579240Y1059000D02*
D03*
Y1027000D02*
D03*
X575240Y1114000D02*
D03*
Y1082000D02*
D03*
X1531000Y754000D02*
D03*
Y722000D02*
D03*
X803000Y726000D02*
D03*
Y758000D02*
D03*
X1644000Y691000D02*
D03*
Y723000D02*
D03*
X548240Y1027000D02*
D03*
Y1059000D02*
D03*
X755000Y1171000D02*
D03*
Y1203000D02*
D03*
D45*
X519240Y1084000D02*
D03*
X551240D02*
D03*
X547240Y1113000D02*
D03*
X515240D02*
D03*
X842000Y791000D02*
D03*
X810000D02*
D03*
X521000Y838000D02*
D03*
X489000D02*
D03*
X520000Y808000D02*
D03*
X488000D02*
D03*
X652000Y1188000D02*
D03*
X620000D02*
D03*
X652000Y1213000D02*
D03*
X620000D02*
D03*
D49*
X612240Y927000D02*
D03*
Y957000D02*
D03*
X611240Y989000D02*
D03*
Y1019000D02*
D03*
D50*
X684000Y1150000D02*
D03*
Y1155000D02*
D03*
Y1160000D02*
D03*
Y1165000D02*
D03*
Y1170000D02*
D03*
X714000D02*
D03*
Y1165000D02*
D03*
Y1160000D02*
D03*
Y1155000D02*
D03*
Y1150000D02*
D03*
D55*
X651000Y1042000D02*
D03*
X641500Y1022000D02*
D03*
X660500D02*
D03*
D68*
X1219400Y783000D02*
D03*
Y797000D02*
D03*
X1205400D02*
D03*
Y783000D02*
D03*
X1191400D02*
D03*
Y797000D02*
D03*
Y811000D02*
D03*
X1205400D02*
D03*
X1219400D02*
D03*
D69*
X860400Y973000D02*
D03*
X962000D02*
D03*
D70*
X1740000Y674000D02*
D03*
X320000Y560000D02*
D03*
X1740000Y1230000D02*
D03*
X310000Y1240000D02*
D03*
X462400D02*
D03*
D71*
X803000Y702000D02*
D03*
X793000Y821000D02*
D03*
X844000D02*
D03*
X834000Y702000D02*
D03*
D72*
X789200Y570000D02*
D03*
D73*
X814600D02*
D03*
X840000D02*
D03*
X865400D02*
D03*
X890800D02*
D03*
X916200D02*
D03*
X941600D02*
D03*
X967000D02*
D03*
X992400D02*
D03*
X1017800D02*
D03*
X1043200D02*
D03*
X1068600D02*
D03*
X1094000D02*
D03*
X1119400D02*
D03*
X1144800D02*
D03*
X1170200D02*
D03*
X1195600D02*
D03*
X1221000D02*
D03*
X1246400D02*
D03*
X1271800D02*
D03*
X569600Y1244000D02*
D03*
X595000D02*
D03*
X620400D02*
D03*
X544200D02*
D03*
X475100Y1151100D02*
D03*
X449700D02*
D03*
X424300D02*
D03*
X398900D02*
D03*
X373500D02*
D03*
X348100D02*
D03*
X322700D02*
D03*
X297300D02*
D03*
D74*
X833000Y1236250D02*
D03*
Y1263750D02*
D03*
D75*
X1002000Y1218600D02*
D03*
Y1244000D02*
D03*
D76*
X917000Y1232000D02*
D03*
X717000D02*
D03*
X583000Y629000D02*
D03*
D77*
X942000Y1232000D02*
D03*
X742000D02*
D03*
X558000Y629000D02*
D03*
D78*
X958000Y1252000D02*
D03*
X1492000Y800000D02*
D03*
X542000Y609000D02*
D03*
D79*
X1070900Y969900D02*
D03*
Y995300D02*
D03*
Y1020700D02*
D03*
Y1046100D02*
D03*
X1147100Y969900D02*
D03*
Y995300D02*
D03*
Y1020700D02*
D03*
X1512000Y916000D02*
D03*
Y891000D02*
D03*
Y866000D02*
D03*
Y841000D02*
D03*
Y816000D02*
D03*
X1661000Y974000D02*
D03*
X1410000Y979000D02*
D03*
X496000Y964000D02*
D03*
X418000Y1000000D02*
D03*
X1277000Y616000D02*
D03*
X1571000Y602000D02*
D03*
X1130000Y654000D02*
D03*
X1155000Y655000D02*
D03*
X1243000Y931000D02*
D03*
X1581000Y575000D02*
D03*
X461000Y944000D02*
D03*
X797000Y1218000D02*
D03*
X630000Y650000D02*
D03*
X1276100Y924100D02*
D03*
X1508100Y737100D02*
D03*
X1218000Y669000D02*
D03*
X1257000D02*
D03*
X1110000Y912000D02*
D03*
X551000Y893000D02*
D03*
X1325000Y1161000D02*
D03*
X1228000Y899000D02*
D03*
X1206771Y899541D02*
D03*
X1140754Y911000D02*
D03*
X1619491Y705491D02*
D03*
X419000Y965407D02*
D03*
X633731Y1109491D02*
D03*
X716000Y1123000D02*
D03*
D80*
X1147100Y1046100D02*
D03*
D81*
X642000Y762600D02*
D03*
Y788000D02*
D03*
X373000Y775300D02*
D03*
D82*
X758000Y1252000D02*
D03*
D117*
X725000Y1197000D02*
D03*
X681000D02*
D03*
X854000Y1247000D02*
D03*
X810000D02*
D03*
D118*
X699000Y1160000D02*
D03*
D119*
X669500Y1042000D02*
D03*
X692500Y1032500D02*
D03*
Y1051500D02*
D03*
D120*
X1577500Y729500D02*
D03*
Y723000D02*
D03*
Y716500D02*
D03*
X1596500D02*
D03*
Y723000D02*
D03*
Y729500D02*
D03*
D121*
X831071Y1118071D02*
D03*
X810211Y1110646D02*
D03*
X823646Y1097211D02*
D03*
D122*
X572767Y757950D02*
D03*
Y782950D02*
D03*
D123*
X845686Y1195313D02*
D03*
X868314Y1172686D02*
D03*
X905000Y1137000D02*
D03*
X882373Y1159627D02*
D03*
X854686Y1132314D02*
D03*
X877314Y1109686D02*
D03*
D124*
X826868Y1170132D02*
D03*
X836414Y1147151D02*
D03*
X849849Y1160586D02*
D03*
D125*
X438317Y794320D02*
D03*
Y778120D02*
D03*
X601000Y781000D02*
D03*
Y797000D02*
D03*
D126*
X598000Y757000D02*
D03*
X614000D02*
D03*
D127*
X477147Y777180D02*
D03*
Y764480D02*
D03*
Y751780D02*
D03*
Y739080D02*
D03*
X531387D02*
D03*
Y751780D02*
D03*
Y764480D02*
D03*
Y777180D02*
D03*
D128*
X563240Y989500D02*
D03*
Y926500D02*
D03*
D129*
X515620Y982250D02*
D03*
Y988750D02*
D03*
Y995250D02*
D03*
Y1001750D02*
D03*
Y1008250D02*
D03*
Y1014750D02*
D03*
Y1021250D02*
D03*
Y1027750D02*
D03*
X456860D02*
D03*
Y1021250D02*
D03*
Y1014750D02*
D03*
Y1008250D02*
D03*
Y1001750D02*
D03*
Y995250D02*
D03*
Y988750D02*
D03*
Y982250D02*
D03*
D130*
X475240Y1068000D02*
D03*
D131*
X455240Y1080500D02*
D03*
Y1075500D02*
D03*
Y1070500D02*
D03*
Y1065500D02*
D03*
Y1060500D02*
D03*
Y1055500D02*
D03*
X495240D02*
D03*
Y1060500D02*
D03*
Y1065500D02*
D03*
Y1070500D02*
D03*
Y1075500D02*
D03*
Y1080500D02*
D03*
D132*
X462740Y1048000D02*
D03*
X467740D02*
D03*
X472740D02*
D03*
X477740D02*
D03*
X482740D02*
D03*
X487740D02*
D03*
Y1088000D02*
D03*
X482740D02*
D03*
X477740D02*
D03*
X472740D02*
D03*
X467740D02*
D03*
X462740D02*
D03*
M02*
