M48
;Layer_Color=9474304
;FILE_FORMAT=2:5
INCH,LZ
;TYPE=PLATED
T1F00S00C0.02362
T2F00S00C0.02756
T3F00S00C0.03150
T4F00S00C0.03543
T5F00S00C0.03937
T6F00S00C0.04134
T7F00S00C0.05118
T8F00S00C0.10236
;TYPE=NON_PLATED
T9F00S00C0.01968
T10F00S00C0.02953
T11F00S00C0.05118
%
T01
X0394488Y0479764
Y0489764
T02
X0637595Y0277752
X059374Y0290197
X0618504Y0237008
X0622441Y0226378
X0502756Y024252
X0494882Y0263386
X0479528
X0454724Y0257874
X0444882Y025748
X0248031Y0255906
X0216929Y0351575
X0195276Y0379528
X0181496Y0371654
X0164961Y0380081
X0164567Y0393701
X02495Y0436807
X028189Y0442126
X0437008Y0359055
X0449116Y0358661
X0475107Y035415
X0483465Y0353937
X048937Y0366535
X0502402Y0363819
X0555118Y0385433
X0521654Y0457087
X0653937Y0383465
X0313779Y0479528
T03
X033874Y0383071
X037874
T04
X0470709Y022441
X0480709
X0490709
X0500709
X0460709
X0450709
X0440709
X0430709
X0420709
X0410709
X0400709
X0390709
X0380709
X0370709
X0360709
X0350709
X0340709
X0330709
X0320709
X0310709
X0252756Y0300236
Y0310236
X0146851Y0305236
X0421614Y0381851
Y039185
Y0401851
Y0411851
X0451614
Y0401851
Y039185
Y0381851
X0244252Y0489764
X0234252
X0224252
X0214252
T05
X0117047Y0453189
X0127047
X0137047
X0147047
X0157047
X0167047
X0177047
X0187047
X0595276Y036063
Y0350787
Y0340945
Y0331102
Y032126
T06
X0219685Y0247638
X0229528
X0361024Y0485039
X0370866
X0292126
X0282283
T07
X0316142Y0276378
X0328346
X0312205Y0323228
X0332283
T08
X0685039Y0265354
X0125984Y0220472
X0685039Y0484252
X0182047Y0488189
X0122047
T09
X0469055Y0308268
X0474567
X0480079
Y031378
Y0319291
X0474567
Y031378
X0469055
Y0319291
T10
X0327953Y0486713
Y0497539
T11
X0298425Y0492913
M30
