G04*
G04 #@! TF.GenerationSoftware,Altium Limited,Altium Designer,23.5.1 (21)*
G04*
G04 Layer_Color=8388736*
%FSLAX44Y44*%
%MOMM*%
G71*
G04*
G04 #@! TF.SameCoordinates,FC4C4C8E-A767-40D1-8FD6-770ACC15EC19*
G04*
G04*
G04 #@! TF.FilePolarity,Negative*
G04*
G01*
G75*
%ADD41R,3.0532X3.4032*%
%ADD42R,2.1032X1.5532*%
%ADD43R,1.6032X0.5032*%
%ADD44R,0.5032X1.6032*%
%ADD45R,1.5532X2.1032*%
%ADD46R,1.1032X1.7032*%
%ADD47R,1.7032X1.1032*%
%ADD48R,2.3532X4.3032*%
%ADD49R,2.0032X1.3532*%
%ADD50R,1.0532X0.5032*%
%ADD51R,0.5032X1.0532*%
%ADD52R,1.4532X1.4532*%
%ADD53R,2.0032X3.1032*%
%ADD54R,1.3532X2.0032*%
%ADD55R,0.8032X0.9032*%
%ADD56R,1.4032X1.2032*%
%ADD57R,4.3032X2.3532*%
%ADD58R,1.3032X1.1032*%
%ADD59R,1.6032X1.1032*%
%ADD60R,4.6032X2.7032*%
%ADD61R,1.5532X1.7532*%
%ADD62R,1.2032X1.4032*%
%ADD63R,1.5532X2.1032*%
%ADD64R,2.0032X1.3732*%
%ADD65R,1.3032X0.9532*%
%ADD66R,1.3032X1.0532*%
%ADD67R,3.4032X3.0532*%
%ADD68R,1.1032X1.1032*%
%ADD69C,2.2032*%
%ADD70C,5.2032*%
%ADD71C,2.1532*%
%ADD72R,2.0032X2.0032*%
%ADD73C,2.0032*%
%ADD74C,0.5782*%
%ADD75C,1.3032*%
%ADD76R,1.7782X1.7782*%
%ADD77C,1.7782*%
%ADD78C,0.2032*%
%ADD79C,1.7032*%
%ADD80R,1.7032X1.7032*%
%ADD81C,1.6032*%
%ADD82C,0.8532*%
D41*
X626960Y916240D02*
D03*
X683960D02*
D03*
D42*
X635460Y961240D02*
D03*
Y993240D02*
D03*
X1212000Y1257000D02*
D03*
Y1225000D02*
D03*
X1293000Y1235000D02*
D03*
Y1203000D02*
D03*
X1197000Y1111000D02*
D03*
Y1079000D02*
D03*
X1052000Y1147000D02*
D03*
Y1115000D02*
D03*
X1005000Y935000D02*
D03*
Y967000D02*
D03*
X632210Y1184180D02*
D03*
Y1216180D02*
D03*
X656340Y1165130D02*
D03*
Y1197130D02*
D03*
X656240Y1140540D02*
D03*
Y1108540D02*
D03*
X683010Y1197130D02*
D03*
Y1165130D02*
D03*
D43*
X582500Y1164000D02*
D03*
Y1159000D02*
D03*
Y1154000D02*
D03*
Y1149000D02*
D03*
Y1144000D02*
D03*
X626500D02*
D03*
Y1149000D02*
D03*
Y1154000D02*
D03*
Y1159000D02*
D03*
Y1164000D02*
D03*
D44*
X663000Y962000D02*
D03*
X668000D02*
D03*
X673000D02*
D03*
X678000D02*
D03*
X683000D02*
D03*
Y1006000D02*
D03*
X678000D02*
D03*
X673000D02*
D03*
X668000D02*
D03*
X663000D02*
D03*
D45*
X769000Y1074000D02*
D03*
X801000D02*
D03*
X1068000Y1182000D02*
D03*
X1036000D02*
D03*
X632000Y1074000D02*
D03*
X664000D02*
D03*
X689460Y1044240D02*
D03*
X721460D02*
D03*
X666165Y1044340D02*
D03*
X634165D02*
D03*
X613820Y1020210D02*
D03*
X645820D02*
D03*
X1055000Y935000D02*
D03*
X1087000D02*
D03*
X605240Y1194540D02*
D03*
X573240D02*
D03*
D46*
X1282600Y869500D02*
D03*
X1269900D02*
D03*
X1257200D02*
D03*
X1244500D02*
D03*
X1231800D02*
D03*
X1219100D02*
D03*
X1206400D02*
D03*
X1193700D02*
D03*
X1181000D02*
D03*
X1168300D02*
D03*
X1155600D02*
D03*
X1142900D02*
D03*
X1130200D02*
D03*
X1117500D02*
D03*
Y694500D02*
D03*
X1130200D02*
D03*
X1142900D02*
D03*
X1155600D02*
D03*
X1168300D02*
D03*
X1181000D02*
D03*
X1193700D02*
D03*
X1206400D02*
D03*
X1219100D02*
D03*
X1231800D02*
D03*
X1244500D02*
D03*
X1257200D02*
D03*
X1269900D02*
D03*
X1282600D02*
D03*
D47*
X1105000Y839150D02*
D03*
Y826450D02*
D03*
Y813750D02*
D03*
Y801050D02*
D03*
Y788350D02*
D03*
Y775650D02*
D03*
Y762950D02*
D03*
Y750250D02*
D03*
Y737550D02*
D03*
Y724850D02*
D03*
D48*
X949000Y841000D02*
D03*
Y926000D02*
D03*
X566170Y1104250D02*
D03*
Y1019250D02*
D03*
D49*
X1252000Y1205000D02*
D03*
Y1235000D02*
D03*
X686240Y1109540D02*
D03*
Y1139540D02*
D03*
D50*
X1281500Y1146500D02*
D03*
Y1151500D02*
D03*
Y1156500D02*
D03*
Y1161500D02*
D03*
X1252500D02*
D03*
Y1156500D02*
D03*
Y1151500D02*
D03*
Y1146500D02*
D03*
D51*
X1274500Y1168500D02*
D03*
X1269500D02*
D03*
X1264500D02*
D03*
X1259500D02*
D03*
Y1139500D02*
D03*
X1264500D02*
D03*
X1269500D02*
D03*
X1274500D02*
D03*
D52*
X1267000Y1154000D02*
D03*
D53*
X899343Y1133971D02*
D03*
Y1173971D02*
D03*
D54*
X723000Y1074000D02*
D03*
X693000D02*
D03*
D55*
X1198500Y1040000D02*
D03*
X1179500D02*
D03*
X1189000Y1020000D02*
D03*
D56*
X805000Y1241500D02*
D03*
Y1258500D02*
D03*
X861000Y1241500D02*
D03*
Y1258500D02*
D03*
D57*
X810750Y954170D02*
D03*
X725750D02*
D03*
D58*
X984500Y1130500D02*
D03*
X1007500D02*
D03*
D59*
X996000Y1163500D02*
D03*
D60*
X981500Y1056000D02*
D03*
X898500D02*
D03*
D61*
X302250Y988400D02*
D03*
D62*
X362500Y986650D02*
D03*
X399500D02*
D03*
D63*
X409250Y1021650D02*
D03*
Y1081350D02*
D03*
D64*
X304500Y1101600D02*
D03*
D65*
X301000Y1089500D02*
D03*
D66*
Y1079000D02*
D03*
Y1068000D02*
D03*
Y1057000D02*
D03*
Y1046000D02*
D03*
Y1035000D02*
D03*
Y1024000D02*
D03*
Y1013000D02*
D03*
D67*
X528240Y1146040D02*
D03*
Y1203040D02*
D03*
D68*
X1219400Y783000D02*
D03*
Y797000D02*
D03*
X1205400D02*
D03*
Y783000D02*
D03*
X1191400D02*
D03*
Y797000D02*
D03*
Y811000D02*
D03*
X1205400D02*
D03*
X1219400D02*
D03*
D69*
X860400Y973000D02*
D03*
X962000D02*
D03*
D70*
X1740000Y674000D02*
D03*
X320000Y560000D02*
D03*
X1740000Y1230000D02*
D03*
X310000Y1240000D02*
D03*
X462400D02*
D03*
D71*
X803000Y702000D02*
D03*
X793000Y821000D02*
D03*
X844000D02*
D03*
X834000Y702000D02*
D03*
D72*
X789200Y570000D02*
D03*
D73*
X814600D02*
D03*
X840000D02*
D03*
X865400D02*
D03*
X890800D02*
D03*
X916200D02*
D03*
X941600D02*
D03*
X967000D02*
D03*
X992400D02*
D03*
X1017800D02*
D03*
X1043200D02*
D03*
X1068600D02*
D03*
X1094000D02*
D03*
X1119400D02*
D03*
X1144800D02*
D03*
X1170200D02*
D03*
X1195600D02*
D03*
X1221000D02*
D03*
X1246400D02*
D03*
X1271800D02*
D03*
X569600Y1244000D02*
D03*
X595000D02*
D03*
X620400D02*
D03*
X544200D02*
D03*
X475100Y1151100D02*
D03*
X449700D02*
D03*
X424300D02*
D03*
X398900D02*
D03*
X373500D02*
D03*
X348100D02*
D03*
X322700D02*
D03*
X297300D02*
D03*
D74*
X833000Y1236250D02*
D03*
Y1263750D02*
D03*
D75*
X1002000Y1218600D02*
D03*
Y1244000D02*
D03*
D76*
X917000Y1232000D02*
D03*
X717000D02*
D03*
X583000Y629000D02*
D03*
D77*
X942000Y1232000D02*
D03*
X742000D02*
D03*
X558000Y629000D02*
D03*
D78*
X958000Y1252000D02*
D03*
X1492000Y800000D02*
D03*
X542000Y609000D02*
D03*
D79*
X1070900Y969900D02*
D03*
Y995300D02*
D03*
Y1020700D02*
D03*
Y1046100D02*
D03*
X1147100Y969900D02*
D03*
Y995300D02*
D03*
Y1020700D02*
D03*
X1512000Y916000D02*
D03*
Y891000D02*
D03*
Y866000D02*
D03*
Y841000D02*
D03*
Y816000D02*
D03*
X1661000Y974000D02*
D03*
X1410000Y979000D02*
D03*
X496000Y964000D02*
D03*
X418000Y1000000D02*
D03*
X1277000Y616000D02*
D03*
X1571000Y602000D02*
D03*
X1130000Y654000D02*
D03*
X1155000Y655000D02*
D03*
X1243000Y931000D02*
D03*
X1581000Y575000D02*
D03*
X461000Y944000D02*
D03*
X797000Y1218000D02*
D03*
X630000Y650000D02*
D03*
X1276100Y924100D02*
D03*
X1508100Y737100D02*
D03*
X1218000Y669000D02*
D03*
X1257000D02*
D03*
X1110000Y912000D02*
D03*
X551000Y893000D02*
D03*
X1325000Y1161000D02*
D03*
X1228000Y899000D02*
D03*
X1206771Y899541D02*
D03*
X1140754Y911000D02*
D03*
X1619491Y705491D02*
D03*
X419000Y965407D02*
D03*
X633731Y1109491D02*
D03*
X716000Y1123000D02*
D03*
D80*
X1147100Y1046100D02*
D03*
D81*
X642000Y762600D02*
D03*
Y788000D02*
D03*
X373000Y775300D02*
D03*
D82*
X758000Y1252000D02*
D03*
M02*
