G04*
G04 #@! TF.GenerationSoftware,Altium Limited,Altium Designer,23.5.1 (21)*
G04*
G04 Layer_Color=128*
%FSLAX44Y44*%
%MOMM*%
G71*
G04*
G04 #@! TF.SameCoordinates,FC4C4C8E-A767-40D1-8FD6-770ACC15EC19*
G04*
G04*
G04 #@! TF.FilePolarity,Positive*
G04*
G01*
G75*
%ADD15R,1.9000X1.3500*%
%ADD18R,1.3500X1.9000*%
%ADD22R,1.8000X1.1500*%
%ADD23R,0.8500X0.3000*%
%ADD28R,0.6000X0.7000*%
%ADD100R,2.2000X2.1500*%
%ADD101R,1.7000X2.4500*%
%ADD102R,1.1000X0.6500*%
%ADD103R,1.0500X0.4000*%
G04:AMPARAMS|DCode=104|XSize=0.7mm|YSize=0.6mm|CornerRadius=0mm|HoleSize=0mm|Usage=FLASHONLY|Rotation=45.000|XOffset=0mm|YOffset=0mm|HoleType=Round|Shape=Rectangle|*
%AMROTATEDRECTD104*
4,1,4,-0.0354,-0.4596,-0.4596,-0.0354,0.0354,0.4596,0.4596,0.0354,-0.0354,-0.4596,0.0*
%
%ADD104ROTATEDRECTD104*%

%ADD105R,1.8000X1.0000*%
G04:AMPARAMS|DCode=106|XSize=1.35mm|YSize=1.9mm|CornerRadius=0mm|HoleSize=0mm|Usage=FLASHONLY|Rotation=315.000|XOffset=0mm|YOffset=0mm|HoleType=Round|Shape=Rectangle|*
%AMROTATEDRECTD106*
4,1,4,-1.1490,-0.1945,0.1945,1.1490,1.1490,0.1945,-0.1945,-1.1490,-1.1490,-0.1945,0.0*
%
%ADD106ROTATEDRECTD106*%

G04:AMPARAMS|DCode=107|XSize=1.1mm|YSize=0.65mm|CornerRadius=0mm|HoleSize=0mm|Usage=FLASHONLY|Rotation=135.000|XOffset=0mm|YOffset=0mm|HoleType=Round|Shape=Rectangle|*
%AMROTATEDRECTD107*
4,1,4,0.6187,-0.1591,0.1591,-0.6187,-0.6187,0.1591,-0.1591,0.6187,0.6187,-0.1591,0.0*
%
%ADD107ROTATEDRECTD107*%

%ADD108R,1.4700X1.0200*%
%ADD109R,1.0200X1.4700*%
%ADD110R,1.5250X0.6500*%
%ADD111R,4.2000X2.3000*%
%ADD112R,1.4750X0.4500*%
%ADD113R,2.8000X2.8000*%
%ADD114R,0.8000X0.3000*%
%ADD115R,0.3000X0.8000*%
D15*
X693929Y1107000D02*
D03*
Y1075000D02*
D03*
X783000Y1172000D02*
D03*
Y1139999D02*
D03*
X664000Y1106000D02*
D03*
Y1074000D02*
D03*
X786000Y1091000D02*
D03*
Y1123000D02*
D03*
X373000Y993000D02*
D03*
Y961000D02*
D03*
X579240Y1059000D02*
D03*
Y1027000D02*
D03*
X575240Y1114000D02*
D03*
Y1082000D02*
D03*
X1531000Y754000D02*
D03*
Y722000D02*
D03*
X803000Y726000D02*
D03*
Y758000D02*
D03*
X1644000Y691000D02*
D03*
Y723000D02*
D03*
X548240Y1027000D02*
D03*
Y1059000D02*
D03*
X755000Y1171000D02*
D03*
Y1203000D02*
D03*
D18*
X519240Y1084000D02*
D03*
X551240D02*
D03*
X547240Y1113000D02*
D03*
X515240D02*
D03*
X842000Y791000D02*
D03*
X810000D02*
D03*
X521000Y838000D02*
D03*
X489000D02*
D03*
X520000Y808000D02*
D03*
X488000D02*
D03*
X652000Y1188000D02*
D03*
X620000D02*
D03*
X652000Y1213000D02*
D03*
X620000D02*
D03*
D22*
X612240Y927000D02*
D03*
Y957000D02*
D03*
X611240Y989000D02*
D03*
Y1019000D02*
D03*
D23*
X684000Y1150000D02*
D03*
Y1155000D02*
D03*
Y1160000D02*
D03*
Y1165000D02*
D03*
Y1170000D02*
D03*
X714000D02*
D03*
Y1165000D02*
D03*
Y1160000D02*
D03*
Y1155000D02*
D03*
Y1150000D02*
D03*
D28*
X651000Y1042000D02*
D03*
X641500Y1022000D02*
D03*
X660500D02*
D03*
D100*
X725000Y1197000D02*
D03*
X681000D02*
D03*
X854000Y1247000D02*
D03*
X810000D02*
D03*
D101*
X699000Y1160000D02*
D03*
D102*
X669500Y1042000D02*
D03*
X692500Y1032500D02*
D03*
Y1051500D02*
D03*
D103*
X1577500Y729500D02*
D03*
Y723000D02*
D03*
Y716500D02*
D03*
X1596500D02*
D03*
Y723000D02*
D03*
Y729500D02*
D03*
D104*
X831071Y1118071D02*
D03*
X810211Y1110646D02*
D03*
X823646Y1097211D02*
D03*
D105*
X572767Y757950D02*
D03*
Y782950D02*
D03*
D106*
X845686Y1195313D02*
D03*
X868314Y1172686D02*
D03*
X905000Y1137000D02*
D03*
X882373Y1159627D02*
D03*
X854686Y1132314D02*
D03*
X877314Y1109686D02*
D03*
D107*
X826868Y1170132D02*
D03*
X836414Y1147151D02*
D03*
X849849Y1160586D02*
D03*
D108*
X438317Y794320D02*
D03*
Y778120D02*
D03*
X601000Y781000D02*
D03*
Y797000D02*
D03*
D109*
X598000Y757000D02*
D03*
X614000D02*
D03*
D110*
X477147Y777180D02*
D03*
Y764480D02*
D03*
Y751780D02*
D03*
Y739080D02*
D03*
X531387D02*
D03*
Y751780D02*
D03*
Y764480D02*
D03*
Y777180D02*
D03*
D111*
X563240Y989500D02*
D03*
Y926500D02*
D03*
D112*
X515620Y982250D02*
D03*
Y988750D02*
D03*
Y995250D02*
D03*
Y1001750D02*
D03*
Y1008250D02*
D03*
Y1014750D02*
D03*
Y1021250D02*
D03*
Y1027750D02*
D03*
X456860D02*
D03*
Y1021250D02*
D03*
Y1014750D02*
D03*
Y1008250D02*
D03*
Y1001750D02*
D03*
Y995250D02*
D03*
Y988750D02*
D03*
Y982250D02*
D03*
D113*
X475240Y1068000D02*
D03*
D114*
X455240Y1080500D02*
D03*
Y1075500D02*
D03*
Y1070500D02*
D03*
Y1065500D02*
D03*
Y1060500D02*
D03*
Y1055500D02*
D03*
X495240D02*
D03*
Y1060500D02*
D03*
Y1065500D02*
D03*
Y1070500D02*
D03*
Y1075500D02*
D03*
Y1080500D02*
D03*
D115*
X462740Y1048000D02*
D03*
X467740D02*
D03*
X472740D02*
D03*
X477740D02*
D03*
X482740D02*
D03*
X487740D02*
D03*
Y1088000D02*
D03*
X482740D02*
D03*
X477740D02*
D03*
X472740D02*
D03*
X467740D02*
D03*
X462740D02*
D03*
M02*
