G04*
G04 #@! TF.GenerationSoftware,Altium Limited,Altium Designer,23.5.1 (21)*
G04*
G04 Layer_Physical_Order=1*
G04 Layer_Color=255*
%FSLAX44Y44*%
%MOMM*%
G71*
G04*
G04 #@! TF.SameCoordinates,FC4C4C8E-A767-40D1-8FD6-770ACC15EC19*
G04*
G04*
G04 #@! TF.FilePolarity,Positive*
G04*
G01*
G75*
%ADD13C,0.2540*%
%ADD14R,2.8500X3.2000*%
%ADD15R,1.9000X1.3500*%
%ADD16R,1.4000X0.3000*%
%ADD17R,0.3000X1.4000*%
%ADD18R,1.3500X1.9000*%
%ADD19R,0.9000X1.5000*%
%ADD20R,1.5000X0.9000*%
%ADD21R,2.1500X4.1000*%
%ADD22R,1.8000X1.1500*%
%ADD23R,0.8500X0.3000*%
%ADD24R,0.3000X0.8500*%
%ADD25R,1.2500X1.2500*%
%ADD26R,1.8000X2.9000*%
%ADD27R,1.1500X1.8000*%
%ADD28R,0.6000X0.7000*%
%ADD29R,1.2000X1.0000*%
%ADD30R,4.1000X2.1500*%
%ADD31R,1.1000X0.9000*%
%ADD32R,1.4000X0.9000*%
%ADD33R,4.4000X2.5000*%
%ADD34R,1.3500X1.5500*%
%ADD35R,1.0000X1.2000*%
%ADD36R,1.3500X1.9000*%
%ADD37R,1.8000X1.1700*%
%ADD38R,1.1000X0.7500*%
%ADD39R,1.1000X0.8500*%
%ADD40R,3.2000X2.8500*%
%ADD83C,0.5000*%
%ADD84C,0.3000*%
%ADD85C,0.7500*%
%ADD86R,0.9000X0.9000*%
%ADD87C,2.0000*%
%ADD88C,5.0000*%
%ADD89C,1.9500*%
%ADD90R,1.8000X1.8000*%
%ADD91C,1.8000*%
%ADD92C,0.3750*%
%ADD93C,1.1000*%
%ADD94R,1.5750X1.5750*%
%ADD95C,1.5750*%
%ADD96C,1.5000*%
%ADD97R,1.5000X1.5000*%
%ADD98C,1.4000*%
%ADD99C,0.6500*%
G36*
X1780000Y520000D02*
X280000D01*
Y1270000D01*
X828586D01*
X829085Y1268730D01*
X827668Y1267313D01*
X826710Y1265001D01*
Y1262499D01*
X827062Y1261650D01*
X826265Y1260300D01*
X825569Y1260220D01*
X824045Y1261744D01*
X822557Y1262739D01*
X820801Y1263088D01*
X813000D01*
Y1265500D01*
X797000D01*
Y1251500D01*
X813000D01*
Y1253912D01*
X818900D01*
X821096Y1251716D01*
X822585Y1250721D01*
X824341Y1250372D01*
X839150D01*
X840906Y1250721D01*
X842395Y1251716D01*
X844591Y1253912D01*
X853000D01*
Y1251500D01*
X869000D01*
Y1253912D01*
X1200500D01*
Y1248250D01*
X1223500D01*
Y1253912D01*
X1298600D01*
X1348412Y1204100D01*
Y1034901D01*
X1254356Y940844D01*
X1253361Y939356D01*
X1253012Y937600D01*
Y936279D01*
X1251742Y935939D01*
X1251034Y937165D01*
X1249165Y939034D01*
X1246875Y940356D01*
X1244322Y941040D01*
X1241678D01*
X1239125Y940356D01*
X1236835Y939034D01*
X1234966Y937165D01*
X1233644Y934875D01*
X1232960Y932322D01*
Y929678D01*
X1233644Y927125D01*
X1234966Y924835D01*
X1236835Y922966D01*
X1239125Y921644D01*
X1239912Y921433D01*
Y889000D01*
X1233299D01*
X1232959Y890270D01*
X1234165Y890966D01*
X1236034Y892835D01*
X1237356Y895125D01*
X1238040Y897678D01*
Y900322D01*
X1237356Y902875D01*
X1236034Y905165D01*
X1234165Y907034D01*
X1231875Y908356D01*
X1229322Y909040D01*
X1226678D01*
X1224125Y908356D01*
X1221835Y907034D01*
X1219966Y905165D01*
X1218644Y902875D01*
X1218081Y900774D01*
X1216811Y900863D01*
X1216127Y903416D01*
X1214805Y905706D01*
X1212936Y907575D01*
X1210646Y908897D01*
X1208093Y909581D01*
X1205449D01*
X1202896Y908897D01*
X1200606Y907575D01*
X1198737Y905706D01*
X1197415Y903416D01*
X1196839Y901264D01*
X1195569Y901431D01*
Y905522D01*
X1302523Y1012477D01*
X1303297Y1013634D01*
X1303569Y1015000D01*
Y1140000D01*
X1303297Y1141366D01*
X1302523Y1142523D01*
X1296023Y1149023D01*
X1294866Y1149797D01*
X1293500Y1150069D01*
X1288290D01*
Y1150230D01*
X1281500D01*
Y1152770D01*
X1288290D01*
Y1155230D01*
X1281500D01*
Y1157770D01*
X1288290D01*
Y1157932D01*
X1289500D01*
X1290866Y1158203D01*
X1292023Y1158977D01*
X1295523Y1162477D01*
X1296297Y1163634D01*
X1296569Y1165000D01*
Y1177000D01*
X1296297Y1178366D01*
X1295523Y1179523D01*
X1292523Y1182523D01*
X1291366Y1183297D01*
X1290000Y1183568D01*
X1279569D01*
Y1199412D01*
X1281500D01*
Y1194250D01*
X1304500D01*
Y1198412D01*
X1311099D01*
X1318498Y1191013D01*
Y1168697D01*
X1316966Y1167165D01*
X1315644Y1164875D01*
X1314960Y1162322D01*
Y1159678D01*
X1315644Y1157125D01*
X1316966Y1154835D01*
X1318835Y1152966D01*
X1321125Y1151644D01*
X1323678Y1150960D01*
X1326322D01*
X1328875Y1151644D01*
X1331165Y1152966D01*
X1333034Y1154835D01*
X1334356Y1157125D01*
X1335040Y1159678D01*
Y1162322D01*
X1334356Y1164875D01*
X1333034Y1167165D01*
X1331165Y1169034D01*
X1328875Y1170356D01*
X1327675Y1170677D01*
Y1192913D01*
X1327325Y1194669D01*
X1326331Y1196158D01*
X1316244Y1206244D01*
X1314756Y1207239D01*
X1313000Y1207588D01*
X1304500D01*
Y1211750D01*
X1281500D01*
Y1208588D01*
X1263000D01*
Y1212750D01*
X1247488D01*
X1240998Y1219241D01*
X1240494Y1219994D01*
X1232244Y1228244D01*
X1230756Y1229239D01*
X1229000Y1229588D01*
X1223500D01*
Y1233750D01*
X1200500D01*
Y1216250D01*
X1223500D01*
Y1220412D01*
X1227099D01*
X1233502Y1214009D01*
X1234006Y1213256D01*
X1241000Y1206261D01*
Y1197250D01*
X1263000D01*
Y1199412D01*
X1272431D01*
Y1183568D01*
X1264500D01*
X1263134Y1183297D01*
X1261977Y1182523D01*
X1256977Y1177523D01*
X1256203Y1176366D01*
X1255932Y1175000D01*
Y1168000D01*
X1256000Y1167655D01*
Y1165000D01*
X1252845D01*
X1252500Y1165069D01*
X1239420D01*
X1201331Y1203158D01*
X1199843Y1204152D01*
X1198087Y1204501D01*
X1057434D01*
X1055678Y1204152D01*
X1054190Y1203158D01*
X1048756Y1197724D01*
X1047761Y1196235D01*
X1047412Y1194479D01*
Y1155750D01*
X1040500D01*
Y1138250D01*
X1063500D01*
Y1155750D01*
X1056588D01*
Y1192579D01*
X1058313Y1194304D01*
X1059250Y1193445D01*
X1059250Y1192253D01*
Y1170500D01*
X1073011D01*
X1142512Y1100999D01*
Y1056140D01*
X1137060D01*
Y1036060D01*
X1157140D01*
Y1056140D01*
X1151688D01*
Y1102900D01*
X1151339Y1104656D01*
X1150345Y1106144D01*
X1076750Y1179739D01*
Y1193500D01*
X1060519D01*
X1059305Y1193500D01*
X1058447Y1194437D01*
X1059334Y1195325D01*
X1196187D01*
X1233256Y1158256D01*
X1234744Y1157261D01*
X1236500Y1156912D01*
X1238256Y1157261D01*
X1239259Y1157932D01*
X1245710D01*
Y1157770D01*
X1252500D01*
Y1155230D01*
X1245710D01*
Y1152770D01*
X1252500D01*
Y1150230D01*
X1245710D01*
Y1147460D01*
X1246250D01*
Y1143000D01*
X1256000D01*
Y1133250D01*
X1260931D01*
Y1007978D01*
X1238898Y985945D01*
X1237912Y986755D01*
X1238239Y987244D01*
X1238588Y989000D01*
Y1041000D01*
X1238239Y1042756D01*
X1237244Y1044244D01*
X1219494Y1061994D01*
X1218006Y1062989D01*
X1216250Y1063338D01*
X1203088D01*
Y1070250D01*
X1208500D01*
Y1087750D01*
X1185500D01*
Y1070250D01*
X1193912D01*
Y1058750D01*
Y1045500D01*
X1193500D01*
Y1034500D01*
X1203500D01*
Y1045500D01*
X1203088D01*
Y1054162D01*
X1214350D01*
X1229412Y1039100D01*
Y990900D01*
X1152356Y913844D01*
X1151889Y913145D01*
X1150513Y913372D01*
X1150110Y914875D01*
X1148788Y917165D01*
X1146919Y919034D01*
X1144630Y920356D01*
X1142076Y921040D01*
X1139433D01*
X1136879Y920356D01*
X1134590Y919034D01*
X1132720Y917165D01*
X1131399Y914875D01*
X1130714Y912322D01*
Y909678D01*
X1131399Y907125D01*
X1132720Y904835D01*
X1134590Y902966D01*
X1136879Y901644D01*
X1138312Y901260D01*
Y889000D01*
X1134788D01*
Y891800D01*
X1134439Y893556D01*
X1133444Y895044D01*
X1119569Y908920D01*
X1120040Y910678D01*
Y913322D01*
X1119356Y915875D01*
X1118034Y918165D01*
X1116165Y920034D01*
X1113875Y921356D01*
X1111322Y922040D01*
X1108678D01*
X1106125Y921356D01*
X1103835Y920034D01*
X1101966Y918165D01*
X1100644Y915875D01*
X1099960Y913322D01*
Y910678D01*
X1100644Y908125D01*
X1101966Y905835D01*
X1103835Y903966D01*
X1106125Y902644D01*
X1108678Y901960D01*
X1111322D01*
X1113080Y902431D01*
X1125241Y890270D01*
X1124717Y889000D01*
X1073461D01*
X1073473Y886488D01*
X1072577Y885588D01*
X611900D01*
X475541Y1021948D01*
X444244Y1053244D01*
X442756Y1054239D01*
X441000Y1054588D01*
X403900D01*
X376244Y1082244D01*
X374756Y1083239D01*
X373000Y1083588D01*
X308500D01*
Y1093750D01*
X315500D01*
Y1109450D01*
X293588D01*
Y1115100D01*
X293829Y1115341D01*
X415184D01*
X429520Y1101005D01*
X431008Y1100011D01*
X432764Y1099662D01*
X553420D01*
Y1081750D01*
X578920D01*
Y1103137D01*
X625886D01*
X627566Y1101457D01*
X629856Y1100135D01*
X632409Y1099451D01*
X635053D01*
X637606Y1100135D01*
X639896Y1101457D01*
X641576Y1103137D01*
X644740D01*
Y1099790D01*
X667740D01*
Y1117290D01*
X644740D01*
Y1114863D01*
X642223D01*
X641765Y1115656D01*
X639896Y1117525D01*
X638319Y1118435D01*
Y1123755D01*
X639492Y1124241D01*
X643257Y1120477D01*
X644415Y1119703D01*
X645780Y1119432D01*
X682671D01*
Y1117290D01*
X675240D01*
Y1101790D01*
X690751D01*
X702412Y1090129D01*
Y1085898D01*
X701290Y1085540D01*
X701142Y1085540D01*
X694270D01*
Y1074000D01*
Y1062460D01*
X701142D01*
X701290Y1062460D01*
X702412Y1062102D01*
Y1034829D01*
X702171Y1034588D01*
X698210D01*
Y1055740D01*
X680710D01*
Y1048928D01*
X674915D01*
Y1055840D01*
X669458D01*
Y1062500D01*
X672750D01*
Y1085500D01*
X655250D01*
Y1062500D01*
X660282D01*
Y1055840D01*
X657415D01*
Y1032840D01*
X664432D01*
Y1023941D01*
X663161Y1023262D01*
X662796Y1023507D01*
X661430Y1023778D01*
X654570D01*
Y1031710D01*
X643253D01*
X642915Y1032840D01*
X642915Y1032980D01*
Y1055840D01*
X625415D01*
Y1048928D01*
X619340D01*
X618467Y1048754D01*
X617585Y1048579D01*
X617584Y1048579D01*
X617584Y1048579D01*
X616904Y1048124D01*
X616096Y1047584D01*
X610576Y1042064D01*
X610576Y1042064D01*
X610575Y1042064D01*
X610119Y1041381D01*
X609581Y1040576D01*
X609581Y1040576D01*
X609581Y1040576D01*
X609417Y1039751D01*
X609232Y1038820D01*
X609232Y1038820D01*
X609232Y1038820D01*
Y1031710D01*
X605070D01*
Y1008710D01*
X622570D01*
Y1031710D01*
X618408D01*
Y1036919D01*
X621241Y1039752D01*
X625415D01*
Y1032840D01*
X636732D01*
X637070Y1031710D01*
X637070Y1031570D01*
Y1008710D01*
X654570D01*
Y1016641D01*
X659431D01*
Y1006000D01*
X659500Y1005656D01*
Y997000D01*
X686500D01*
Y1005655D01*
X686568Y1006000D01*
Y1011235D01*
X686795Y1011280D01*
X688283Y1012275D01*
X692660Y1016652D01*
X715137D01*
Y966920D01*
X703250D01*
Y941420D01*
X748250D01*
Y966920D01*
X726863D01*
Y1017143D01*
X993368D01*
X1018455Y992056D01*
X1019944Y991061D01*
X1021700Y990712D01*
X1061956D01*
X1062866Y989136D01*
X1064735Y987266D01*
X1067025Y985944D01*
X1069578Y985260D01*
X1072222D01*
X1074775Y985944D01*
X1077065Y987266D01*
X1078934Y989136D01*
X1079729Y990512D01*
X1084000D01*
X1089412Y985099D01*
Y946651D01*
X1089261Y946500D01*
X1078250D01*
Y923500D01*
X1095750D01*
Y940011D01*
X1097244Y941506D01*
X1098239Y942994D01*
X1098588Y944750D01*
Y987000D01*
X1098239Y988756D01*
X1097244Y990244D01*
X1089145Y998344D01*
X1087656Y999339D01*
X1085900Y999688D01*
X1079960D01*
X1078934Y1001465D01*
X1077065Y1003334D01*
X1074775Y1004656D01*
X1072222Y1005340D01*
X1069578D01*
X1067025Y1004656D01*
X1064735Y1003334D01*
X1062866Y1001465D01*
X1061956Y999888D01*
X1023600D01*
X998513Y1024976D01*
X997025Y1025970D01*
X995269Y1026319D01*
X726863D01*
Y1032740D01*
X730210D01*
Y1055740D01*
X712710D01*
Y1055740D01*
X711588Y1056099D01*
Y1069652D01*
X715250D01*
Y1063000D01*
X730750D01*
Y1069412D01*
X760250D01*
Y1062500D01*
X777750D01*
Y1085500D01*
X760250D01*
Y1078588D01*
X730750D01*
Y1085000D01*
X715250D01*
Y1078828D01*
X711588D01*
Y1092030D01*
X711239Y1093786D01*
X710245Y1095274D01*
X697240Y1108279D01*
Y1117290D01*
X698249Y1117921D01*
X707339D01*
X707966Y1116835D01*
X709835Y1114966D01*
X712125Y1113644D01*
X714678Y1112960D01*
X717322D01*
X719875Y1113644D01*
X722165Y1114966D01*
X724034Y1116835D01*
X725356Y1119125D01*
X726040Y1121678D01*
Y1124322D01*
X725356Y1126875D01*
X724034Y1129165D01*
X722165Y1131034D01*
X719875Y1132356D01*
X717322Y1133040D01*
X714678D01*
X712125Y1132356D01*
X709835Y1131034D01*
X707966Y1129165D01*
X706772Y1127097D01*
X686240D01*
X684484Y1126748D01*
X684216Y1126569D01*
X647258D01*
X643300Y1130527D01*
Y1146269D01*
Y1150269D01*
X643028Y1151635D01*
X642254Y1152793D01*
X640765Y1154282D01*
X641343Y1155500D01*
X642366Y1155703D01*
X643524Y1156477D01*
X643841Y1156794D01*
X644840Y1156380D01*
Y1156380D01*
X651752D01*
Y1149290D01*
X644740D01*
Y1131790D01*
X667740D01*
Y1149290D01*
X660928D01*
Y1156380D01*
X667840D01*
Y1160542D01*
X671510D01*
Y1156380D01*
X694510D01*
Y1173880D01*
X671510D01*
Y1169718D01*
X667840D01*
Y1173880D01*
X644840D01*
Y1165666D01*
X644097D01*
X642732Y1165394D01*
X641647Y1164669D01*
X641391Y1164739D01*
X640482Y1165325D01*
X640568Y1165758D01*
Y1175430D01*
X643710D01*
Y1188042D01*
X644840Y1188380D01*
X644980Y1188380D01*
X667840D01*
Y1205880D01*
X660928D01*
Y1209050D01*
X660928Y1209050D01*
X660928Y1209050D01*
X660779Y1209798D01*
X660579Y1210806D01*
X660579Y1210806D01*
X660579Y1210806D01*
X660162Y1211430D01*
X659584Y1212294D01*
X659584Y1212295D01*
X652454Y1219424D01*
X652454Y1219424D01*
X652454Y1219424D01*
X650966Y1220419D01*
X650965Y1220419D01*
X650965Y1220419D01*
X650163Y1220579D01*
X649210Y1220768D01*
X643710D01*
Y1224930D01*
X620710D01*
Y1207430D01*
X643710D01*
Y1211592D01*
X647309D01*
X651752Y1207150D01*
X651751Y1205880D01*
X644840D01*
Y1193268D01*
X643710Y1192930D01*
X643570Y1192930D01*
X620710D01*
Y1175430D01*
X633431D01*
Y1167569D01*
X626500D01*
X626155Y1167500D01*
X617500D01*
Y1160500D01*
Y1150500D01*
Y1140500D01*
X622931D01*
Y1136260D01*
X622261Y1135256D01*
X621912Y1133501D01*
X622261Y1131745D01*
X623256Y1130256D01*
X629143Y1124369D01*
Y1118435D01*
X627566Y1117525D01*
X625697Y1115656D01*
X625239Y1114863D01*
X578920D01*
Y1126750D01*
X553420D01*
Y1108838D01*
X434665D01*
X420329Y1123174D01*
X418841Y1124168D01*
X417085Y1124517D01*
X291929D01*
X291929Y1124517D01*
X291928Y1124517D01*
X291027Y1124338D01*
X290173Y1124168D01*
X290173Y1124168D01*
X290173Y1124168D01*
X289392Y1123646D01*
X288685Y1123174D01*
X288684Y1123173D01*
X288684Y1123173D01*
X285756Y1120244D01*
X285237Y1119468D01*
X284761Y1118756D01*
X284761Y1118756D01*
X284761Y1118755D01*
X284586Y1117873D01*
X284412Y1117000D01*
Y1049929D01*
X284761Y1048173D01*
X285756Y1046684D01*
X288685Y1043756D01*
X290173Y1042761D01*
X291929Y1042412D01*
X293500D01*
Y1028750D01*
Y1017750D01*
Y1006750D01*
X308500D01*
Y1019412D01*
X314100D01*
X323412Y1010099D01*
Y961101D01*
X323761Y959345D01*
X324756Y957856D01*
X392856Y889756D01*
X394345Y888761D01*
X396101Y888412D01*
X542056D01*
X542966Y886835D01*
X544835Y884966D01*
X547125Y883644D01*
X549678Y882960D01*
X552322D01*
X554875Y883644D01*
X557165Y884966D01*
X559034Y886835D01*
X560356Y889125D01*
X561040Y891678D01*
Y894322D01*
X560356Y896875D01*
X559034Y899165D01*
X557165Y901034D01*
X554875Y902356D01*
X552322Y903040D01*
X549678D01*
X547125Y902356D01*
X544835Y901034D01*
X542966Y899165D01*
X542056Y897588D01*
X398001D01*
X357351Y938239D01*
X357837Y939412D01*
X452056D01*
X452966Y937835D01*
X454835Y935966D01*
X457125Y934644D01*
X459678Y933960D01*
X462322D01*
X464875Y934644D01*
X467165Y935966D01*
X469034Y937835D01*
X469944Y939412D01*
X526099D01*
X596756Y868756D01*
X598244Y867761D01*
X600000Y867412D01*
X1024100D01*
X1068306Y823205D01*
X1069794Y822211D01*
X1071550Y821862D01*
X1073790D01*
X1074495Y678000D01*
X1121852D01*
X1122338Y676827D01*
X1094100Y648588D01*
X896000D01*
X894244Y648239D01*
X892756Y647244D01*
X862156Y616644D01*
X861161Y615156D01*
X860812Y613400D01*
Y580676D01*
X858314Y579234D01*
X856166Y577086D01*
X854646Y574454D01*
X853860Y571519D01*
Y568481D01*
X854646Y565546D01*
X856166Y562914D01*
X858314Y560766D01*
X860946Y559246D01*
X863881Y558460D01*
X866919D01*
X869854Y559246D01*
X872486Y560766D01*
X874634Y562914D01*
X876153Y565546D01*
X876940Y568481D01*
Y571519D01*
X876153Y574454D01*
X874634Y577086D01*
X872486Y579234D01*
X869988Y580676D01*
Y611499D01*
X897900Y639412D01*
X1096000D01*
X1097756Y639761D01*
X1099244Y640756D01*
X1133444Y674956D01*
X1134439Y676444D01*
X1134748Y678000D01*
X1138312D01*
Y668801D01*
X1133080Y663569D01*
X1131322Y664040D01*
X1128678D01*
X1126125Y663356D01*
X1123835Y662034D01*
X1121966Y660165D01*
X1120644Y657875D01*
X1119960Y655322D01*
Y652678D01*
X1120644Y650125D01*
X1121966Y647835D01*
X1123835Y645966D01*
X1126125Y644644D01*
X1128678Y643960D01*
X1131322D01*
X1133875Y644644D01*
X1136165Y645966D01*
X1138034Y647835D01*
X1139356Y650125D01*
X1140040Y652678D01*
Y655322D01*
X1139569Y657080D01*
X1146144Y663656D01*
X1147139Y665144D01*
X1147488Y666900D01*
Y678000D01*
X1150712D01*
Y664117D01*
X1148835Y663034D01*
X1146966Y661165D01*
X1145644Y658875D01*
X1144960Y656322D01*
Y653678D01*
X1145644Y651125D01*
X1146966Y648835D01*
X1148835Y646966D01*
X1151125Y645644D01*
X1153678Y644960D01*
X1156322D01*
X1158875Y645644D01*
X1161165Y646966D01*
X1163034Y648835D01*
X1164356Y651125D01*
X1165040Y653678D01*
Y656322D01*
X1164356Y658875D01*
X1163034Y661165D01*
X1161165Y663034D01*
X1159888Y663771D01*
Y678000D01*
X1176412D01*
Y624901D01*
X1160099Y608588D01*
X951000D01*
X949244Y608239D01*
X947756Y607244D01*
X938356Y597844D01*
X937361Y596356D01*
X937012Y594600D01*
Y580676D01*
X934514Y579234D01*
X932366Y577086D01*
X930846Y574454D01*
X930060Y571519D01*
Y568481D01*
X930846Y565546D01*
X932366Y562914D01*
X934514Y560766D01*
X937146Y559246D01*
X940081Y558460D01*
X943119D01*
X946054Y559246D01*
X948686Y560766D01*
X950834Y562914D01*
X952354Y565546D01*
X953140Y568481D01*
Y571519D01*
X952354Y574454D01*
X950834Y577086D01*
X948686Y579234D01*
X946188Y580676D01*
Y592700D01*
X952900Y599412D01*
X1162000D01*
X1163756Y599761D01*
X1165244Y600756D01*
X1184244Y619756D01*
X1185239Y621244D01*
X1185588Y623000D01*
Y678000D01*
X1190062D01*
Y580128D01*
X1188514Y579234D01*
X1186366Y577086D01*
X1184846Y574454D01*
X1184060Y571519D01*
Y568481D01*
X1184846Y565546D01*
X1186366Y562914D01*
X1188514Y560766D01*
X1191146Y559246D01*
X1194081Y558460D01*
X1197119D01*
X1200054Y559246D01*
X1202686Y560766D01*
X1204834Y562914D01*
X1206354Y565546D01*
X1207140Y568481D01*
Y571519D01*
X1206354Y574454D01*
X1204834Y577086D01*
X1202686Y579234D01*
X1200054Y580754D01*
X1199238Y580972D01*
Y678000D01*
X1211101D01*
X1211531Y676730D01*
X1209966Y675165D01*
X1208644Y672875D01*
X1207960Y670322D01*
Y667678D01*
X1208644Y665125D01*
X1209966Y662835D01*
X1211835Y660966D01*
X1214125Y659644D01*
X1216678Y658960D01*
X1219322D01*
X1221875Y659644D01*
X1224165Y660966D01*
X1225942Y662743D01*
X1226648Y662671D01*
X1227212Y662520D01*
Y611200D01*
X1227561Y609444D01*
X1228556Y607956D01*
X1247756Y588756D01*
X1249244Y587761D01*
X1251000Y587412D01*
X1434099D01*
X1449756Y571756D01*
X1451244Y570761D01*
X1453000Y570412D01*
X1572056Y570412D01*
X1572966Y568835D01*
X1574835Y566966D01*
X1577125Y565644D01*
X1579678Y564960D01*
X1582322D01*
X1584875Y565644D01*
X1587165Y566966D01*
X1589034Y568835D01*
X1590356Y571125D01*
X1591040Y573678D01*
Y576322D01*
X1590356Y578875D01*
X1589034Y581165D01*
X1587165Y583034D01*
X1584875Y584356D01*
X1582322Y585040D01*
X1579678D01*
X1577125Y584356D01*
X1574835Y583034D01*
X1572966Y581165D01*
X1572056Y579588D01*
X1454900Y579588D01*
X1440347Y594142D01*
X1440873Y595412D01*
X1563071D01*
X1563337Y595465D01*
X1564835Y593966D01*
X1567125Y592644D01*
X1569678Y591960D01*
X1572322D01*
X1574875Y592644D01*
X1577165Y593966D01*
X1579034Y595835D01*
X1580356Y598125D01*
X1581040Y600678D01*
Y603322D01*
X1580356Y605875D01*
X1579034Y608165D01*
X1577165Y610034D01*
X1574875Y611356D01*
X1572322Y612040D01*
X1569678D01*
X1567125Y611356D01*
X1564835Y610034D01*
X1562966Y608165D01*
X1561644Y605875D01*
X1561299Y604588D01*
X1265900D01*
X1249048Y621441D01*
Y661094D01*
X1250221Y661580D01*
X1250835Y660966D01*
X1253125Y659644D01*
X1255678Y658960D01*
X1258322D01*
X1260875Y659644D01*
X1263165Y660966D01*
X1264042Y661843D01*
X1265312Y661317D01*
Y625806D01*
X1265661Y624050D01*
X1266656Y622562D01*
X1268266Y620952D01*
X1267644Y619875D01*
X1266960Y617322D01*
Y614678D01*
X1267644Y612125D01*
X1268966Y609835D01*
X1270835Y607966D01*
X1273125Y606644D01*
X1275678Y605960D01*
X1278322D01*
X1280875Y606644D01*
X1283165Y607966D01*
X1285034Y609835D01*
X1286356Y612125D01*
X1287040Y614678D01*
Y617322D01*
X1286356Y619875D01*
X1285034Y622165D01*
X1283165Y624034D01*
X1280875Y625356D01*
X1278322Y626040D01*
X1276155D01*
X1274488Y627706D01*
Y678000D01*
X1448000D01*
Y732412D01*
X1499214D01*
X1500066Y730935D01*
X1501935Y729066D01*
X1504225Y727744D01*
X1506778Y727060D01*
X1509422D01*
X1511975Y727744D01*
X1514265Y729066D01*
X1516134Y730935D01*
X1517456Y733225D01*
X1518140Y735778D01*
Y738422D01*
X1517456Y740975D01*
X1516134Y743265D01*
X1514265Y745134D01*
X1511975Y746456D01*
X1509422Y747140D01*
X1506778D01*
X1504225Y746456D01*
X1501935Y745134D01*
X1500066Y743265D01*
X1499098Y741588D01*
X1448000D01*
Y889000D01*
X1274488D01*
Y913294D01*
X1275255Y914060D01*
X1277422D01*
X1279975Y914744D01*
X1282265Y916066D01*
X1284134Y917935D01*
X1285456Y920225D01*
X1286140Y922778D01*
Y925422D01*
X1285456Y927975D01*
X1284134Y930265D01*
X1282265Y932134D01*
X1279975Y933456D01*
X1277422Y934140D01*
X1274778D01*
X1272225Y933456D01*
X1269935Y932134D01*
X1268066Y930265D01*
X1266744Y927975D01*
X1266060Y925422D01*
Y922778D01*
X1266744Y920225D01*
X1267366Y919148D01*
X1266656Y918438D01*
X1265661Y916950D01*
X1265312Y915194D01*
Y889000D01*
X1262188D01*
Y935699D01*
X1356244Y1029756D01*
X1357239Y1031244D01*
X1357588Y1033000D01*
Y1193264D01*
X1358761Y1193750D01*
X1614903Y937608D01*
Y714436D01*
X1613327Y713525D01*
X1611457Y711656D01*
X1610135Y709367D01*
X1609451Y706813D01*
Y704169D01*
X1610135Y701616D01*
X1611457Y699326D01*
X1613327Y697457D01*
X1615616Y696135D01*
X1618169Y695451D01*
X1620813D01*
X1622571Y695922D01*
X1628412Y690082D01*
Y573900D01*
X1598100Y543588D01*
X1186900D01*
X1174788Y555700D01*
Y559324D01*
X1177286Y560766D01*
X1179434Y562914D01*
X1180954Y565546D01*
X1181740Y568481D01*
Y571519D01*
X1180954Y574454D01*
X1179434Y577086D01*
X1177286Y579234D01*
X1174654Y580754D01*
X1171719Y581540D01*
X1168681D01*
X1165746Y580754D01*
X1163114Y579234D01*
X1160966Y577086D01*
X1159446Y574454D01*
X1158660Y571519D01*
Y568481D01*
X1159446Y565546D01*
X1160966Y562914D01*
X1163114Y560766D01*
X1165612Y559324D01*
Y553800D01*
X1165961Y552044D01*
X1166956Y550556D01*
X1181756Y535756D01*
X1183244Y534761D01*
X1185000Y534412D01*
X1600000D01*
X1601756Y534761D01*
X1603244Y535756D01*
X1636244Y568756D01*
X1637239Y570244D01*
X1637588Y572000D01*
Y691982D01*
X1637239Y693738D01*
X1636244Y695227D01*
X1629060Y702411D01*
X1629531Y704169D01*
Y706813D01*
X1628847Y709367D01*
X1627525Y711656D01*
X1625656Y713525D01*
X1624079Y714436D01*
Y939509D01*
X1623730Y941265D01*
X1622735Y942753D01*
X1356244Y1209244D01*
X1303744Y1261744D01*
X1302256Y1262739D01*
X1300500Y1263088D01*
X1223500D01*
Y1265750D01*
X1200500D01*
Y1263088D01*
X869000D01*
Y1265500D01*
X853000D01*
Y1263088D01*
X842690D01*
X840934Y1262739D01*
X840554Y1262485D01*
X839290Y1263168D01*
Y1265001D01*
X838333Y1267313D01*
X836916Y1268730D01*
X837414Y1270000D01*
X1780000D01*
Y520000D01*
D02*
G37*
G36*
X398756Y1046756D02*
X400244Y1045761D01*
X402000Y1045412D01*
X439100D01*
X465808Y1018703D01*
X422080Y974976D01*
X420322Y975447D01*
X417678D01*
X415125Y974762D01*
X412835Y973441D01*
X410966Y971572D01*
X409644Y969282D01*
X408960Y966729D01*
Y964085D01*
X409644Y961532D01*
X410966Y959242D01*
X412835Y957373D01*
X415125Y956051D01*
X417678Y955367D01*
X420322D01*
X422875Y956051D01*
X425165Y957373D01*
X427034Y959242D01*
X428356Y961532D01*
X429040Y964085D01*
Y966729D01*
X428569Y968487D01*
X472297Y1012215D01*
X606653Y877858D01*
X606604Y877427D01*
X606217Y876588D01*
X601900D01*
X531244Y947244D01*
X529756Y948239D01*
X528000Y948588D01*
X469944D01*
X469034Y950165D01*
X467165Y952034D01*
X464875Y953356D01*
X462322Y954040D01*
X459678D01*
X457125Y953356D01*
X454835Y952034D01*
X452966Y950165D01*
X452056Y948588D01*
X356900D01*
X341588Y963901D01*
Y1016000D01*
X341239Y1017756D01*
X340244Y1019244D01*
X322244Y1037244D01*
X320756Y1038239D01*
X319000Y1038588D01*
X308500D01*
Y1052412D01*
X336600D01*
X389256Y999756D01*
X390744Y998761D01*
X392500Y998412D01*
X408031D01*
X408644Y996125D01*
X409966Y993835D01*
X411835Y991966D01*
X414125Y990644D01*
X416678Y989960D01*
X419322D01*
X421875Y990644D01*
X424165Y991966D01*
X426034Y993835D01*
X427356Y996125D01*
X428040Y998678D01*
Y1001322D01*
X427356Y1003875D01*
X426034Y1006165D01*
X424165Y1008034D01*
X421875Y1009356D01*
X419322Y1010040D01*
X419224D01*
X418000Y1010150D01*
X418000Y1011310D01*
Y1033150D01*
X400500D01*
Y1010150D01*
X412960D01*
X413301Y1008880D01*
X411835Y1008034D01*
X411389Y1007588D01*
X394401D01*
X341744Y1060245D01*
X340256Y1061239D01*
X338500Y1061588D01*
X309040D01*
Y1066730D01*
X301000D01*
Y1069270D01*
X309040D01*
Y1074412D01*
X371099D01*
X398756Y1046756D01*
D02*
G37*
G36*
X1270770Y1132710D02*
X1270931D01*
Y1004978D01*
X1178877Y912923D01*
X1178103Y911766D01*
X1177831Y910400D01*
Y889000D01*
X1172269D01*
Y909222D01*
X1267023Y1003977D01*
X1267797Y1005134D01*
X1268068Y1006500D01*
Y1132710D01*
X1268230D01*
Y1139500D01*
X1270770D01*
Y1132710D01*
D02*
G37*
%LPC*%
G36*
X1003270Y1251983D02*
Y1245270D01*
X1009983D01*
X1009492Y1247103D01*
X1008434Y1248937D01*
X1006937Y1250434D01*
X1005103Y1251492D01*
X1003270Y1251983D01*
D02*
G37*
G36*
X1000730D02*
X998897Y1251492D01*
X997063Y1250434D01*
X995566Y1248937D01*
X994508Y1247103D01*
X994017Y1245270D01*
X1000730D01*
Y1251983D01*
D02*
G37*
G36*
X759190Y1261040D02*
X756810D01*
X754511Y1260424D01*
X752449Y1259234D01*
X750766Y1257551D01*
X749576Y1255489D01*
X748960Y1253190D01*
Y1250810D01*
X749576Y1248511D01*
X750766Y1246449D01*
X752449Y1244766D01*
X754511Y1243576D01*
X756810Y1242960D01*
X759190D01*
X761489Y1243576D01*
X763551Y1244766D01*
X765234Y1246449D01*
X766424Y1248511D01*
X767040Y1250810D01*
Y1253190D01*
X766424Y1255489D01*
X765234Y1257551D01*
X763551Y1259234D01*
X761489Y1260424D01*
X759190Y1261040D01*
D02*
G37*
G36*
X869540Y1249040D02*
X862270D01*
Y1242770D01*
X869540D01*
Y1249040D01*
D02*
G37*
G36*
X813540D02*
X806270D01*
Y1242770D01*
X813540D01*
Y1249040D01*
D02*
G37*
G36*
X859730D02*
X852460D01*
Y1242770D01*
X859730D01*
Y1249040D01*
D02*
G37*
G36*
X803730D02*
X796460D01*
Y1242770D01*
X803730D01*
Y1249040D01*
D02*
G37*
G36*
X1263540Y1243290D02*
X1253270D01*
Y1236270D01*
X1263540D01*
Y1243290D01*
D02*
G37*
G36*
X1250730D02*
X1240460D01*
Y1236270D01*
X1250730D01*
Y1243290D01*
D02*
G37*
G36*
X1305040Y1244290D02*
X1294270D01*
Y1236270D01*
X1305040D01*
Y1244290D01*
D02*
G37*
G36*
X1291730D02*
X1280960D01*
Y1236270D01*
X1291730D01*
Y1244290D01*
D02*
G37*
G36*
X1009983Y1242730D02*
X1003270D01*
Y1236017D01*
X1005103Y1236508D01*
X1006937Y1237567D01*
X1008434Y1239063D01*
X1009492Y1240897D01*
X1009983Y1242730D01*
D02*
G37*
G36*
X1000730D02*
X994017D01*
X994508Y1240897D01*
X995566Y1239063D01*
X997063Y1237567D01*
X998897Y1236508D01*
X1000730Y1236017D01*
Y1242730D01*
D02*
G37*
G36*
X869540Y1240230D02*
X862270D01*
Y1233960D01*
X869540D01*
Y1240230D01*
D02*
G37*
G36*
X859730D02*
X852460D01*
Y1233960D01*
X859730D01*
Y1240230D01*
D02*
G37*
G36*
X813540D02*
X806270D01*
Y1233960D01*
X813540D01*
Y1240230D01*
D02*
G37*
G36*
X803730D02*
X796460D01*
Y1233960D01*
X803730D01*
Y1240230D01*
D02*
G37*
G36*
X943371Y1242415D02*
X943270D01*
Y1233270D01*
X952415D01*
Y1233371D01*
X951705Y1236020D01*
X950334Y1238395D01*
X948395Y1240334D01*
X946020Y1241705D01*
X943371Y1242415D01*
D02*
G37*
G36*
X940730D02*
X940629D01*
X937980Y1241705D01*
X935605Y1240334D01*
X933666Y1238395D01*
X932295Y1236020D01*
X931585Y1233371D01*
Y1233270D01*
X940730D01*
Y1242415D01*
D02*
G37*
G36*
X621919Y1255540D02*
X618881D01*
X615946Y1254754D01*
X613314Y1253234D01*
X611166Y1251086D01*
X609646Y1248454D01*
X608860Y1245519D01*
Y1242481D01*
X609646Y1239546D01*
X611166Y1236914D01*
X613314Y1234766D01*
X615946Y1233247D01*
X618881Y1232460D01*
X621919D01*
X624854Y1233247D01*
X627486Y1234766D01*
X629634Y1236914D01*
X631154Y1239546D01*
X631940Y1242481D01*
Y1245519D01*
X631154Y1248454D01*
X629634Y1251086D01*
X627486Y1253234D01*
X624854Y1254754D01*
X621919Y1255540D01*
D02*
G37*
G36*
X596519D02*
X593481D01*
X590546Y1254754D01*
X587914Y1253234D01*
X585766Y1251086D01*
X584246Y1248454D01*
X583460Y1245519D01*
Y1242481D01*
X584246Y1239546D01*
X585766Y1236914D01*
X587914Y1234766D01*
X590546Y1233247D01*
X593481Y1232460D01*
X596519D01*
X599454Y1233247D01*
X602086Y1234766D01*
X604234Y1236914D01*
X605754Y1239546D01*
X606540Y1242481D01*
Y1245519D01*
X605754Y1248454D01*
X604234Y1251086D01*
X602086Y1253234D01*
X599454Y1254754D01*
X596519Y1255540D01*
D02*
G37*
G36*
X571119D02*
X568081D01*
X565146Y1254754D01*
X562514Y1253234D01*
X560366Y1251086D01*
X558847Y1248454D01*
X558060Y1245519D01*
Y1242481D01*
X558847Y1239546D01*
X560366Y1236914D01*
X562514Y1234766D01*
X565146Y1233247D01*
X568081Y1232460D01*
X571119D01*
X574054Y1233247D01*
X576686Y1234766D01*
X578834Y1236914D01*
X580354Y1239546D01*
X581140Y1242481D01*
Y1245519D01*
X580354Y1248454D01*
X578834Y1251086D01*
X576686Y1253234D01*
X574054Y1254754D01*
X571119Y1255540D01*
D02*
G37*
G36*
X545719D02*
X542681D01*
X539746Y1254754D01*
X537114Y1253234D01*
X534966Y1251086D01*
X533447Y1248454D01*
X532660Y1245519D01*
Y1242481D01*
X533447Y1239546D01*
X534966Y1236914D01*
X537114Y1234766D01*
X539746Y1233247D01*
X542681Y1232460D01*
X545719D01*
X548654Y1233247D01*
X551286Y1234766D01*
X553434Y1236914D01*
X554954Y1239546D01*
X555740Y1242481D01*
Y1245519D01*
X554954Y1248454D01*
X553434Y1251086D01*
X551286Y1253234D01*
X548654Y1254754D01*
X545719Y1255540D01*
D02*
G37*
G36*
X834251Y1242540D02*
X831749D01*
X829437Y1241582D01*
X827668Y1239813D01*
X826710Y1237501D01*
Y1234999D01*
X827668Y1232687D01*
X829437Y1230918D01*
X831749Y1229960D01*
X834251D01*
X836563Y1230918D01*
X838333Y1232687D01*
X839290Y1234999D01*
Y1237501D01*
X838333Y1239813D01*
X836563Y1241582D01*
X834251Y1242540D01*
D02*
G37*
G36*
X1263540Y1233730D02*
X1253270D01*
Y1226710D01*
X1263540D01*
Y1233730D01*
D02*
G37*
G36*
X1250730D02*
X1240460D01*
Y1226710D01*
X1250730D01*
Y1233730D01*
D02*
G37*
G36*
X1305040Y1233730D02*
X1294270D01*
Y1225710D01*
X1305040D01*
Y1233730D01*
D02*
G37*
G36*
X1291730D02*
X1280960D01*
Y1225710D01*
X1291730D01*
Y1233730D01*
D02*
G37*
G36*
X952415Y1230730D02*
X943270D01*
Y1221585D01*
X943371D01*
X946020Y1222295D01*
X948395Y1223666D01*
X950334Y1225605D01*
X951705Y1227980D01*
X952415Y1230629D01*
Y1230730D01*
D02*
G37*
G36*
X940730D02*
X931585D01*
Y1230629D01*
X932295Y1227980D01*
X933666Y1225605D01*
X935605Y1223666D01*
X937980Y1222295D01*
X940629Y1221585D01*
X940730D01*
Y1230730D01*
D02*
G37*
G36*
X927415Y1242415D02*
X906585D01*
Y1221585D01*
X927415D01*
Y1242415D01*
D02*
G37*
G36*
X743371D02*
X740629D01*
X737980Y1241705D01*
X735605Y1240334D01*
X733666Y1238395D01*
X732295Y1236020D01*
X731585Y1233371D01*
Y1230629D01*
X732295Y1227980D01*
X733666Y1225605D01*
X735605Y1223666D01*
X737980Y1222295D01*
X740629Y1221585D01*
X743371D01*
X746020Y1222295D01*
X748395Y1223666D01*
X750334Y1225605D01*
X751705Y1227980D01*
X752415Y1230629D01*
Y1233371D01*
X751705Y1236020D01*
X750334Y1238395D01*
X748395Y1240334D01*
X746020Y1241705D01*
X743371Y1242415D01*
D02*
G37*
G36*
X727415D02*
X706585D01*
Y1221585D01*
X727415D01*
Y1242415D01*
D02*
G37*
G36*
X798322Y1228040D02*
X798270D01*
Y1219270D01*
X807040D01*
Y1219322D01*
X806356Y1221875D01*
X805034Y1224165D01*
X803165Y1226034D01*
X800875Y1227356D01*
X798322Y1228040D01*
D02*
G37*
G36*
X795730D02*
X795678D01*
X793125Y1227356D01*
X790835Y1226034D01*
X788966Y1224165D01*
X787644Y1221875D01*
X786960Y1219322D01*
Y1219270D01*
X795730D01*
Y1228040D01*
D02*
G37*
G36*
X464567Y1267540D02*
X460232D01*
X455951Y1266862D01*
X451828Y1265522D01*
X447966Y1263554D01*
X444459Y1261006D01*
X441394Y1257941D01*
X438846Y1254434D01*
X436878Y1250572D01*
X435538Y1246449D01*
X434860Y1242168D01*
Y1237833D01*
X435538Y1233551D01*
X436878Y1229428D01*
X438846Y1225566D01*
X441394Y1222059D01*
X444459Y1218994D01*
X447966Y1216446D01*
X451828Y1214478D01*
X455951Y1213138D01*
X460232Y1212460D01*
X464567D01*
X468849Y1213138D01*
X472972Y1214478D01*
X476834Y1216446D01*
X480341Y1218994D01*
X483406Y1222059D01*
X485954Y1225566D01*
X487922Y1229428D01*
X489262Y1233551D01*
X489940Y1237833D01*
Y1242168D01*
X489262Y1246449D01*
X487922Y1250572D01*
X485954Y1254434D01*
X483406Y1257941D01*
X480341Y1261006D01*
X476834Y1263554D01*
X472972Y1265522D01*
X468849Y1266862D01*
X464567Y1267540D01*
D02*
G37*
G36*
X312167D02*
X307832D01*
X303551Y1266862D01*
X299428Y1265522D01*
X295566Y1263554D01*
X292059Y1261006D01*
X288994Y1257941D01*
X286446Y1254434D01*
X284478Y1250572D01*
X283138Y1246449D01*
X282460Y1242168D01*
Y1237833D01*
X283138Y1233551D01*
X284478Y1229428D01*
X286446Y1225566D01*
X288994Y1222059D01*
X292059Y1218994D01*
X295566Y1216446D01*
X299428Y1214478D01*
X303551Y1213138D01*
X307832Y1212460D01*
X312167D01*
X316449Y1213138D01*
X320572Y1214478D01*
X324434Y1216446D01*
X327941Y1218994D01*
X331006Y1222059D01*
X333554Y1225566D01*
X335522Y1229428D01*
X336862Y1233551D01*
X337540Y1237833D01*
Y1242168D01*
X336862Y1246449D01*
X335522Y1250572D01*
X333554Y1254434D01*
X331006Y1257941D01*
X327941Y1261006D01*
X324434Y1263554D01*
X320572Y1265522D01*
X316449Y1266862D01*
X312167Y1267540D01*
D02*
G37*
G36*
X1003058Y1226640D02*
X1000941D01*
X998897Y1226092D01*
X997063Y1225034D01*
X995566Y1223537D01*
X994508Y1221703D01*
X993960Y1219659D01*
Y1217542D01*
X994508Y1215497D01*
X995566Y1213663D01*
X997063Y1212167D01*
X998897Y1211108D01*
X1000941Y1210560D01*
X1003058D01*
X1005103Y1211108D01*
X1006937Y1212167D01*
X1008434Y1213663D01*
X1009492Y1215497D01*
X1010040Y1217542D01*
Y1219659D01*
X1009492Y1221703D01*
X1008434Y1223537D01*
X1006937Y1225034D01*
X1005103Y1226092D01*
X1003058Y1226640D01*
D02*
G37*
G36*
X807040Y1216730D02*
X798270D01*
Y1207960D01*
X798322D01*
X800875Y1208644D01*
X803165Y1209966D01*
X805034Y1211835D01*
X806356Y1214125D01*
X807040Y1216678D01*
Y1216730D01*
D02*
G37*
G36*
X795730D02*
X786960D01*
Y1216678D01*
X787644Y1214125D01*
X788966Y1211835D01*
X790835Y1209966D01*
X793125Y1208644D01*
X795678Y1207960D01*
X795730D01*
Y1216730D01*
D02*
G37*
G36*
X1742168Y1257540D02*
X1737832D01*
X1733551Y1256862D01*
X1729428Y1255522D01*
X1725566Y1253554D01*
X1722059Y1251006D01*
X1718994Y1247941D01*
X1716446Y1244434D01*
X1714478Y1240572D01*
X1713138Y1236449D01*
X1712460Y1232168D01*
Y1227832D01*
X1713138Y1223551D01*
X1714478Y1219428D01*
X1716446Y1215566D01*
X1718994Y1212059D01*
X1722059Y1208994D01*
X1725566Y1206446D01*
X1729428Y1204478D01*
X1733551Y1203138D01*
X1737832Y1202460D01*
X1742168D01*
X1746449Y1203138D01*
X1750572Y1204478D01*
X1754434Y1206446D01*
X1757941Y1208994D01*
X1761006Y1212059D01*
X1763554Y1215566D01*
X1765522Y1219428D01*
X1766862Y1223551D01*
X1767540Y1227832D01*
Y1232168D01*
X1766862Y1236449D01*
X1765522Y1240572D01*
X1763554Y1244434D01*
X1761006Y1247941D01*
X1757941Y1251006D01*
X1754434Y1253554D01*
X1750572Y1255522D01*
X1746449Y1256862D01*
X1742168Y1257540D01*
D02*
G37*
G36*
X695050Y1206420D02*
X684280D01*
Y1198400D01*
X695050D01*
Y1206420D01*
D02*
G37*
G36*
X681740D02*
X670970D01*
Y1198400D01*
X681740D01*
Y1206420D01*
D02*
G37*
G36*
X614530Y1206580D02*
X606510D01*
Y1195810D01*
X614530D01*
Y1206580D01*
D02*
G37*
G36*
X603970D02*
X595950D01*
Y1195810D01*
X603970D01*
Y1206580D01*
D02*
G37*
G36*
X695050Y1195860D02*
X684280D01*
Y1187840D01*
X695050D01*
Y1195860D01*
D02*
G37*
G36*
X681740D02*
X670970D01*
Y1187840D01*
X681740D01*
Y1195860D01*
D02*
G37*
G36*
X1044750Y1193500D02*
X1027250D01*
Y1186588D01*
X910343D01*
Y1190471D01*
X888343D01*
Y1157471D01*
X910343D01*
Y1177412D01*
X1027250D01*
Y1170500D01*
X1044750D01*
Y1193500D01*
D02*
G37*
G36*
X614530Y1193270D02*
X606510D01*
Y1182500D01*
X614530D01*
Y1193270D01*
D02*
G37*
G36*
X603970D02*
X595950D01*
Y1182500D01*
X603970D01*
Y1193270D01*
D02*
G37*
G36*
X546240Y1219290D02*
X510240D01*
Y1186790D01*
X536164D01*
Y1186047D01*
X536436Y1184682D01*
X537209Y1183524D01*
X566991Y1153742D01*
X566505Y1152569D01*
X546240D01*
Y1162290D01*
X510240D01*
Y1129790D01*
X546240D01*
Y1145432D01*
X572960D01*
Y1145270D01*
X592040D01*
Y1148040D01*
X591500D01*
Y1154960D01*
X592040D01*
Y1157730D01*
X582500D01*
Y1160270D01*
X592040D01*
Y1163040D01*
X591500D01*
Y1167500D01*
X582845D01*
X582500Y1167569D01*
X574569D01*
Y1183040D01*
X581990D01*
Y1206040D01*
X564490D01*
Y1183040D01*
X567431D01*
Y1165758D01*
X567572Y1165051D01*
X566402Y1164425D01*
X545210Y1185617D01*
X545696Y1186790D01*
X546240D01*
Y1219290D01*
D02*
G37*
G36*
X476619Y1162640D02*
X476370D01*
Y1152370D01*
X486640D01*
Y1152619D01*
X485853Y1155554D01*
X484334Y1158186D01*
X482186Y1160334D01*
X479554Y1161854D01*
X476619Y1162640D01*
D02*
G37*
G36*
X473830D02*
X473581D01*
X470646Y1161854D01*
X468014Y1160334D01*
X465866Y1158186D01*
X464346Y1155554D01*
X463560Y1152619D01*
Y1152370D01*
X473830D01*
Y1162640D01*
D02*
G37*
G36*
X697780Y1147830D02*
X687510D01*
Y1140810D01*
X697780D01*
Y1147830D01*
D02*
G37*
G36*
X684970D02*
X674700D01*
Y1140810D01*
X684970D01*
Y1147830D01*
D02*
G37*
G36*
X592040Y1142730D02*
X583770D01*
Y1139960D01*
X592040D01*
Y1142730D01*
D02*
G37*
G36*
X581230D02*
X572960D01*
Y1139960D01*
X581230D01*
Y1142730D01*
D02*
G37*
G36*
X486640Y1149830D02*
X476370D01*
Y1139560D01*
X476619D01*
X479554Y1140347D01*
X482186Y1141866D01*
X484334Y1144014D01*
X485853Y1146646D01*
X486640Y1149581D01*
Y1149830D01*
D02*
G37*
G36*
X473830D02*
X463560D01*
Y1149581D01*
X464346Y1146646D01*
X465866Y1144014D01*
X468014Y1141866D01*
X470646Y1140347D01*
X473581Y1139560D01*
X473830D01*
Y1149830D01*
D02*
G37*
G36*
X451219Y1162640D02*
X448181D01*
X445246Y1161854D01*
X442614Y1160334D01*
X440466Y1158186D01*
X438946Y1155554D01*
X438160Y1152619D01*
Y1149581D01*
X438946Y1146646D01*
X440466Y1144014D01*
X442614Y1141866D01*
X445246Y1140347D01*
X448181Y1139560D01*
X451219D01*
X454154Y1140347D01*
X456786Y1141866D01*
X458934Y1144014D01*
X460453Y1146646D01*
X461240Y1149581D01*
Y1152619D01*
X460453Y1155554D01*
X458934Y1158186D01*
X456786Y1160334D01*
X454154Y1161854D01*
X451219Y1162640D01*
D02*
G37*
G36*
X425819D02*
X422781D01*
X419846Y1161854D01*
X417214Y1160334D01*
X415066Y1158186D01*
X413546Y1155554D01*
X412760Y1152619D01*
Y1149581D01*
X413546Y1146646D01*
X415066Y1144014D01*
X417214Y1141866D01*
X419846Y1140347D01*
X422781Y1139560D01*
X425819D01*
X428754Y1140347D01*
X431386Y1141866D01*
X433534Y1144014D01*
X435053Y1146646D01*
X435840Y1149581D01*
Y1152619D01*
X435053Y1155554D01*
X433534Y1158186D01*
X431386Y1160334D01*
X428754Y1161854D01*
X425819Y1162640D01*
D02*
G37*
G36*
X400419D02*
X397381D01*
X394446Y1161854D01*
X391814Y1160334D01*
X389666Y1158186D01*
X388146Y1155554D01*
X387360Y1152619D01*
Y1149581D01*
X388146Y1146646D01*
X389666Y1144014D01*
X391814Y1141866D01*
X394446Y1140347D01*
X397381Y1139560D01*
X400419D01*
X403354Y1140347D01*
X405986Y1141866D01*
X408134Y1144014D01*
X409653Y1146646D01*
X410440Y1149581D01*
Y1152619D01*
X409653Y1155554D01*
X408134Y1158186D01*
X405986Y1160334D01*
X403354Y1161854D01*
X400419Y1162640D01*
D02*
G37*
G36*
X375019D02*
X371981D01*
X369046Y1161854D01*
X366414Y1160334D01*
X364266Y1158186D01*
X362746Y1155554D01*
X361960Y1152619D01*
Y1149581D01*
X362746Y1146646D01*
X364266Y1144014D01*
X366414Y1141866D01*
X369046Y1140347D01*
X371981Y1139560D01*
X375019D01*
X377954Y1140347D01*
X380586Y1141866D01*
X382734Y1144014D01*
X384253Y1146646D01*
X385040Y1149581D01*
Y1152619D01*
X384253Y1155554D01*
X382734Y1158186D01*
X380586Y1160334D01*
X377954Y1161854D01*
X375019Y1162640D01*
D02*
G37*
G36*
X349619D02*
X346581D01*
X343646Y1161854D01*
X341014Y1160334D01*
X338866Y1158186D01*
X337346Y1155554D01*
X336560Y1152619D01*
Y1149581D01*
X337346Y1146646D01*
X338866Y1144014D01*
X341014Y1141866D01*
X343646Y1140347D01*
X346581Y1139560D01*
X349619D01*
X352554Y1140347D01*
X355186Y1141866D01*
X357334Y1144014D01*
X358853Y1146646D01*
X359640Y1149581D01*
Y1152619D01*
X358853Y1155554D01*
X357334Y1158186D01*
X355186Y1160334D01*
X352554Y1161854D01*
X349619Y1162640D01*
D02*
G37*
G36*
X324219D02*
X321181D01*
X318246Y1161854D01*
X315614Y1160334D01*
X313466Y1158186D01*
X311946Y1155554D01*
X311160Y1152619D01*
Y1149581D01*
X311946Y1146646D01*
X313466Y1144014D01*
X315614Y1141866D01*
X318246Y1140347D01*
X321181Y1139560D01*
X324219D01*
X327154Y1140347D01*
X329786Y1141866D01*
X331934Y1144014D01*
X333453Y1146646D01*
X334240Y1149581D01*
Y1152619D01*
X333453Y1155554D01*
X331934Y1158186D01*
X329786Y1160334D01*
X327154Y1161854D01*
X324219Y1162640D01*
D02*
G37*
G36*
X298819D02*
X295781D01*
X292846Y1161854D01*
X290214Y1160334D01*
X288066Y1158186D01*
X286546Y1155554D01*
X285760Y1152619D01*
Y1149581D01*
X286546Y1146646D01*
X288066Y1144014D01*
X290214Y1141866D01*
X292846Y1140347D01*
X295781Y1139560D01*
X298819D01*
X301754Y1140347D01*
X304386Y1141866D01*
X306534Y1144014D01*
X308053Y1146646D01*
X308840Y1149581D01*
Y1152619D01*
X308053Y1155554D01*
X306534Y1158186D01*
X304386Y1160334D01*
X301754Y1161854D01*
X298819Y1162640D01*
D02*
G37*
G36*
X1694215Y1208394D02*
X1483460D01*
Y1180460D01*
Y1157460D01*
Y1133460D01*
X1549482D01*
Y1157460D01*
X1676441D01*
Y1180460D01*
X1694215D01*
Y1208394D01*
D02*
G37*
G36*
X992540Y1137540D02*
X985770D01*
Y1131770D01*
X992540D01*
Y1137540D01*
D02*
G37*
G36*
X983230D02*
X976460D01*
Y1131770D01*
X983230D01*
Y1137540D01*
D02*
G37*
G36*
X697780Y1138270D02*
X687510D01*
Y1131250D01*
X697780D01*
Y1138270D01*
D02*
G37*
G36*
X684970D02*
X674700D01*
Y1131250D01*
X684970D01*
Y1138270D01*
D02*
G37*
G36*
X992540Y1129230D02*
X985770D01*
Y1123460D01*
X992540D01*
Y1129230D01*
D02*
G37*
G36*
X983230D02*
X976460D01*
Y1123460D01*
X983230D01*
Y1129230D01*
D02*
G37*
G36*
X1209040Y1120290D02*
X1198270D01*
Y1112270D01*
X1209040D01*
Y1120290D01*
D02*
G37*
G36*
X1195730D02*
X1184960D01*
Y1112270D01*
X1195730D01*
Y1120290D01*
D02*
G37*
G36*
X1015000Y1137000D02*
X1000000D01*
Y1124000D01*
X1008511D01*
X1020756Y1111756D01*
X1022244Y1110761D01*
X1024000Y1110412D01*
X1040500D01*
Y1106250D01*
X1063500D01*
Y1123750D01*
X1040500D01*
Y1119588D01*
X1025900D01*
X1015000Y1130489D01*
Y1137000D01*
D02*
G37*
G36*
X1209040Y1109730D02*
X1198270D01*
Y1101710D01*
X1209040D01*
Y1109730D01*
D02*
G37*
G36*
X1195730D02*
X1184960D01*
Y1101710D01*
X1195730D01*
Y1109730D01*
D02*
G37*
G36*
X810290Y1086040D02*
X802270D01*
Y1075270D01*
X810290D01*
Y1086040D01*
D02*
G37*
G36*
X799730D02*
X791710D01*
Y1075270D01*
X799730D01*
Y1086040D01*
D02*
G37*
G36*
X641290Y1086040D02*
X633270D01*
Y1075270D01*
X641290D01*
Y1086040D01*
D02*
G37*
G36*
X691730Y1085540D02*
X684710D01*
Y1075270D01*
X691730D01*
Y1085540D01*
D02*
G37*
G36*
X630730Y1086040D02*
X622710D01*
Y1075270D01*
X630730D01*
Y1086040D01*
D02*
G37*
G36*
X418000Y1092850D02*
X400500D01*
Y1069850D01*
X418000D01*
Y1092850D01*
D02*
G37*
G36*
X691730Y1072730D02*
X684710D01*
Y1062460D01*
X691730D01*
Y1072730D01*
D02*
G37*
G36*
X810290Y1072730D02*
X802270D01*
Y1061960D01*
X810290D01*
Y1072730D01*
D02*
G37*
G36*
X799730D02*
X791710D01*
Y1061960D01*
X799730D01*
Y1072730D01*
D02*
G37*
G36*
X641290Y1072730D02*
X633270D01*
Y1061960D01*
X641290D01*
Y1072730D01*
D02*
G37*
G36*
X630730D02*
X622710D01*
Y1061960D01*
X630730D01*
Y1072730D01*
D02*
G37*
G36*
X923040Y1071040D02*
X899770D01*
Y1057270D01*
X923040D01*
Y1071040D01*
D02*
G37*
G36*
X897230D02*
X873960D01*
Y1057270D01*
X897230D01*
Y1071040D01*
D02*
G37*
G36*
X1185040Y1046040D02*
X1180770D01*
Y1041270D01*
X1185040D01*
Y1046040D01*
D02*
G37*
G36*
X1178230D02*
X1173960D01*
Y1041270D01*
X1178230D01*
Y1046040D01*
D02*
G37*
G36*
X923040Y1054730D02*
X899770D01*
Y1040960D01*
X923040D01*
Y1054730D01*
D02*
G37*
G36*
X897230D02*
X873960D01*
Y1040960D01*
X897230D01*
Y1054730D01*
D02*
G37*
G36*
X910343Y1150471D02*
X888343D01*
Y1117471D01*
X910343D01*
Y1129383D01*
X940129D01*
X993749Y1075763D01*
X995238Y1074768D01*
X996993Y1074419D01*
X1036093D01*
X1061331Y1049180D01*
X1060860Y1047422D01*
Y1044778D01*
X1061544Y1042225D01*
X1062866Y1039936D01*
X1064735Y1038066D01*
X1067025Y1036744D01*
X1069578Y1036060D01*
X1072222D01*
X1074775Y1036744D01*
X1077065Y1038066D01*
X1078934Y1039936D01*
X1080256Y1042225D01*
X1080940Y1044778D01*
Y1047422D01*
X1080256Y1049976D01*
X1078934Y1052265D01*
X1077065Y1054134D01*
X1074775Y1055456D01*
X1072222Y1056140D01*
X1069578D01*
X1067820Y1055669D01*
X1041238Y1082251D01*
X1039749Y1083246D01*
X1037994Y1083595D01*
X998894D01*
X945274Y1137215D01*
X943785Y1138210D01*
X942029Y1138559D01*
X910343D01*
Y1150471D01*
D02*
G37*
G36*
X1185040Y1038730D02*
X1180770D01*
Y1033960D01*
X1185040D01*
Y1038730D01*
D02*
G37*
G36*
X1178230D02*
X1173960D01*
Y1033960D01*
X1178230D01*
Y1038730D01*
D02*
G37*
G36*
X1148422Y1030740D02*
X1148370D01*
Y1021970D01*
X1157140D01*
Y1022022D01*
X1156456Y1024576D01*
X1155134Y1026865D01*
X1153265Y1028734D01*
X1150975Y1030056D01*
X1148422Y1030740D01*
D02*
G37*
G36*
X1145830D02*
X1145779D01*
X1143225Y1030056D01*
X1140936Y1028734D01*
X1139066Y1026865D01*
X1137745Y1024576D01*
X1137060Y1022022D01*
Y1021970D01*
X1145830D01*
Y1030740D01*
D02*
G37*
G36*
X579460Y1042290D02*
X567440D01*
Y1020520D01*
X579460D01*
Y1042290D01*
D02*
G37*
G36*
X564900D02*
X552880D01*
Y1020520D01*
X564900D01*
Y1042290D01*
D02*
G37*
G36*
X1194000Y1025500D02*
X1184000D01*
Y1014500D01*
X1184000D01*
X1183817Y1013306D01*
X1150023Y979511D01*
X1148422Y979940D01*
X1145779D01*
X1143225Y979256D01*
X1140936Y977934D01*
X1139066Y976065D01*
X1137745Y973775D01*
X1137060Y971222D01*
Y968578D01*
X1137745Y966025D01*
X1139066Y963736D01*
X1140936Y961866D01*
X1143225Y960544D01*
X1145779Y959860D01*
X1148422D01*
X1150975Y960544D01*
X1153265Y961866D01*
X1155134Y963736D01*
X1156456Y966025D01*
X1157140Y968578D01*
Y971222D01*
X1156627Y973138D01*
X1192294Y1008806D01*
X1193289Y1010294D01*
X1193638Y1012050D01*
Y1014500D01*
X1194000D01*
Y1025500D01*
D02*
G37*
G36*
X1157140Y1019430D02*
X1148370D01*
Y1010660D01*
X1148422D01*
X1150975Y1011344D01*
X1153265Y1012666D01*
X1155134Y1014536D01*
X1156456Y1016825D01*
X1157140Y1019378D01*
Y1019430D01*
D02*
G37*
G36*
X1145830D02*
X1137060D01*
Y1019378D01*
X1137745Y1016825D01*
X1139066Y1014536D01*
X1140936Y1012666D01*
X1143225Y1011344D01*
X1145779Y1010660D01*
X1145830D01*
Y1019430D01*
D02*
G37*
G36*
X1005500Y1070500D02*
X957500D01*
Y1041500D01*
X999011D01*
X1023055Y1017456D01*
X1024544Y1016461D01*
X1026299Y1016112D01*
X1061956D01*
X1062866Y1014536D01*
X1064735Y1012666D01*
X1067025Y1011344D01*
X1069578Y1010660D01*
X1072222D01*
X1074775Y1011344D01*
X1077065Y1012666D01*
X1078934Y1014536D01*
X1080256Y1016825D01*
X1080940Y1019378D01*
Y1022022D01*
X1080256Y1024576D01*
X1078934Y1026865D01*
X1077065Y1028734D01*
X1074775Y1030056D01*
X1072222Y1030740D01*
X1069578D01*
X1067025Y1030056D01*
X1064735Y1028734D01*
X1062866Y1026865D01*
X1061956Y1025288D01*
X1028200D01*
X1005500Y1047989D01*
Y1070500D01*
D02*
G37*
G36*
X579460Y1017980D02*
X567440D01*
Y996210D01*
X579460D01*
Y1017980D01*
D02*
G37*
G36*
X564900D02*
X552880D01*
Y996210D01*
X564900D01*
Y1017980D01*
D02*
G37*
G36*
X647500Y1002530D02*
X636730D01*
Y994510D01*
X647500D01*
Y1002530D01*
D02*
G37*
G36*
X634190D02*
X623420D01*
Y994510D01*
X634190D01*
Y1002530D01*
D02*
G37*
G36*
X1005000Y1170000D02*
X987000D01*
Y1157000D01*
X998511D01*
X1028756Y1126756D01*
X1030244Y1125761D01*
X1032000Y1125412D01*
X1073100D01*
X1092412Y1106099D01*
Y1043000D01*
X1092761Y1041244D01*
X1093756Y1039756D01*
X1137060Y996451D01*
Y993978D01*
X1137745Y991425D01*
X1139066Y989136D01*
X1140936Y987266D01*
X1143225Y985944D01*
X1145779Y985260D01*
X1148422D01*
X1150975Y985944D01*
X1153265Y987266D01*
X1155134Y989136D01*
X1156456Y991425D01*
X1157140Y993978D01*
Y996622D01*
X1156456Y999175D01*
X1155134Y1001465D01*
X1153265Y1003334D01*
X1150975Y1004656D01*
X1148422Y1005340D01*
X1145779D01*
X1143225Y1004656D01*
X1142342Y1004146D01*
X1101588Y1044901D01*
Y1108000D01*
X1101239Y1109756D01*
X1100244Y1111244D01*
X1078244Y1133244D01*
X1076756Y1134239D01*
X1075000Y1134588D01*
X1033901D01*
X1005000Y1163489D01*
Y1170000D01*
D02*
G37*
G36*
X647500Y991970D02*
X636730D01*
Y983950D01*
X647500D01*
Y991970D01*
D02*
G37*
G36*
X634190D02*
X623420D01*
Y983950D01*
X634190D01*
Y991970D01*
D02*
G37*
G36*
X1411322Y989040D02*
X1411270D01*
Y980270D01*
X1420040D01*
Y980322D01*
X1419356Y982875D01*
X1418034Y985165D01*
X1416165Y987034D01*
X1413875Y988356D01*
X1411322Y989040D01*
D02*
G37*
G36*
X1408730D02*
X1408678D01*
X1406125Y988356D01*
X1403835Y987034D01*
X1401966Y985165D01*
X1400644Y982875D01*
X1399960Y980322D01*
Y980270D01*
X1408730D01*
Y989040D01*
D02*
G37*
G36*
X311000Y998150D02*
X293500D01*
Y978650D01*
X311000D01*
Y998150D01*
D02*
G37*
G36*
X1662322Y984040D02*
X1662270D01*
Y975270D01*
X1671040D01*
Y975322D01*
X1670356Y977875D01*
X1669034Y980165D01*
X1667165Y982034D01*
X1664875Y983356D01*
X1662322Y984040D01*
D02*
G37*
G36*
X1659730D02*
X1659678D01*
X1657125Y983356D01*
X1654835Y982034D01*
X1652966Y980165D01*
X1651644Y977875D01*
X1650960Y975322D01*
Y975270D01*
X1659730D01*
Y984040D01*
D02*
G37*
G36*
X862051Y985540D02*
X861670D01*
Y974270D01*
X872940D01*
Y974651D01*
X872085Y977840D01*
X870434Y980700D01*
X868100Y983035D01*
X865240Y984685D01*
X862051Y985540D01*
D02*
G37*
G36*
X859130D02*
X858749D01*
X855560Y984685D01*
X852700Y983035D01*
X850366Y980700D01*
X848715Y977840D01*
X847860Y974651D01*
Y974270D01*
X859130D01*
Y985540D01*
D02*
G37*
G36*
X681730Y971540D02*
X678960D01*
Y971000D01*
X672040D01*
Y971540D01*
X669270D01*
Y962000D01*
Y952460D01*
X669431D01*
Y950478D01*
X645522Y926569D01*
X643210D01*
Y934240D01*
X610710D01*
Y898240D01*
X643210D01*
Y919431D01*
X647000D01*
X648366Y919703D01*
X649523Y920477D01*
X673258Y944211D01*
X674431Y943725D01*
Y934240D01*
X667710D01*
Y898240D01*
X700210D01*
Y934240D01*
X681568D01*
Y952460D01*
X681730D01*
Y962000D01*
Y971540D01*
D02*
G37*
G36*
X1420040Y977730D02*
X1411270D01*
Y968960D01*
X1411322D01*
X1413875Y969644D01*
X1416165Y970966D01*
X1418034Y972835D01*
X1419356Y975125D01*
X1420040Y977678D01*
Y977730D01*
D02*
G37*
G36*
X1408730D02*
X1399960D01*
Y977678D01*
X1400644Y975125D01*
X1401966Y972835D01*
X1403835Y970966D01*
X1406125Y969644D01*
X1408678Y968960D01*
X1408730D01*
Y977730D01*
D02*
G37*
G36*
X1671040Y972730D02*
X1662270D01*
Y963960D01*
X1662322D01*
X1664875Y964644D01*
X1667165Y965966D01*
X1669034Y967835D01*
X1670356Y970125D01*
X1671040Y972678D01*
Y972730D01*
D02*
G37*
G36*
X1659730D02*
X1650960D01*
Y972678D01*
X1651644Y970125D01*
X1652966Y967835D01*
X1654835Y965966D01*
X1657125Y964644D01*
X1659678Y963960D01*
X1659730D01*
Y972730D01*
D02*
G37*
G36*
X687040Y971540D02*
X684270D01*
Y963270D01*
X687040D01*
Y971540D01*
D02*
G37*
G36*
X872940Y971730D02*
X861670D01*
Y960460D01*
X862051D01*
X865240Y961315D01*
X868100Y962965D01*
X870434Y965300D01*
X872085Y968160D01*
X872940Y971349D01*
Y971730D01*
D02*
G37*
G36*
X859130D02*
X847860D01*
Y971349D01*
X848715Y968160D01*
X850366Y965300D01*
X852700Y962965D01*
X855560Y961315D01*
X858749Y960460D01*
X859130D01*
Y971730D01*
D02*
G37*
G36*
X1072222Y979940D02*
X1069578D01*
X1067025Y979256D01*
X1064735Y977934D01*
X1062866Y976065D01*
X1061956Y974488D01*
X1042650D01*
X1040894Y974139D01*
X1039406Y973145D01*
X1010012Y943750D01*
X993500D01*
Y939588D01*
X984000D01*
X982244Y939239D01*
X980756Y938245D01*
X969100Y926588D01*
X961750D01*
Y948500D01*
X936250D01*
Y903500D01*
X961750D01*
Y917412D01*
X971000D01*
X972756Y917761D01*
X974244Y918756D01*
X985901Y930412D01*
X993500D01*
Y926250D01*
X1016500D01*
Y937262D01*
X1044551Y965312D01*
X1061956D01*
X1062866Y963736D01*
X1064735Y961866D01*
X1067025Y960544D01*
X1069578Y959860D01*
X1072222D01*
X1074775Y960544D01*
X1077065Y961866D01*
X1078934Y963736D01*
X1080256Y966025D01*
X1080940Y968578D01*
Y971222D01*
X1080256Y973775D01*
X1078934Y976065D01*
X1077065Y977934D01*
X1074775Y979256D01*
X1072222Y979940D01*
D02*
G37*
G36*
X963651Y985540D02*
X960349D01*
X957160Y984685D01*
X954300Y983035D01*
X951965Y980700D01*
X950315Y977840D01*
X949460Y974651D01*
Y971349D01*
X950315Y968160D01*
X951965Y965300D01*
X954300Y962965D01*
X957160Y961315D01*
X960349Y960460D01*
X963651D01*
X966840Y961315D01*
X969700Y962965D01*
X972035Y965300D01*
X973685Y968160D01*
X973753Y968412D01*
X993500D01*
Y958250D01*
X1016500D01*
Y975750D01*
X999989D01*
X999495Y976244D01*
X998006Y977239D01*
X996250Y977588D01*
X973753D01*
X973685Y977840D01*
X972035Y980700D01*
X969700Y983035D01*
X966840Y984685D01*
X963651Y985540D01*
D02*
G37*
G36*
X833790Y967460D02*
X812020D01*
Y955440D01*
X833790D01*
Y967460D01*
D02*
G37*
G36*
X809480D02*
X787710D01*
Y955440D01*
X809480D01*
Y967460D01*
D02*
G37*
G36*
X666730Y971540D02*
X663960D01*
Y971000D01*
X659500D01*
Y962345D01*
X659431Y962000D01*
Y952978D01*
X659261Y952809D01*
X646960D01*
Y969990D01*
X623960D01*
Y952490D01*
X631892D01*
Y950997D01*
X632163Y949632D01*
X632937Y948474D01*
X634694Y946717D01*
X635852Y945943D01*
X637217Y945672D01*
X660740D01*
X662105Y945943D01*
X663263Y946717D01*
X665523Y948977D01*
X666297Y950135D01*
X666568Y951500D01*
Y952460D01*
X666730D01*
Y962000D01*
Y971540D01*
D02*
G37*
G36*
X687040Y960730D02*
X684270D01*
Y952460D01*
X687040D01*
Y960730D01*
D02*
G37*
G36*
X833790Y952900D02*
X812020D01*
Y940880D01*
X833790D01*
Y952900D01*
D02*
G37*
G36*
X809480D02*
X787710D01*
Y940880D01*
X809480D01*
Y952900D01*
D02*
G37*
G36*
X1064290Y947040D02*
X1056270D01*
Y936270D01*
X1064290D01*
Y947040D01*
D02*
G37*
G36*
X1053730D02*
X1045710D01*
Y936270D01*
X1053730D01*
Y947040D01*
D02*
G37*
G36*
X1064290Y933730D02*
X1056270D01*
Y922960D01*
X1064290D01*
Y933730D01*
D02*
G37*
G36*
X1053730D02*
X1045710D01*
Y922960D01*
X1053730D01*
Y933730D01*
D02*
G37*
G36*
X1513322Y926040D02*
X1513270D01*
Y917270D01*
X1522040D01*
Y917322D01*
X1521356Y919875D01*
X1520034Y922165D01*
X1518165Y924034D01*
X1515875Y925356D01*
X1513322Y926040D01*
D02*
G37*
G36*
X1510730D02*
X1510678D01*
X1508125Y925356D01*
X1505835Y924034D01*
X1503966Y922165D01*
X1502644Y919875D01*
X1501960Y917322D01*
Y917270D01*
X1510730D01*
Y926040D01*
D02*
G37*
G36*
X1522040Y914730D02*
X1513270D01*
Y905960D01*
X1513322D01*
X1515875Y906644D01*
X1518165Y907966D01*
X1520034Y909835D01*
X1521356Y912125D01*
X1522040Y914678D01*
Y914730D01*
D02*
G37*
G36*
X1510730D02*
X1501960D01*
Y914678D01*
X1502644Y912125D01*
X1503966Y909835D01*
X1505835Y907966D01*
X1508125Y906644D01*
X1510678Y905960D01*
X1510730D01*
Y914730D01*
D02*
G37*
G36*
X1513322Y901040D02*
X1510678D01*
X1508125Y900356D01*
X1505835Y899034D01*
X1503966Y897165D01*
X1502644Y894875D01*
X1501960Y892322D01*
Y889678D01*
X1502644Y887124D01*
X1503966Y884835D01*
X1505835Y882966D01*
X1508125Y881644D01*
X1510678Y880960D01*
X1513322D01*
X1515875Y881644D01*
X1518165Y882966D01*
X1520034Y884835D01*
X1521356Y887124D01*
X1522040Y889678D01*
Y892322D01*
X1521356Y894875D01*
X1520034Y897165D01*
X1518165Y899034D01*
X1515875Y900356D01*
X1513322Y901040D01*
D02*
G37*
G36*
Y876040D02*
X1510678D01*
X1508125Y875356D01*
X1505835Y874034D01*
X1503966Y872165D01*
X1502644Y869875D01*
X1501960Y867322D01*
Y864678D01*
X1502644Y862125D01*
X1503966Y859835D01*
X1505835Y857966D01*
X1508125Y856644D01*
X1510678Y855960D01*
X1513322D01*
X1515875Y856644D01*
X1518165Y857966D01*
X1520034Y859835D01*
X1521356Y862125D01*
X1522040Y864678D01*
Y867322D01*
X1521356Y869875D01*
X1520034Y872165D01*
X1518165Y874034D01*
X1515875Y875356D01*
X1513322Y876040D01*
D02*
G37*
G36*
Y851040D02*
X1510678D01*
X1508125Y850356D01*
X1505835Y849034D01*
X1503966Y847165D01*
X1502644Y844875D01*
X1501960Y842322D01*
Y839678D01*
X1502644Y837125D01*
X1503966Y834835D01*
X1505835Y832966D01*
X1508125Y831644D01*
X1510678Y830960D01*
X1513322D01*
X1515875Y831644D01*
X1518165Y832966D01*
X1520034Y834835D01*
X1521356Y837125D01*
X1522040Y839678D01*
Y842322D01*
X1521356Y844875D01*
X1520034Y847165D01*
X1518165Y849034D01*
X1515875Y850356D01*
X1513322Y851040D01*
D02*
G37*
G36*
X794618Y833290D02*
X794270D01*
Y822270D01*
X805290D01*
Y822618D01*
X804453Y825744D01*
X802835Y828546D01*
X800546Y830835D01*
X797744Y832452D01*
X794618Y833290D01*
D02*
G37*
G36*
X791730D02*
X791382D01*
X788257Y832452D01*
X785454Y830835D01*
X783166Y828546D01*
X781548Y825744D01*
X780710Y822618D01*
Y822270D01*
X791730D01*
Y833290D01*
D02*
G37*
G36*
X845618D02*
X842382D01*
X839256Y832452D01*
X836454Y830835D01*
X834165Y828546D01*
X832548Y825744D01*
X831710Y822618D01*
Y819382D01*
X832548Y816256D01*
X834165Y813454D01*
X836454Y811166D01*
X839256Y809548D01*
X842382Y808710D01*
X845618D01*
X848744Y809548D01*
X851546Y811166D01*
X853834Y813454D01*
X855452Y816256D01*
X856290Y819382D01*
Y822618D01*
X855452Y825744D01*
X853834Y828546D01*
X851546Y830835D01*
X848744Y832452D01*
X845618Y833290D01*
D02*
G37*
G36*
X805290Y819730D02*
X794270D01*
Y808710D01*
X794618D01*
X797744Y809548D01*
X800546Y811166D01*
X802835Y813454D01*
X804453Y816256D01*
X805290Y819382D01*
Y819730D01*
D02*
G37*
G36*
X791730D02*
X780710D01*
Y819382D01*
X781548Y816256D01*
X783166Y813454D01*
X785454Y811166D01*
X788257Y809548D01*
X791382Y808710D01*
X791730D01*
Y819730D01*
D02*
G37*
G36*
X1513322Y826040D02*
X1510678D01*
X1508125Y825356D01*
X1505835Y824034D01*
X1503966Y822164D01*
X1502644Y819875D01*
X1501960Y817321D01*
Y814678D01*
X1502644Y812124D01*
X1503966Y809835D01*
X1505835Y807966D01*
X1508125Y806644D01*
X1510678Y805960D01*
X1513322D01*
X1515875Y806644D01*
X1518165Y807966D01*
X1520034Y809835D01*
X1521356Y812124D01*
X1522040Y814678D01*
Y817321D01*
X1521356Y819875D01*
X1520034Y822164D01*
X1518165Y824034D01*
X1515875Y825356D01*
X1513322Y826040D01*
D02*
G37*
G36*
X643256Y797540D02*
X640744D01*
X638318Y796890D01*
X636142Y795634D01*
X634366Y793858D01*
X633110Y791682D01*
X632460Y789256D01*
Y786744D01*
X633110Y784318D01*
X634366Y782142D01*
X636142Y780366D01*
X638318Y779110D01*
X640744Y778460D01*
X643256D01*
X645682Y779110D01*
X647858Y780366D01*
X649634Y782142D01*
X650890Y784318D01*
X651540Y786744D01*
Y789256D01*
X650890Y791682D01*
X649634Y793858D01*
X647858Y795634D01*
X645682Y796890D01*
X643256Y797540D01*
D02*
G37*
G36*
X374270Y784836D02*
Y776570D01*
X382537D01*
X381890Y778982D01*
X380634Y781158D01*
X378858Y782934D01*
X376683Y784190D01*
X374270Y784836D01*
D02*
G37*
G36*
X371730D02*
X369318Y784190D01*
X367143Y782934D01*
X365366Y781158D01*
X364110Y778982D01*
X363464Y776570D01*
X371730D01*
Y784836D01*
D02*
G37*
G36*
X382537Y774030D02*
X374270D01*
Y765764D01*
X376683Y766410D01*
X378858Y767666D01*
X380634Y769442D01*
X381890Y771618D01*
X382537Y774030D01*
D02*
G37*
G36*
X371730D02*
X363464D01*
X364110Y771618D01*
X365366Y769442D01*
X367143Y767666D01*
X369318Y766410D01*
X371730Y765764D01*
Y774030D01*
D02*
G37*
G36*
X643256Y772140D02*
X640744D01*
X638318Y771490D01*
X636142Y770234D01*
X634366Y768458D01*
X633110Y766282D01*
X632460Y763856D01*
Y761344D01*
X633110Y758918D01*
X634366Y756742D01*
X636142Y754966D01*
X638318Y753710D01*
X640744Y753060D01*
X643256D01*
X645682Y753710D01*
X647858Y754966D01*
X649634Y756742D01*
X650890Y758918D01*
X651540Y761344D01*
Y763856D01*
X650890Y766282D01*
X649634Y768458D01*
X647858Y770234D01*
X645682Y771490D01*
X643256Y772140D01*
D02*
G37*
G36*
X835618Y714290D02*
X835270D01*
Y703270D01*
X846290D01*
Y703618D01*
X845452Y706744D01*
X843834Y709546D01*
X841546Y711834D01*
X838744Y713452D01*
X835618Y714290D01*
D02*
G37*
G36*
X832730D02*
X832382D01*
X829256Y713452D01*
X826454Y711834D01*
X824165Y709546D01*
X822548Y706744D01*
X821710Y703618D01*
Y703270D01*
X832730D01*
Y714290D01*
D02*
G37*
G36*
X846290Y700730D02*
X835270D01*
Y689710D01*
X835618D01*
X838744Y690547D01*
X841546Y692166D01*
X843834Y694454D01*
X845452Y697256D01*
X846290Y700382D01*
Y700730D01*
D02*
G37*
G36*
X832730D02*
X821710D01*
Y700382D01*
X822548Y697256D01*
X824165Y694454D01*
X826454Y692166D01*
X829256Y690547D01*
X832382Y689710D01*
X832730D01*
Y700730D01*
D02*
G37*
G36*
X804618Y714290D02*
X801382D01*
X798257Y713452D01*
X795454Y711834D01*
X793166Y709546D01*
X791548Y706744D01*
X790710Y703618D01*
Y700382D01*
X791548Y697256D01*
X793166Y694454D01*
X795454Y692166D01*
X798257Y690547D01*
X801382Y689710D01*
X804618D01*
X807744Y690547D01*
X810546Y692166D01*
X812835Y694454D01*
X814453Y697256D01*
X815290Y700382D01*
Y703618D01*
X814453Y706744D01*
X812835Y709546D01*
X810546Y711834D01*
X807744Y713452D01*
X804618Y714290D01*
D02*
G37*
G36*
X961750Y863500D02*
X936250D01*
Y818500D01*
X944412D01*
Y796900D01*
X911099Y763588D01*
X739000D01*
X737244Y763239D01*
X735756Y762244D01*
X633080Y659569D01*
X631322Y660040D01*
X628678D01*
X626125Y659356D01*
X623835Y658034D01*
X621966Y656165D01*
X620644Y653875D01*
X619960Y651322D01*
Y648678D01*
X620644Y646125D01*
X621966Y643835D01*
X623835Y641966D01*
X626125Y640644D01*
X628678Y639960D01*
X631322D01*
X633875Y640644D01*
X636165Y641966D01*
X638034Y643835D01*
X639356Y646125D01*
X640040Y648678D01*
Y651322D01*
X639569Y653080D01*
X740900Y754412D01*
X913000D01*
X914756Y754761D01*
X916244Y755756D01*
X952244Y791756D01*
X953239Y793244D01*
X953588Y795000D01*
Y818500D01*
X961750D01*
Y863500D01*
D02*
G37*
G36*
X1742168Y701540D02*
X1737832D01*
X1733551Y700862D01*
X1729428Y699522D01*
X1725566Y697554D01*
X1722059Y695006D01*
X1718994Y691941D01*
X1716446Y688434D01*
X1714478Y684572D01*
X1713138Y680449D01*
X1712460Y676168D01*
Y671833D01*
X1713138Y667551D01*
X1714478Y663428D01*
X1716446Y659566D01*
X1718994Y656059D01*
X1722059Y652994D01*
X1725566Y650446D01*
X1729428Y648478D01*
X1733551Y647138D01*
X1737832Y646460D01*
X1742168D01*
X1746449Y647138D01*
X1750572Y648478D01*
X1754434Y650446D01*
X1757941Y652994D01*
X1761006Y656059D01*
X1763554Y659566D01*
X1765522Y663428D01*
X1766862Y667551D01*
X1767540Y671833D01*
Y676168D01*
X1766862Y680449D01*
X1765522Y684572D01*
X1763554Y688434D01*
X1761006Y691941D01*
X1757941Y695006D01*
X1754434Y697554D01*
X1750572Y699522D01*
X1746449Y700862D01*
X1742168Y701540D01*
D02*
G37*
G36*
X559371Y639415D02*
X559270D01*
Y630270D01*
X568415D01*
Y630371D01*
X567705Y633020D01*
X566334Y635395D01*
X564395Y637334D01*
X562020Y638705D01*
X559371Y639415D01*
D02*
G37*
G36*
X556730D02*
X556629D01*
X553980Y638705D01*
X551605Y637334D01*
X549666Y635395D01*
X548295Y633020D01*
X547585Y630371D01*
Y630270D01*
X556730D01*
Y639415D01*
D02*
G37*
G36*
X593415D02*
X572585D01*
Y618585D01*
X593415D01*
Y639415D01*
D02*
G37*
G36*
X568415Y627730D02*
X559270D01*
Y618585D01*
X559371D01*
X562020Y619295D01*
X564395Y620666D01*
X566334Y622605D01*
X567705Y624980D01*
X568415Y627629D01*
Y627730D01*
D02*
G37*
G36*
X556730D02*
X547585D01*
Y627629D01*
X548295Y624980D01*
X549666Y622605D01*
X551605Y620666D01*
X553980Y619295D01*
X556629Y618585D01*
X556730D01*
Y627730D01*
D02*
G37*
G36*
X800740Y581540D02*
X790470D01*
Y571270D01*
X800740D01*
Y581540D01*
D02*
G37*
G36*
X1120919D02*
X1120670D01*
Y571270D01*
X1130940D01*
Y571519D01*
X1130154Y574454D01*
X1128634Y577086D01*
X1126486Y579234D01*
X1123854Y580754D01*
X1120919Y581540D01*
D02*
G37*
G36*
X993919D02*
X993670D01*
Y571270D01*
X1003940D01*
Y571519D01*
X1003154Y574454D01*
X1001634Y577086D01*
X999486Y579234D01*
X996854Y580754D01*
X993919Y581540D01*
D02*
G37*
G36*
X892319D02*
X892070D01*
Y571270D01*
X902340D01*
Y571519D01*
X901553Y574454D01*
X900034Y577086D01*
X897886Y579234D01*
X895254Y580754D01*
X892319Y581540D01*
D02*
G37*
G36*
X1247919D02*
X1247670D01*
Y571270D01*
X1257940D01*
Y571519D01*
X1257153Y574454D01*
X1255634Y577086D01*
X1253486Y579234D01*
X1250854Y580754D01*
X1247919Y581540D01*
D02*
G37*
G36*
X1095519D02*
X1095270D01*
Y571270D01*
X1105540D01*
Y571519D01*
X1104753Y574454D01*
X1103234Y577086D01*
X1101086Y579234D01*
X1098454Y580754D01*
X1095519Y581540D01*
D02*
G37*
G36*
X1019319D02*
X1019070D01*
Y571270D01*
X1029340D01*
Y571519D01*
X1028553Y574454D01*
X1027034Y577086D01*
X1024886Y579234D01*
X1022254Y580754D01*
X1019319Y581540D01*
D02*
G37*
G36*
X917719D02*
X917470D01*
Y571270D01*
X927740D01*
Y571519D01*
X926954Y574454D01*
X925434Y577086D01*
X923286Y579234D01*
X920654Y580754D01*
X917719Y581540D01*
D02*
G37*
G36*
X1273319D02*
X1273070D01*
Y571270D01*
X1283340D01*
Y571519D01*
X1282554Y574454D01*
X1281034Y577086D01*
X1278886Y579234D01*
X1276254Y580754D01*
X1273319Y581540D01*
D02*
G37*
G36*
X1070119D02*
X1069870D01*
Y571270D01*
X1080140D01*
Y571519D01*
X1079353Y574454D01*
X1077834Y577086D01*
X1075686Y579234D01*
X1073054Y580754D01*
X1070119Y581540D01*
D02*
G37*
G36*
X1044719D02*
X1044470D01*
Y571270D01*
X1054740D01*
Y571519D01*
X1053953Y574454D01*
X1052434Y577086D01*
X1050286Y579234D01*
X1047654Y580754D01*
X1044719Y581540D01*
D02*
G37*
G36*
X1118130D02*
X1117881D01*
X1114946Y580754D01*
X1112314Y579234D01*
X1110166Y577086D01*
X1108646Y574454D01*
X1107860Y571519D01*
Y571270D01*
X1118130D01*
Y581540D01*
D02*
G37*
G36*
X1016530D02*
X1016281D01*
X1013346Y580754D01*
X1010714Y579234D01*
X1008566Y577086D01*
X1007046Y574454D01*
X1006260Y571519D01*
Y571270D01*
X1016530D01*
Y581540D01*
D02*
G37*
G36*
X991130D02*
X990881D01*
X987946Y580754D01*
X985314Y579234D01*
X983166Y577086D01*
X981646Y574454D01*
X980860Y571519D01*
Y571270D01*
X991130D01*
Y581540D01*
D02*
G37*
G36*
X889530D02*
X889281D01*
X886346Y580754D01*
X883714Y579234D01*
X881566Y577086D01*
X880046Y574454D01*
X879260Y571519D01*
Y571270D01*
X889530D01*
Y581540D01*
D02*
G37*
G36*
X1270530D02*
X1270281D01*
X1267346Y580754D01*
X1264714Y579234D01*
X1262566Y577086D01*
X1261046Y574454D01*
X1260260Y571519D01*
Y571270D01*
X1270530D01*
Y581540D01*
D02*
G37*
G36*
X1245130D02*
X1244881D01*
X1241946Y580754D01*
X1239314Y579234D01*
X1237166Y577086D01*
X1235646Y574454D01*
X1234860Y571519D01*
Y571270D01*
X1245130D01*
Y581540D01*
D02*
G37*
G36*
X1092730D02*
X1092481D01*
X1089546Y580754D01*
X1086914Y579234D01*
X1084766Y577086D01*
X1083246Y574454D01*
X1082460Y571519D01*
Y571270D01*
X1092730D01*
Y581540D01*
D02*
G37*
G36*
X1041930D02*
X1041681D01*
X1038746Y580754D01*
X1036114Y579234D01*
X1033966Y577086D01*
X1032446Y574454D01*
X1031660Y571519D01*
Y571270D01*
X1041930D01*
Y581540D01*
D02*
G37*
G36*
X914930D02*
X914681D01*
X911746Y580754D01*
X909114Y579234D01*
X906966Y577086D01*
X905446Y574454D01*
X904660Y571519D01*
Y571270D01*
X914930D01*
Y581540D01*
D02*
G37*
G36*
X1067330D02*
X1067081D01*
X1064146Y580754D01*
X1061514Y579234D01*
X1059366Y577086D01*
X1057846Y574454D01*
X1057060Y571519D01*
Y571270D01*
X1067330D01*
Y581540D01*
D02*
G37*
G36*
X787930D02*
X777660D01*
Y571270D01*
X787930D01*
Y581540D01*
D02*
G37*
G36*
X992400Y570000D02*
D01*
D01*
D01*
D01*
D02*
G37*
G36*
X1283340Y568730D02*
X1273070D01*
Y558460D01*
X1273319D01*
X1276254Y559246D01*
X1278886Y560766D01*
X1281034Y562914D01*
X1282554Y565546D01*
X1283340Y568481D01*
Y568730D01*
D02*
G37*
G36*
X1270530D02*
X1260260D01*
Y568481D01*
X1261046Y565546D01*
X1262566Y562914D01*
X1264714Y560766D01*
X1267346Y559246D01*
X1270281Y558460D01*
X1270530D01*
Y568730D01*
D02*
G37*
G36*
X1257940D02*
X1247670D01*
Y558460D01*
X1247919D01*
X1250854Y559246D01*
X1253486Y560766D01*
X1255634Y562914D01*
X1257153Y565546D01*
X1257940Y568481D01*
Y568730D01*
D02*
G37*
G36*
X1245130D02*
X1234860D01*
Y568481D01*
X1235646Y565546D01*
X1237166Y562914D01*
X1239314Y560766D01*
X1241946Y559246D01*
X1244881Y558460D01*
X1245130D01*
Y568730D01*
D02*
G37*
G36*
X1222519Y581540D02*
X1219481D01*
X1216546Y580754D01*
X1213914Y579234D01*
X1211766Y577086D01*
X1210246Y574454D01*
X1209460Y571519D01*
Y568481D01*
X1210246Y565546D01*
X1211766Y562914D01*
X1213914Y560766D01*
X1216546Y559246D01*
X1219481Y558460D01*
X1222519D01*
X1225454Y559246D01*
X1228086Y560766D01*
X1230234Y562914D01*
X1231753Y565546D01*
X1232540Y568481D01*
Y571519D01*
X1231753Y574454D01*
X1230234Y577086D01*
X1228086Y579234D01*
X1225454Y580754D01*
X1222519Y581540D01*
D02*
G37*
G36*
X1146319D02*
X1143281D01*
X1140346Y580754D01*
X1137714Y579234D01*
X1135566Y577086D01*
X1134046Y574454D01*
X1133260Y571519D01*
Y568481D01*
X1134046Y565546D01*
X1135566Y562914D01*
X1137714Y560766D01*
X1140346Y559246D01*
X1143281Y558460D01*
X1146319D01*
X1149254Y559246D01*
X1151886Y560766D01*
X1154034Y562914D01*
X1155554Y565546D01*
X1156340Y568481D01*
Y571519D01*
X1155554Y574454D01*
X1154034Y577086D01*
X1151886Y579234D01*
X1149254Y580754D01*
X1146319Y581540D01*
D02*
G37*
G36*
X1130940Y568730D02*
X1120670D01*
Y558460D01*
X1120919D01*
X1123854Y559246D01*
X1126486Y560766D01*
X1128634Y562914D01*
X1130154Y565546D01*
X1130940Y568481D01*
Y568730D01*
D02*
G37*
G36*
X1118130D02*
X1107860D01*
Y568481D01*
X1108646Y565546D01*
X1110166Y562914D01*
X1112314Y560766D01*
X1114946Y559246D01*
X1117881Y558460D01*
X1118130D01*
Y568730D01*
D02*
G37*
G36*
X1105540D02*
X1095270D01*
Y558460D01*
X1095519D01*
X1098454Y559246D01*
X1101086Y560766D01*
X1103234Y562914D01*
X1104753Y565546D01*
X1105540Y568481D01*
Y568730D01*
D02*
G37*
G36*
X1092730D02*
X1082460D01*
Y568481D01*
X1083246Y565546D01*
X1084766Y562914D01*
X1086914Y560766D01*
X1089546Y559246D01*
X1092481Y558460D01*
X1092730D01*
Y568730D01*
D02*
G37*
G36*
X1080140D02*
X1069870D01*
Y558460D01*
X1070119D01*
X1073054Y559246D01*
X1075686Y560766D01*
X1077834Y562914D01*
X1079353Y565546D01*
X1080140Y568481D01*
Y568730D01*
D02*
G37*
G36*
X1067330D02*
X1057060D01*
Y568481D01*
X1057846Y565546D01*
X1059366Y562914D01*
X1061514Y560766D01*
X1064146Y559246D01*
X1067081Y558460D01*
X1067330D01*
Y568730D01*
D02*
G37*
G36*
X1054740D02*
X1044470D01*
Y558460D01*
X1044719D01*
X1047654Y559246D01*
X1050286Y560766D01*
X1052434Y562914D01*
X1053953Y565546D01*
X1054740Y568481D01*
Y568730D01*
D02*
G37*
G36*
X1041930D02*
X1031660D01*
Y568481D01*
X1032446Y565546D01*
X1033966Y562914D01*
X1036114Y560766D01*
X1038746Y559246D01*
X1041681Y558460D01*
X1041930D01*
Y568730D01*
D02*
G37*
G36*
X1029340D02*
X1019070D01*
Y558460D01*
X1019319D01*
X1022254Y559246D01*
X1024886Y560766D01*
X1027034Y562914D01*
X1028553Y565546D01*
X1029340Y568481D01*
Y568730D01*
D02*
G37*
G36*
X1016530D02*
X1006260D01*
Y568481D01*
X1007046Y565546D01*
X1008566Y562914D01*
X1010714Y560766D01*
X1013346Y559246D01*
X1016281Y558460D01*
X1016530D01*
Y568730D01*
D02*
G37*
G36*
X1003940D02*
X993670D01*
Y558460D01*
X993919D01*
X996854Y559246D01*
X999486Y560766D01*
X1001634Y562914D01*
X1003154Y565546D01*
X1003940Y568481D01*
Y568730D01*
D02*
G37*
G36*
X991130D02*
X980860D01*
Y568481D01*
X981646Y565546D01*
X983166Y562914D01*
X985314Y560766D01*
X987946Y559246D01*
X990881Y558460D01*
X991130D01*
Y568730D01*
D02*
G37*
G36*
X968519Y581540D02*
X965481D01*
X962546Y580754D01*
X959914Y579234D01*
X957766Y577086D01*
X956246Y574454D01*
X955460Y571519D01*
Y568481D01*
X956246Y565546D01*
X957766Y562914D01*
X959914Y560766D01*
X962546Y559246D01*
X965481Y558460D01*
X968519D01*
X971454Y559246D01*
X974086Y560766D01*
X976234Y562914D01*
X977754Y565546D01*
X978540Y568481D01*
Y571519D01*
X977754Y574454D01*
X976234Y577086D01*
X974086Y579234D01*
X971454Y580754D01*
X968519Y581540D01*
D02*
G37*
G36*
X927740Y568730D02*
X917470D01*
Y558460D01*
X917719D01*
X920654Y559246D01*
X923286Y560766D01*
X925434Y562914D01*
X926954Y565546D01*
X927740Y568481D01*
Y568730D01*
D02*
G37*
G36*
X914930D02*
X904660D01*
Y568481D01*
X905446Y565546D01*
X906966Y562914D01*
X909114Y560766D01*
X911746Y559246D01*
X914681Y558460D01*
X914930D01*
Y568730D01*
D02*
G37*
G36*
X902340D02*
X892070D01*
Y558460D01*
X892319D01*
X895254Y559246D01*
X897886Y560766D01*
X900034Y562914D01*
X901553Y565546D01*
X902340Y568481D01*
Y568730D01*
D02*
G37*
G36*
X889530D02*
X879260D01*
Y568481D01*
X880046Y565546D01*
X881566Y562914D01*
X883714Y560766D01*
X886346Y559246D01*
X889281Y558460D01*
X889530D01*
Y568730D01*
D02*
G37*
G36*
X841519Y581540D02*
X838481D01*
X835546Y580754D01*
X832914Y579234D01*
X830766Y577086D01*
X829246Y574454D01*
X828460Y571519D01*
Y568481D01*
X829246Y565546D01*
X830766Y562914D01*
X832914Y560766D01*
X835546Y559246D01*
X838481Y558460D01*
X841519D01*
X844454Y559246D01*
X847086Y560766D01*
X849234Y562914D01*
X850753Y565546D01*
X851540Y568481D01*
Y571519D01*
X850753Y574454D01*
X849234Y577086D01*
X847086Y579234D01*
X844454Y580754D01*
X841519Y581540D01*
D02*
G37*
G36*
X816119D02*
X813081D01*
X810146Y580754D01*
X807514Y579234D01*
X805366Y577086D01*
X803846Y574454D01*
X803060Y571519D01*
Y568481D01*
X803846Y565546D01*
X805366Y562914D01*
X807514Y560766D01*
X810146Y559246D01*
X813081Y558460D01*
X816119D01*
X819054Y559246D01*
X821686Y560766D01*
X823834Y562914D01*
X825353Y565546D01*
X826140Y568481D01*
Y571519D01*
X825353Y574454D01*
X823834Y577086D01*
X821686Y579234D01*
X819054Y580754D01*
X816119Y581540D01*
D02*
G37*
G36*
X800740Y568730D02*
X790470D01*
Y558460D01*
X800740D01*
Y568730D01*
D02*
G37*
G36*
X787930D02*
X777660D01*
Y558460D01*
X787930D01*
Y568730D01*
D02*
G37*
G36*
X322168Y587540D02*
X317833D01*
X313551Y586862D01*
X309428Y585522D01*
X305566Y583554D01*
X302059Y581006D01*
X298994Y577941D01*
X296446Y574434D01*
X294478Y570572D01*
X293138Y566449D01*
X292460Y562168D01*
Y557832D01*
X293138Y553551D01*
X294478Y549428D01*
X296446Y545566D01*
X298994Y542059D01*
X302059Y538994D01*
X305566Y536446D01*
X309428Y534478D01*
X313551Y533138D01*
X317833Y532460D01*
X322168D01*
X326449Y533138D01*
X330572Y534478D01*
X334434Y536446D01*
X337941Y538994D01*
X341006Y542059D01*
X343554Y545566D01*
X345522Y549428D01*
X346862Y553551D01*
X347540Y557832D01*
Y562168D01*
X346862Y566449D01*
X345522Y570572D01*
X343554Y574434D01*
X341006Y577941D01*
X337941Y581006D01*
X334434Y583554D01*
X330572Y585522D01*
X326449Y586862D01*
X322168Y587540D01*
D02*
G37*
G36*
X406500Y994650D02*
X392500D01*
Y978650D01*
X406500D01*
Y994650D01*
D02*
G37*
G36*
X369500D02*
X355500D01*
Y978650D01*
X369500D01*
Y994650D01*
D02*
G37*
G36*
X497322Y974040D02*
X497270D01*
Y965270D01*
X506040D01*
Y965322D01*
X505356Y967875D01*
X504034Y970165D01*
X502165Y972034D01*
X499875Y973356D01*
X497322Y974040D01*
D02*
G37*
G36*
X494730D02*
X494678D01*
X492125Y973356D01*
X489835Y972034D01*
X487966Y970165D01*
X486644Y967875D01*
X485960Y965322D01*
Y965270D01*
X494730D01*
Y974040D01*
D02*
G37*
G36*
X506040Y962730D02*
X497270D01*
Y953960D01*
X497322D01*
X499875Y954644D01*
X502165Y955966D01*
X504034Y957835D01*
X505356Y960125D01*
X506040Y962678D01*
Y962730D01*
D02*
G37*
G36*
X494730D02*
X485960D01*
Y962678D01*
X486644Y960125D01*
X487966Y957835D01*
X489835Y955966D01*
X492125Y954644D01*
X494678Y953960D01*
X494730D01*
Y962730D01*
D02*
G37*
%LPD*%
D13*
X1498697Y1138540D02*
X1488540D01*
X1498697Y1148697D01*
Y1151236D01*
X1496158Y1153775D01*
X1491079D01*
X1488540Y1151236D01*
X1503775D02*
X1506314Y1153775D01*
X1511393D01*
X1513932Y1151236D01*
Y1141079D01*
X1511393Y1138540D01*
X1506314D01*
X1503775Y1141079D01*
Y1151236D01*
X1529167Y1138540D02*
X1519010D01*
X1529167Y1148697D01*
Y1151236D01*
X1526628Y1153775D01*
X1521549D01*
X1519010Y1151236D01*
X1541863Y1138540D02*
Y1153775D01*
X1534245Y1146158D01*
X1544402D01*
X1488540Y1203314D02*
X1498697D01*
X1493618D01*
Y1188079D01*
X1503775D02*
Y1203314D01*
X1511393D01*
X1513932Y1200775D01*
Y1195697D01*
X1511393Y1193158D01*
X1503775D01*
X1519010Y1203314D02*
X1524088D01*
X1521549D01*
Y1188079D01*
X1519010D01*
X1524088D01*
X1531706Y1185540D02*
X1541863D01*
X1546941Y1203314D02*
X1557098D01*
X1552020D01*
Y1188079D01*
X1562176Y1203314D02*
X1567254D01*
X1564715D01*
Y1188079D01*
X1562176D01*
X1567254D01*
X1574872D02*
Y1203314D01*
X1579950Y1198236D01*
X1585029Y1203314D01*
Y1188079D01*
X1600264Y1203314D02*
X1590107D01*
Y1188079D01*
X1600264D01*
X1590107Y1195697D02*
X1595186D01*
X1605342Y1185540D02*
X1615499D01*
X1620577Y1203314D02*
X1630734D01*
X1625656D01*
Y1188079D01*
X1635812Y1203314D02*
X1640891D01*
X1638351D01*
Y1188079D01*
X1635812D01*
X1640891D01*
X1648508D02*
Y1203314D01*
X1653587Y1198236D01*
X1658665Y1203314D01*
Y1188079D01*
X1673900Y1203314D02*
X1663743D01*
Y1188079D01*
X1673900D01*
X1663743Y1195697D02*
X1668822D01*
X1678978Y1188079D02*
Y1203314D01*
X1686596D01*
X1689135Y1200775D01*
Y1195697D01*
X1686596Y1193158D01*
X1678978D01*
X1684057D02*
X1689135Y1188079D01*
X1498697Y1175236D02*
X1496158Y1177775D01*
X1491079D01*
X1488540Y1175236D01*
Y1165079D01*
X1491079Y1162540D01*
X1496158D01*
X1498697Y1165079D01*
Y1170157D01*
X1493618D01*
X1506314Y1172697D02*
X1511393D01*
X1513932Y1170157D01*
Y1162540D01*
X1506314D01*
X1503775Y1165079D01*
X1506314Y1167618D01*
X1513932D01*
X1526628Y1162540D02*
X1521549D01*
X1519010Y1165079D01*
Y1170157D01*
X1521549Y1172697D01*
X1526628D01*
X1529167Y1170157D01*
Y1167618D01*
X1519010D01*
X1536784Y1175236D02*
Y1172697D01*
X1534245D01*
X1539324D01*
X1536784D01*
Y1165079D01*
X1539324Y1162540D01*
X1549480Y1172697D02*
X1554559D01*
X1557098Y1170157D01*
Y1162540D01*
X1549480D01*
X1546941Y1165079D01*
X1549480Y1167618D01*
X1557098D01*
X1562176Y1162540D02*
Y1172697D01*
X1569794D01*
X1572333Y1170157D01*
Y1162540D01*
X1592646D02*
Y1177775D01*
X1597725Y1172697D01*
X1602803Y1177775D01*
Y1162540D01*
X1607881D02*
X1612960D01*
X1610421D01*
Y1172697D01*
X1607881D01*
X1630734D02*
X1623116D01*
X1620577Y1170157D01*
Y1165079D01*
X1623116Y1162540D01*
X1630734D01*
X1635812Y1177775D02*
Y1162540D01*
Y1170157D01*
X1638351Y1172697D01*
X1643430D01*
X1645969Y1170157D01*
Y1162540D01*
X1658665D02*
X1653587D01*
X1651047Y1165079D01*
Y1170157D01*
X1653587Y1172697D01*
X1658665D01*
X1661204Y1170157D01*
Y1167618D01*
X1651047D01*
X1666283Y1162540D02*
X1671361D01*
X1668822D01*
Y1177775D01*
X1666283D01*
D14*
X626960Y916240D02*
D03*
X683960D02*
D03*
D15*
X635460Y961240D02*
D03*
Y993240D02*
D03*
X1212000Y1257000D02*
D03*
Y1225000D02*
D03*
X1293000Y1235000D02*
D03*
Y1203000D02*
D03*
X1197000Y1111000D02*
D03*
Y1079000D02*
D03*
X1052000Y1147000D02*
D03*
Y1115000D02*
D03*
X1005000Y935000D02*
D03*
Y967000D02*
D03*
X632210Y1184180D02*
D03*
Y1216180D02*
D03*
X656340Y1165130D02*
D03*
Y1197130D02*
D03*
X656240Y1140540D02*
D03*
Y1108540D02*
D03*
X683010Y1197130D02*
D03*
Y1165130D02*
D03*
D16*
X582500Y1164000D02*
D03*
Y1159000D02*
D03*
Y1154000D02*
D03*
Y1149000D02*
D03*
Y1144000D02*
D03*
X626500D02*
D03*
Y1149000D02*
D03*
Y1154000D02*
D03*
Y1159000D02*
D03*
Y1164000D02*
D03*
D17*
X663000Y962000D02*
D03*
X668000D02*
D03*
X673000D02*
D03*
X678000D02*
D03*
X683000D02*
D03*
Y1006000D02*
D03*
X678000D02*
D03*
X673000D02*
D03*
X668000D02*
D03*
X663000D02*
D03*
D18*
X769000Y1074000D02*
D03*
X801000D02*
D03*
X1068000Y1182000D02*
D03*
X1036000D02*
D03*
X632000Y1074000D02*
D03*
X664000D02*
D03*
X689460Y1044240D02*
D03*
X721460D02*
D03*
X666165Y1044340D02*
D03*
X634165D02*
D03*
X613820Y1020210D02*
D03*
X645820D02*
D03*
X1055000Y935000D02*
D03*
X1087000D02*
D03*
X605240Y1194540D02*
D03*
X573240D02*
D03*
D19*
X1282600Y869500D02*
D03*
X1269900D02*
D03*
X1257200D02*
D03*
X1244500D02*
D03*
X1231800D02*
D03*
X1219100D02*
D03*
X1206400D02*
D03*
X1193700D02*
D03*
X1181000D02*
D03*
X1168300D02*
D03*
X1155600D02*
D03*
X1142900D02*
D03*
X1130200D02*
D03*
X1117500D02*
D03*
Y694500D02*
D03*
X1130200D02*
D03*
X1142900D02*
D03*
X1155600D02*
D03*
X1168300D02*
D03*
X1181000D02*
D03*
X1193700D02*
D03*
X1206400D02*
D03*
X1219100D02*
D03*
X1231800D02*
D03*
X1244500D02*
D03*
X1257200D02*
D03*
X1269900D02*
D03*
X1282600D02*
D03*
D20*
X1105000Y839150D02*
D03*
Y826450D02*
D03*
Y813750D02*
D03*
Y801050D02*
D03*
Y788350D02*
D03*
Y775650D02*
D03*
Y762950D02*
D03*
Y750250D02*
D03*
Y737550D02*
D03*
Y724850D02*
D03*
D21*
X949000Y841000D02*
D03*
Y926000D02*
D03*
X566170Y1104250D02*
D03*
Y1019250D02*
D03*
D22*
X1252000Y1205000D02*
D03*
Y1235000D02*
D03*
X686240Y1109540D02*
D03*
Y1139540D02*
D03*
D23*
X1281500Y1146500D02*
D03*
Y1151500D02*
D03*
Y1156500D02*
D03*
Y1161500D02*
D03*
X1252500D02*
D03*
Y1156500D02*
D03*
Y1151500D02*
D03*
Y1146500D02*
D03*
D24*
X1274500Y1168500D02*
D03*
X1269500D02*
D03*
X1264500D02*
D03*
X1259500D02*
D03*
Y1139500D02*
D03*
X1264500D02*
D03*
X1269500D02*
D03*
X1274500D02*
D03*
D25*
X1267000Y1154000D02*
D03*
D26*
X899343Y1133971D02*
D03*
Y1173971D02*
D03*
D27*
X723000Y1074000D02*
D03*
X693000D02*
D03*
D28*
X1198500Y1040000D02*
D03*
X1179500D02*
D03*
X1189000Y1020000D02*
D03*
D29*
X805000Y1241500D02*
D03*
Y1258500D02*
D03*
X861000Y1241500D02*
D03*
Y1258500D02*
D03*
D30*
X810750Y954170D02*
D03*
X725750D02*
D03*
D31*
X984500Y1130500D02*
D03*
X1007500D02*
D03*
D32*
X996000Y1163500D02*
D03*
D33*
X981500Y1056000D02*
D03*
X898500D02*
D03*
D34*
X302250Y988400D02*
D03*
D35*
X362500Y986650D02*
D03*
X399500D02*
D03*
D36*
X409250Y1021650D02*
D03*
Y1081350D02*
D03*
D37*
X304500Y1101600D02*
D03*
D38*
X301000Y1089500D02*
D03*
D39*
Y1079000D02*
D03*
Y1068000D02*
D03*
Y1057000D02*
D03*
Y1046000D02*
D03*
Y1035000D02*
D03*
Y1024000D02*
D03*
Y1013000D02*
D03*
D40*
X528240Y1146040D02*
D03*
Y1203040D02*
D03*
D83*
X1282600Y673600D02*
Y694500D01*
X1281850Y870250D02*
Y891150D01*
X1282600Y694500D02*
X1284100Y693000D01*
X419000Y965407D02*
X472297Y1018703D01*
X441000Y1050000D02*
X472297Y1018703D01*
X610000Y881000D01*
X402000Y1050000D02*
X441000D01*
X373000Y1079000D02*
X402000Y1050000D01*
X301000Y1079000D02*
X373000D01*
X610000Y881000D02*
X1112571D01*
X415000Y1003000D02*
X418000Y1000000D01*
X392500Y1003000D02*
X415000D01*
X338500Y1057000D02*
X392500Y1003000D01*
X301000Y1057000D02*
X338500D01*
X1277000Y616000D02*
Y618706D01*
X1269900Y625806D02*
X1277000Y618706D01*
X1269900Y625806D02*
Y694500D01*
X1264000Y600000D02*
X1563071D01*
X1244460Y619540D02*
Y676633D01*
Y619540D02*
X1264000Y600000D01*
X1569087Y600087D02*
X1571000Y602000D01*
X1563158Y600087D02*
X1569087D01*
X1563071Y600000D02*
X1563158Y600087D01*
X1231800Y611200D02*
X1251000Y592000D01*
X1436000D01*
X1231800Y611200D02*
Y694500D01*
X1436000Y592000D02*
X1453000Y575000D01*
X1581000Y575000D01*
X1142900Y666900D02*
Y694500D01*
X1130000Y654000D02*
X1142900Y666900D01*
X1155300Y694200D02*
X1155600Y694500D01*
X1155300Y655300D02*
Y694200D01*
X1155000Y655000D02*
X1155300Y655300D01*
X1244500Y869500D02*
Y929500D01*
X1243000Y931000D02*
X1244500Y929500D01*
X962000Y973000D02*
X996250D01*
X1002250Y967000D01*
X1005000D01*
X953000Y922000D02*
X971000D01*
X984000Y935000D01*
X1007750D01*
X1042650Y969900D01*
X949000Y926000D02*
X953000Y922000D01*
X1042650Y969900D02*
X1070900D01*
X941600Y570000D02*
Y594600D01*
X951000Y604000D02*
X1162000D01*
X941600Y594600D02*
X951000Y604000D01*
X1181000Y623000D02*
Y694500D01*
X1162000Y604000D02*
X1181000Y623000D01*
X1115500Y871500D02*
X1117500Y869500D01*
X1115500Y871500D02*
Y878071D01*
X1112571Y881000D02*
X1115500Y878071D01*
X600000Y872000D02*
X1026000D01*
X528000Y944000D02*
X600000Y872000D01*
X1026000D02*
X1071550Y826450D01*
X1105000D01*
X626500Y1133501D02*
X633731Y1126270D01*
Y1109491D02*
Y1126270D01*
X1117500Y694500D02*
Y707500D01*
X1147000Y737000D01*
X1508000D01*
X707000Y1032929D02*
Y1092030D01*
X704071Y1030000D02*
X707000Y1032929D01*
X689149Y1030000D02*
X704071D01*
X723000Y1074000D02*
X769000D01*
X769000Y1074000D01*
X1633000Y572000D02*
Y691982D01*
X1185000Y539000D02*
X1600000D01*
X1633000Y572000D01*
X1619491Y705491D02*
X1633000Y691982D01*
X1619491Y705491D02*
Y939509D01*
X1205400Y811000D02*
X1219400D01*
Y797000D02*
Y811000D01*
X1191400Y797000D02*
Y811000D01*
Y783000D02*
Y797000D01*
Y783000D02*
X1205400D01*
X1219400D01*
Y797000D01*
X1205400D02*
Y811000D01*
X1269000D02*
X1282600Y824600D01*
X1219400Y811000D02*
X1269000D01*
X1282600Y824600D02*
Y869500D01*
X1105000Y839150D02*
X1163250D01*
X1191400Y811000D01*
X355000Y944000D02*
X461000D01*
X528000D01*
X461000D02*
X461000Y944000D01*
X1087000Y935000D02*
Y937750D01*
X1094000Y944750D02*
Y987000D01*
X1087000Y937750D02*
X1094000Y944750D01*
X1070900Y995300D02*
X1071101Y995100D01*
X1085900D01*
X1094000Y987000D01*
X1096000Y644000D02*
X1130200Y678200D01*
X865400Y613400D02*
X896000Y644000D01*
X1096000D01*
X1052000Y1194479D02*
X1057434Y1199913D01*
X1198087D02*
X1236500Y1161500D01*
X1057434Y1199913D02*
X1198087D01*
X1052000Y1147000D02*
Y1194479D01*
X630000Y650000D02*
X739000Y759000D01*
X913000D01*
X949000Y795000D02*
Y841000D01*
X913000Y759000D02*
X949000Y795000D01*
X1130200Y678200D02*
Y694500D01*
X865400Y570000D02*
Y613400D01*
X1170200Y553800D02*
Y570000D01*
Y553800D02*
X1185000Y539000D01*
X1193700Y694500D02*
X1194650Y693550D01*
Y570950D02*
Y693550D01*
Y570950D02*
X1195600Y570000D01*
X1276100Y921394D02*
Y924100D01*
X1269900Y915194D02*
X1276100Y921394D01*
X1269900Y869500D02*
Y915194D01*
X1244460Y676633D02*
X1244500Y676673D01*
Y694500D01*
X1218550Y693950D02*
X1219100Y694500D01*
X1218550Y669550D02*
Y693950D01*
X1218000Y669000D02*
X1218550Y669550D01*
X1257100Y694400D02*
X1257200Y694500D01*
X1257100Y669100D02*
Y694400D01*
X1257000Y669000D02*
X1257100Y669100D01*
X1130200Y867499D02*
Y869500D01*
Y891800D01*
X1110000Y912000D02*
X1130200Y891800D01*
X328000Y961101D02*
X396101Y893000D01*
X551000D01*
X1253000Y1204000D02*
X1276000D01*
X1292000D01*
X1248750Y1205000D02*
X1252000D01*
X1237250Y1216500D02*
X1248750Y1205000D01*
X1237250Y1216500D02*
Y1216750D01*
X1229000Y1225000D02*
X1237250Y1216750D01*
X1212000Y1225000D02*
X1229000D01*
X1292000Y1204000D02*
X1293000Y1203000D01*
X1252000Y1205000D02*
X1253000Y1204000D01*
X1293000Y1203000D02*
X1313000D01*
X1323087Y1162913D02*
Y1192913D01*
X1313000Y1203000D02*
X1323087Y1192913D01*
Y1162913D02*
X1325000Y1161000D01*
X805000Y1258500D02*
X820801D01*
X824341Y1254960D01*
X839150D01*
X842690Y1258500D01*
X861000D01*
X1219277Y869677D02*
Y890277D01*
X1228000Y899000D01*
X1206400Y869500D02*
Y900400D01*
X1198500Y1058750D02*
Y1077500D01*
Y1040000D02*
Y1058750D01*
X1216250D02*
X1234000Y1041000D01*
X1198500Y1058750D02*
X1216250D01*
X1234000Y989000D02*
Y1041000D01*
X1155600Y869500D02*
Y910600D01*
X1234000Y989000D01*
X861000Y1258500D02*
X1300500D01*
X316000Y1024000D02*
X328000Y1012000D01*
Y961101D02*
Y1012000D01*
X301000Y1024000D02*
X316000D01*
X1142900Y869500D02*
Y906148D01*
X1140754Y908294D02*
X1142900Y906148D01*
X1140754Y908294D02*
Y911000D01*
X1353000Y1206000D02*
X1619491Y939509D01*
X1257600Y869500D02*
Y937600D01*
X1353000Y1033000D02*
Y1206000D01*
X1257600Y937600D02*
X1353000Y1033000D01*
X1300500Y1258500D02*
X1353000Y1206000D01*
X1145000Y968000D02*
X1189050Y1012050D01*
Y1019950D01*
X1197000Y1079000D02*
X1198500Y1077500D01*
X1147100Y969900D02*
X1147150Y969950D01*
X1189000Y1020000D02*
X1189050Y1019950D01*
X1097000Y1043000D02*
Y1108000D01*
X1144700Y995300D02*
X1147100D01*
X1097000Y1043000D02*
X1144700Y995300D01*
X1075000Y1130000D02*
X1097000Y1108000D01*
X1032000Y1130000D02*
X1075000D01*
X998500Y1163500D02*
X1032000Y1130000D01*
X996000Y1163500D02*
X998500D01*
X1007500Y1130500D02*
X1008500D01*
X1024000Y1115000D01*
X1052000D01*
X1036000Y1182000D02*
X1036000Y1182000D01*
X905843Y1182000D02*
X1036000D01*
X1068000Y1182000D02*
X1147100Y1102900D01*
X899343Y1175500D02*
X905843Y1182000D01*
X899343Y1173971D02*
Y1175500D01*
Y1133971D02*
X942029D01*
X995269Y1021731D02*
X1021700Y995300D01*
X721000Y1021731D02*
X995269D01*
X1021700Y995300D02*
X1070900D01*
X690760Y1021240D02*
X720509D01*
Y1021731D02*
X721000D01*
X686240Y1109540D02*
X689490D01*
X707000Y1092030D01*
X1026299Y1020700D02*
X1070900D01*
X991000Y1056000D02*
X1026299Y1020700D01*
X981500Y1056000D02*
X991000D01*
X1037994Y1079007D02*
X1070900Y1046100D01*
X996993Y1079007D02*
X1037994D01*
X942029Y1133971D02*
X996993Y1079007D01*
X1147100Y1046100D02*
Y1102900D01*
X899343Y1173971D02*
X900343Y1174971D01*
X664870Y1044340D02*
Y1071010D01*
Y1044340D02*
X667460D01*
X619340D02*
X634165D01*
X613820Y1038820D02*
X619340Y1044340D01*
X613820Y1020210D02*
Y1038820D01*
X689360Y1044340D02*
X689460Y1044240D01*
X667460Y1044340D02*
X689360D01*
X707491Y1074240D02*
X720460D01*
X721460Y1044240D02*
X721500Y1044200D01*
X685039Y1015519D02*
X690760Y1021240D01*
X289000Y1049929D02*
Y1117000D01*
X432764Y1104250D02*
X566170D01*
X417085Y1119929D02*
X432764Y1104250D01*
X291929Y1119929D02*
X417085D01*
X289000Y1117000D02*
X291929Y1119929D01*
Y1047000D02*
X300000D01*
X289000Y1049929D02*
X291929Y1047000D01*
X300000D02*
X301000Y1046000D01*
Y1035000D02*
X302000Y1034000D01*
X319000D01*
X337000Y962000D02*
Y1016000D01*
X319000Y1034000D02*
X337000Y1016000D01*
Y962000D02*
X355000Y944000D01*
X656200Y1108500D02*
X656240Y1108540D01*
X686240Y1122509D02*
X715509D01*
X716000Y1123000D01*
X656340Y1165130D02*
X683010D01*
X656340Y1140640D02*
Y1162540D01*
Y1165130D01*
X632210Y1216180D02*
X649210D01*
X656340Y1209050D01*
Y1197130D02*
Y1209050D01*
X656240Y1140540D02*
X656340Y1140640D01*
D84*
X1281500Y1151500D02*
X1282000D01*
X1270000D02*
X1281500D01*
X1252500D02*
X1264000D01*
X1252000D02*
X1252500D01*
X1269500Y1139500D02*
Y1151000D01*
Y1139000D02*
Y1139500D01*
X626960Y916240D02*
X633720Y923000D01*
X647000D01*
X673000Y949000D01*
Y962000D01*
X678000Y922200D02*
X683960Y916240D01*
X678000Y922200D02*
Y962000D01*
X635460Y950997D02*
Y961240D01*
Y950997D02*
X637217Y949240D01*
X660740D02*
X663000Y951500D01*
X637217Y949240D02*
X660740D01*
X663000Y951500D02*
Y962000D01*
X528240Y1146040D02*
X531201Y1149000D01*
X582500D01*
X571780Y1154000D02*
X582500D01*
X539733Y1186047D02*
X571780Y1154000D01*
X571000Y1192300D02*
X573240Y1194540D01*
X572757Y1164000D02*
X582500D01*
X571000Y1165758D02*
Y1192300D01*
Y1165758D02*
X572757Y1164000D01*
X636000Y1154000D02*
X639731Y1150269D01*
Y1146269D02*
Y1150269D01*
X626500Y1154000D02*
X636000D01*
X637000Y1149000D02*
X639731Y1146269D01*
X626500Y1149000D02*
X637000D01*
X635242Y1164000D02*
X637000Y1165758D01*
X632210Y1184180D02*
X637000Y1179390D01*
X626500Y1164000D02*
X635242D01*
X637000Y1165758D02*
Y1179390D01*
X644097Y1162097D02*
X653307D01*
X641000Y1159000D02*
X644097Y1162097D01*
X626500Y1159000D02*
X641000D01*
X653307Y1162097D02*
X656340Y1165130D01*
X626500Y1133501D02*
Y1144000D01*
X639731Y1129049D02*
Y1146269D01*
X645780Y1123000D02*
X686240D01*
X639731Y1129049D02*
X645780Y1123000D01*
X678000Y1018851D02*
X689149Y1030000D01*
X1276000Y1180000D02*
Y1204000D01*
X1264500Y1180000D02*
X1276000D01*
X1290000D01*
X1259500Y1175000D02*
X1264500Y1180000D01*
X1290000D02*
X1293000Y1177000D01*
Y1165000D02*
Y1177000D01*
X1281500Y1161500D02*
X1289500D01*
X1281000D02*
X1281500D01*
X1259500Y1168500D02*
Y1175000D01*
Y1168000D02*
Y1168500D01*
X1264500D02*
Y1180000D01*
Y1168000D02*
Y1168500D01*
X1289500Y1161500D02*
X1293000Y1165000D01*
X1192000Y871200D02*
X1193700Y869500D01*
X1192000Y907000D02*
X1300000Y1015000D01*
X1192000Y871200D02*
Y907000D01*
X1300000Y1015000D02*
Y1140000D01*
X1181400Y869500D02*
Y910400D01*
X1274500Y1003500D01*
X1168700Y869500D02*
Y910700D01*
X1264500Y1006500D01*
X1293500Y1146500D02*
X1300000Y1140000D01*
X1274500Y1139500D02*
Y1140001D01*
Y1003500D02*
Y1139500D01*
X1281500Y1146500D02*
X1293500D01*
X1264500Y1006500D02*
Y1139500D01*
X1236500Y1161500D02*
X1252500D01*
X645820Y1020210D02*
X661430D01*
X663000Y1018640D01*
Y1006000D02*
Y1018640D01*
X668000Y1006000D02*
Y1043800D01*
X667460Y1044340D02*
X668000Y1043800D01*
X678000Y1006000D02*
Y1018640D01*
Y1018851D01*
X673000Y1006000D02*
Y1013640D01*
X678000Y1018640D01*
X683000Y1006000D02*
Y1013480D01*
X685039Y1015519D01*
X686240Y1109540D02*
Y1122509D01*
X528240Y1146040D02*
X534200Y1152000D01*
X539733Y1186047D02*
Y1191547D01*
X528240Y1203040D02*
X539733Y1191547D01*
X655800Y1162000D02*
X656340Y1162540D01*
D85*
X570920Y1109000D02*
X655700D01*
X721000Y1021731D02*
Y1043700D01*
Y958920D02*
Y1021731D01*
Y1043700D02*
X721500Y1044200D01*
X721000Y958920D02*
X725750Y954170D01*
X566170Y1104250D02*
X570920Y1109000D01*
X655700D02*
X656200Y1108500D01*
D86*
X1219400Y783000D02*
D03*
Y797000D02*
D03*
X1205400D02*
D03*
Y783000D02*
D03*
X1191400D02*
D03*
Y797000D02*
D03*
Y811000D02*
D03*
X1205400D02*
D03*
X1219400D02*
D03*
D87*
X860400Y973000D02*
D03*
X962000D02*
D03*
D88*
X1740000Y674000D02*
D03*
X320000Y560000D02*
D03*
X1740000Y1230000D02*
D03*
X310000Y1240000D02*
D03*
X462400D02*
D03*
D89*
X803000Y702000D02*
D03*
X793000Y821000D02*
D03*
X844000D02*
D03*
X834000Y702000D02*
D03*
D90*
X789200Y570000D02*
D03*
D91*
X814600D02*
D03*
X840000D02*
D03*
X865400D02*
D03*
X890800D02*
D03*
X916200D02*
D03*
X941600D02*
D03*
X967000D02*
D03*
X992400D02*
D03*
X1017800D02*
D03*
X1043200D02*
D03*
X1068600D02*
D03*
X1094000D02*
D03*
X1119400D02*
D03*
X1144800D02*
D03*
X1170200D02*
D03*
X1195600D02*
D03*
X1221000D02*
D03*
X1246400D02*
D03*
X1271800D02*
D03*
X569600Y1244000D02*
D03*
X595000D02*
D03*
X620400D02*
D03*
X544200D02*
D03*
X475100Y1151100D02*
D03*
X449700D02*
D03*
X424300D02*
D03*
X398900D02*
D03*
X373500D02*
D03*
X348100D02*
D03*
X322700D02*
D03*
X297300D02*
D03*
D92*
X833000Y1236250D02*
D03*
Y1263750D02*
D03*
D93*
X1002000Y1218600D02*
D03*
Y1244000D02*
D03*
D94*
X917000Y1232000D02*
D03*
X717000D02*
D03*
X583000Y629000D02*
D03*
D95*
X942000Y1232000D02*
D03*
X742000D02*
D03*
X558000Y629000D02*
D03*
D96*
X1070900Y969900D02*
D03*
Y995300D02*
D03*
Y1020700D02*
D03*
Y1046100D02*
D03*
X1147100Y969900D02*
D03*
Y995300D02*
D03*
Y1020700D02*
D03*
X1512000Y916000D02*
D03*
Y891000D02*
D03*
Y866000D02*
D03*
Y841000D02*
D03*
Y816000D02*
D03*
X1661000Y974000D02*
D03*
X1410000Y979000D02*
D03*
X496000Y964000D02*
D03*
X418000Y1000000D02*
D03*
X1277000Y616000D02*
D03*
X1571000Y602000D02*
D03*
X1130000Y654000D02*
D03*
X1155000Y655000D02*
D03*
X1243000Y931000D02*
D03*
X1581000Y575000D02*
D03*
X461000Y944000D02*
D03*
X797000Y1218000D02*
D03*
X630000Y650000D02*
D03*
X1276100Y924100D02*
D03*
X1508100Y737100D02*
D03*
X1218000Y669000D02*
D03*
X1257000D02*
D03*
X1110000Y912000D02*
D03*
X551000Y893000D02*
D03*
X1325000Y1161000D02*
D03*
X1228000Y899000D02*
D03*
X1206771Y899541D02*
D03*
X1140754Y911000D02*
D03*
X1619491Y705491D02*
D03*
X419000Y965407D02*
D03*
X633731Y1109491D02*
D03*
X716000Y1123000D02*
D03*
D97*
X1147100Y1046100D02*
D03*
D98*
X642000Y762600D02*
D03*
Y788000D02*
D03*
X373000Y775300D02*
D03*
D99*
X758000Y1252000D02*
D03*
M02*
