G04*
G04 #@! TF.GenerationSoftware,Altium Limited,Altium Designer,23.5.1 (21)*
G04*
G04 Layer_Physical_Order=2*
G04 Layer_Color=16711680*
%FSLAX44Y44*%
%MOMM*%
G71*
G04*
G04 #@! TF.SameCoordinates,FC4C4C8E-A767-40D1-8FD6-770ACC15EC19*
G04*
G04*
G04 #@! TF.FilePolarity,Positive*
G04*
G01*
G75*
%ADD15R,1.9000X1.3500*%
%ADD18R,1.3500X1.9000*%
%ADD22R,1.8000X1.1500*%
%ADD23R,0.8500X0.3000*%
%ADD28R,0.6000X0.7000*%
%ADD83C,0.5000*%
%ADD84C,0.3000*%
%ADD85C,0.7500*%
%ADD86R,0.9000X0.9000*%
%ADD87C,2.0000*%
%ADD88C,5.0000*%
%ADD89C,1.9500*%
%ADD90R,1.8000X1.8000*%
%ADD91C,1.8000*%
%ADD92C,0.3750*%
%ADD93C,1.1000*%
%ADD94R,1.5750X1.5750*%
%ADD95C,1.5750*%
%ADD96C,1.5000*%
%ADD97R,1.5000X1.5000*%
%ADD98C,1.4000*%
%ADD99C,0.6500*%
%ADD100R,2.2000X2.1500*%
%ADD101R,1.7000X2.4500*%
%ADD102R,1.1000X0.6500*%
%ADD103R,1.0500X0.4000*%
G04:AMPARAMS|DCode=104|XSize=0.7mm|YSize=0.6mm|CornerRadius=0mm|HoleSize=0mm|Usage=FLASHONLY|Rotation=45.000|XOffset=0mm|YOffset=0mm|HoleType=Round|Shape=Rectangle|*
%AMROTATEDRECTD104*
4,1,4,-0.0354,-0.4596,-0.4596,-0.0354,0.0354,0.4596,0.4596,0.0354,-0.0354,-0.4596,0.0*
%
%ADD104ROTATEDRECTD104*%

%ADD105R,1.8000X1.0000*%
G04:AMPARAMS|DCode=106|XSize=1.35mm|YSize=1.9mm|CornerRadius=0mm|HoleSize=0mm|Usage=FLASHONLY|Rotation=315.000|XOffset=0mm|YOffset=0mm|HoleType=Round|Shape=Rectangle|*
%AMROTATEDRECTD106*
4,1,4,-1.1490,-0.1945,0.1945,1.1490,1.1490,0.1945,-0.1945,-1.1490,-1.1490,-0.1945,0.0*
%
%ADD106ROTATEDRECTD106*%

G04:AMPARAMS|DCode=107|XSize=1.1mm|YSize=0.65mm|CornerRadius=0mm|HoleSize=0mm|Usage=FLASHONLY|Rotation=135.000|XOffset=0mm|YOffset=0mm|HoleType=Round|Shape=Rectangle|*
%AMROTATEDRECTD107*
4,1,4,0.6187,-0.1591,0.1591,-0.6187,-0.6187,0.1591,-0.1591,0.6187,0.6187,-0.1591,0.0*
%
%ADD107ROTATEDRECTD107*%

%ADD108R,1.4700X1.0200*%
%ADD109R,1.0200X1.4700*%
%ADD110R,1.5250X0.6500*%
%ADD111R,4.2000X2.3000*%
%ADD112R,1.4750X0.4500*%
%ADD113R,2.8000X2.8000*%
%ADD114R,0.8000X0.3000*%
%ADD115R,0.3000X0.8000*%
%ADD116C,0.4000*%
G36*
X1780000Y520000D02*
X280000D01*
Y1270000D01*
X828586D01*
X829085Y1268730D01*
X827668Y1267313D01*
X826710Y1265001D01*
Y1262499D01*
X827668Y1260187D01*
X829437Y1258418D01*
X831161Y1257704D01*
X831540Y1256287D01*
X824173Y1248920D01*
X823000Y1249406D01*
Y1259750D01*
X797000D01*
Y1251588D01*
X780705D01*
X778949Y1251239D01*
X777460Y1250244D01*
X763804Y1236588D01*
X751377D01*
X750334Y1238395D01*
X748395Y1240334D01*
X746020Y1241705D01*
X743371Y1242415D01*
X740629D01*
X737980Y1241705D01*
X735605Y1240334D01*
X733666Y1238395D01*
X732295Y1236020D01*
X731585Y1233371D01*
Y1230629D01*
X732295Y1227980D01*
X733666Y1225605D01*
X735605Y1223666D01*
X737412Y1222623D01*
Y1215650D01*
X731511Y1209750D01*
X712000D01*
Y1184250D01*
X711004Y1183588D01*
X707900D01*
X704588Y1186900D01*
Y1213100D01*
X713074Y1221585D01*
X727415D01*
Y1242415D01*
X706585D01*
Y1228074D01*
X696756Y1218245D01*
X695761Y1216756D01*
X695412Y1215000D01*
Y1185000D01*
X695761Y1183244D01*
X696756Y1181756D01*
X702451Y1176060D01*
X702021Y1174790D01*
X700270D01*
Y1160000D01*
Y1145210D01*
X710040D01*
Y1146500D01*
X713657D01*
X714000Y1146432D01*
X752521D01*
X753167Y1146560D01*
X753886Y1146703D01*
X753886Y1146703D01*
X753886Y1146703D01*
X754424Y1147062D01*
X755044Y1147477D01*
X756952Y1149384D01*
X770493D01*
X771500Y1148749D01*
X771500Y1148114D01*
Y1144588D01*
X733000D01*
X731244Y1144239D01*
X729755Y1143244D01*
X719080Y1132569D01*
X717322Y1133040D01*
X714678D01*
X712125Y1132356D01*
X709835Y1131034D01*
X707966Y1129165D01*
X706644Y1126875D01*
X705960Y1124322D01*
Y1121678D01*
X706644Y1119125D01*
X707966Y1116835D01*
X709835Y1114966D01*
X712125Y1113644D01*
X714678Y1112960D01*
X717322D01*
X719875Y1113644D01*
X722165Y1114966D01*
X724034Y1116835D01*
X725356Y1119125D01*
X726040Y1121678D01*
Y1124322D01*
X725569Y1126080D01*
X734900Y1135411D01*
X771500D01*
Y1131250D01*
X773960D01*
Y1124270D01*
X786000D01*
X798040D01*
Y1132290D01*
X794500D01*
Y1148114D01*
X794500Y1148749D01*
X795507Y1149384D01*
X802972D01*
X804728Y1149733D01*
X806217Y1150728D01*
X822532Y1167043D01*
X827264Y1162311D01*
X813477Y1148523D01*
X812703Y1147366D01*
X812431Y1146000D01*
Y1133142D01*
X812703Y1131776D01*
X813477Y1130619D01*
X825012Y1119083D01*
X823646Y1117717D01*
X830717Y1110646D01*
X838496Y1118424D01*
X831424Y1125495D01*
X830059Y1124130D01*
X819569Y1134620D01*
Y1144522D01*
X838478Y1163431D01*
X840292D01*
X840833Y1162177D01*
Y1162177D01*
X851440Y1151570D01*
X858865Y1158995D01*
X856806Y1161054D01*
X860244Y1164492D01*
X866323Y1158414D01*
X866369Y1158367D01*
X867336Y1157636D01*
X867385Y1157588D01*
X872961Y1152012D01*
X881475Y1160526D01*
X889988Y1169039D01*
X884317Y1174710D01*
X883666Y1174058D01*
X882633Y1174631D01*
X882537Y1174726D01*
X870258Y1187005D01*
X858203Y1174950D01*
X856760Y1173986D01*
X850317Y1167542D01*
X848258Y1169601D01*
X847069Y1168412D01*
X845958Y1169523D01*
X844800Y1170297D01*
X843435Y1170569D01*
X837000D01*
X835634Y1170297D01*
X834731Y1169693D01*
X829956Y1174468D01*
X840113Y1184624D01*
X843742Y1180995D01*
X860005Y1197258D01*
X856376Y1200887D01*
X857244Y1201756D01*
X858239Y1203244D01*
X858588Y1205000D01*
Y1234250D01*
X867000D01*
Y1242412D01*
X900100D01*
X906585Y1235926D01*
Y1221585D01*
X927415D01*
Y1242415D01*
X913074D01*
X905245Y1250244D01*
X903756Y1251239D01*
X902000Y1251588D01*
X867000D01*
Y1259750D01*
X867988Y1260431D01*
X955122D01*
X994369Y1221184D01*
X993960Y1219659D01*
Y1217542D01*
X994508Y1215497D01*
X995566Y1213663D01*
X997063Y1212167D01*
X998897Y1211108D01*
X1000941Y1210560D01*
X1003058D01*
X1005103Y1211108D01*
X1006937Y1212167D01*
X1008434Y1213663D01*
X1009492Y1215497D01*
X1010040Y1217542D01*
Y1219659D01*
X1009492Y1221703D01*
X1008434Y1223537D01*
X1006937Y1225034D01*
X1005103Y1226092D01*
X1003058Y1226640D01*
X1000941D01*
X999416Y1226231D01*
X959123Y1266523D01*
X957966Y1267297D01*
X956600Y1267569D01*
X844300D01*
X842935Y1267297D01*
X841777Y1266523D01*
X840463Y1265210D01*
X839047Y1265589D01*
X838333Y1267313D01*
X836916Y1268730D01*
X837414Y1270000D01*
X1780000D01*
Y520000D01*
D02*
G37*
G36*
X797000Y1234250D02*
X821431D01*
Y1187478D01*
X797522Y1163569D01*
X794500D01*
Y1180750D01*
X787588D01*
Y1184071D01*
X787239Y1185827D01*
X786244Y1187315D01*
X783315Y1190244D01*
X781827Y1191239D01*
X780071Y1191588D01*
X746000D01*
X744244Y1191239D01*
X742756Y1190244D01*
X739173Y1186662D01*
X738000Y1187148D01*
Y1203261D01*
X741787Y1207048D01*
X742960Y1206562D01*
Y1204270D01*
X753730D01*
Y1212290D01*
X747299D01*
X746493Y1213272D01*
X746588Y1213750D01*
Y1222623D01*
X748395Y1223666D01*
X750334Y1225605D01*
X751377Y1227412D01*
X765704D01*
X767460Y1227761D01*
X768949Y1228756D01*
X782605Y1242412D01*
X797000D01*
Y1234250D01*
D02*
G37*
%LPC*%
G36*
X1003270Y1251983D02*
Y1245270D01*
X1009983D01*
X1009492Y1247103D01*
X1008434Y1248937D01*
X1006937Y1250434D01*
X1005103Y1251492D01*
X1003270Y1251983D01*
D02*
G37*
G36*
X1000730D02*
X998897Y1251492D01*
X997063Y1250434D01*
X995566Y1248937D01*
X994508Y1247103D01*
X994017Y1245270D01*
X1000730D01*
Y1251983D01*
D02*
G37*
G36*
X759190Y1261040D02*
X756810D01*
X754511Y1260424D01*
X752449Y1259234D01*
X750766Y1257551D01*
X749576Y1255489D01*
X748960Y1253190D01*
Y1250810D01*
X749576Y1248511D01*
X750766Y1246449D01*
X752449Y1244766D01*
X754511Y1243576D01*
X756810Y1242960D01*
X759190D01*
X761489Y1243576D01*
X763551Y1244766D01*
X765234Y1246449D01*
X766424Y1248511D01*
X767040Y1250810D01*
Y1253190D01*
X766424Y1255489D01*
X765234Y1257551D01*
X763551Y1259234D01*
X761489Y1260424D01*
X759190Y1261040D01*
D02*
G37*
G36*
X1009983Y1242730D02*
X1003270D01*
Y1236017D01*
X1005103Y1236508D01*
X1006937Y1237567D01*
X1008434Y1239063D01*
X1009492Y1240897D01*
X1009983Y1242730D01*
D02*
G37*
G36*
X1000730D02*
X994017D01*
X994508Y1240897D01*
X995566Y1239063D01*
X997063Y1237567D01*
X998897Y1236508D01*
X1000730Y1236017D01*
Y1242730D01*
D02*
G37*
G36*
X943371Y1242415D02*
X943270D01*
Y1233270D01*
X952415D01*
Y1233371D01*
X951705Y1236020D01*
X950334Y1238395D01*
X948395Y1240334D01*
X946020Y1241705D01*
X943371Y1242415D01*
D02*
G37*
G36*
X940730D02*
X940629D01*
X937980Y1241705D01*
X935605Y1240334D01*
X933666Y1238395D01*
X932295Y1236020D01*
X931585Y1233371D01*
Y1233270D01*
X940730D01*
Y1242415D01*
D02*
G37*
G36*
X642000Y1267588D02*
X529000D01*
X527244Y1267239D01*
X525756Y1266244D01*
X489411Y1229899D01*
X488297Y1230582D01*
X489262Y1233551D01*
X489940Y1237833D01*
Y1242168D01*
X489262Y1246449D01*
X487922Y1250572D01*
X485954Y1254434D01*
X483406Y1257941D01*
X480341Y1261006D01*
X476834Y1263554D01*
X472972Y1265522D01*
X468849Y1266862D01*
X464567Y1267540D01*
X460232D01*
X455951Y1266862D01*
X451828Y1265522D01*
X447966Y1263554D01*
X444459Y1261006D01*
X441394Y1257941D01*
X438846Y1254434D01*
X436878Y1250572D01*
X435538Y1246449D01*
X434860Y1242168D01*
Y1237833D01*
X435538Y1233551D01*
X436878Y1229428D01*
X438846Y1225566D01*
X441394Y1222059D01*
X444459Y1218994D01*
X447966Y1216446D01*
X451828Y1214478D01*
X455951Y1213138D01*
X460232Y1212460D01*
X464567D01*
X468849Y1213138D01*
X471818Y1214103D01*
X472501Y1212989D01*
X446456Y1186944D01*
X445461Y1185456D01*
X445112Y1183700D01*
Y1161776D01*
X442614Y1160334D01*
X440466Y1158186D01*
X438946Y1155554D01*
X438160Y1152619D01*
Y1149581D01*
X438946Y1146646D01*
X440466Y1144014D01*
X442614Y1141866D01*
X445246Y1140347D01*
X448181Y1139560D01*
X451219D01*
X454154Y1140347D01*
X456786Y1141866D01*
X458934Y1144014D01*
X460453Y1146646D01*
X461240Y1149581D01*
Y1152619D01*
X460453Y1155554D01*
X458934Y1158186D01*
X456786Y1160334D01*
X454288Y1161776D01*
Y1181799D01*
X487500Y1215012D01*
X551756Y1150756D01*
X570652Y1131860D01*
Y1122750D01*
X563740D01*
Y1118588D01*
X555990D01*
Y1124500D01*
X538490D01*
Y1101500D01*
X555990D01*
Y1109412D01*
X563740D01*
Y1105250D01*
X586740D01*
Y1122750D01*
X579828D01*
Y1133760D01*
X579479Y1135516D01*
X578484Y1137004D01*
X578484Y1137004D01*
X567250Y1148239D01*
X567736Y1149412D01*
X652099D01*
X684491Y1117020D01*
X683965Y1115750D01*
X682429D01*
Y1098250D01*
X705429D01*
Y1115750D01*
X694267D01*
Y1118321D01*
X693918Y1120077D01*
X692923Y1121565D01*
X666250Y1148239D01*
X666736Y1149412D01*
X669541D01*
X671476Y1147477D01*
X672634Y1146703D01*
X674000Y1146432D01*
X683000D01*
X683343Y1146500D01*
X687960D01*
Y1145210D01*
X697730D01*
Y1160000D01*
Y1174790D01*
X687960D01*
Y1174040D01*
X685270D01*
Y1170000D01*
X684000D01*
Y1168730D01*
X677210D01*
Y1168568D01*
X588478D01*
X573169Y1183878D01*
Y1233009D01*
X574054Y1233247D01*
X576686Y1234766D01*
X578834Y1236914D01*
X580354Y1239546D01*
X581140Y1242481D01*
Y1245519D01*
X580354Y1248454D01*
X578834Y1251086D01*
X576686Y1253234D01*
X574054Y1254754D01*
X571119Y1255540D01*
X568081D01*
X565146Y1254754D01*
X562514Y1253234D01*
X560366Y1251086D01*
X558847Y1248454D01*
X558060Y1245519D01*
Y1242481D01*
X558847Y1239546D01*
X560366Y1236914D01*
X562514Y1234766D01*
X565146Y1233247D01*
X566031Y1233009D01*
Y1182400D01*
X566303Y1181034D01*
X567077Y1179877D01*
X582211Y1164742D01*
X581725Y1163569D01*
X563478D01*
X547569Y1179478D01*
Y1232955D01*
X548654Y1233247D01*
X551286Y1234766D01*
X553434Y1236914D01*
X554954Y1239546D01*
X555740Y1242481D01*
Y1245519D01*
X554954Y1248454D01*
X553434Y1251086D01*
X551286Y1253234D01*
X548654Y1254754D01*
X545719Y1255540D01*
X542681D01*
X539746Y1254754D01*
X537114Y1253234D01*
X534966Y1251086D01*
X533447Y1248454D01*
X532660Y1245519D01*
Y1242481D01*
X533447Y1239546D01*
X534966Y1236914D01*
X537114Y1234766D01*
X539746Y1233247D01*
X540431Y1233063D01*
Y1178000D01*
X540703Y1176635D01*
X540809Y1176476D01*
X539822Y1175667D01*
X494624Y1220865D01*
Y1222135D01*
X530901Y1258412D01*
X640100D01*
X647412Y1251100D01*
Y1224500D01*
X643250D01*
Y1201500D01*
X647412D01*
Y1199500D01*
X643250D01*
Y1176500D01*
X660750D01*
Y1188233D01*
X663321D01*
X665077Y1188582D01*
X666566Y1189577D01*
X666730Y1189741D01*
X668000Y1189215D01*
Y1184250D01*
X694000D01*
Y1209750D01*
X668000D01*
Y1199517D01*
X665429D01*
X663673Y1199168D01*
X662185Y1198173D01*
X662020Y1198009D01*
X660750Y1198535D01*
Y1199500D01*
X656588D01*
Y1201500D01*
X660750D01*
Y1224500D01*
X656588D01*
Y1253000D01*
X656239Y1254756D01*
X656239Y1254756D01*
X656239Y1254756D01*
X655245Y1256245D01*
X645245Y1266244D01*
X643756Y1267239D01*
X642000Y1267588D01*
D02*
G37*
G36*
X952415Y1230730D02*
X943270D01*
Y1221585D01*
X943371D01*
X946020Y1222295D01*
X948395Y1223666D01*
X950334Y1225605D01*
X951705Y1227980D01*
X952415Y1230629D01*
Y1230730D01*
D02*
G37*
G36*
X940730D02*
X931585D01*
Y1230629D01*
X932295Y1227980D01*
X933666Y1225605D01*
X935605Y1223666D01*
X937980Y1222295D01*
X940629Y1221585D01*
X940730D01*
Y1230730D01*
D02*
G37*
G36*
X312167Y1267540D02*
X307832D01*
X303551Y1266862D01*
X299428Y1265522D01*
X295566Y1263554D01*
X292059Y1261006D01*
X288994Y1257941D01*
X286446Y1254434D01*
X284478Y1250572D01*
X283138Y1246449D01*
X282460Y1242168D01*
Y1237833D01*
X283138Y1233551D01*
X284478Y1229428D01*
X286446Y1225566D01*
X288994Y1222059D01*
X292059Y1218994D01*
X295566Y1216446D01*
X299428Y1214478D01*
X303551Y1213138D01*
X307832Y1212460D01*
X312167D01*
X316449Y1213138D01*
X320572Y1214478D01*
X324434Y1216446D01*
X327941Y1218994D01*
X331006Y1222059D01*
X333554Y1225566D01*
X335522Y1229428D01*
X336862Y1233551D01*
X337540Y1237833D01*
Y1242168D01*
X336862Y1246449D01*
X335522Y1250572D01*
X333554Y1254434D01*
X331006Y1257941D01*
X327941Y1261006D01*
X324434Y1263554D01*
X320572Y1265522D01*
X316449Y1266862D01*
X312167Y1267540D01*
D02*
G37*
G36*
X1742168Y1257540D02*
X1737832D01*
X1733551Y1256862D01*
X1729428Y1255522D01*
X1725566Y1253554D01*
X1722059Y1251006D01*
X1718994Y1247941D01*
X1716446Y1244434D01*
X1714478Y1240572D01*
X1713138Y1236449D01*
X1712460Y1232168D01*
Y1227832D01*
X1713138Y1223551D01*
X1714478Y1219428D01*
X1716446Y1215566D01*
X1718994Y1212059D01*
X1722059Y1208994D01*
X1725566Y1206446D01*
X1729428Y1204478D01*
X1733551Y1203138D01*
X1737832Y1202460D01*
X1742168D01*
X1746449Y1203138D01*
X1750572Y1204478D01*
X1754434Y1206446D01*
X1757941Y1208994D01*
X1761006Y1212059D01*
X1763554Y1215566D01*
X1765522Y1219428D01*
X1766862Y1223551D01*
X1767540Y1227832D01*
Y1232168D01*
X1766862Y1236449D01*
X1765522Y1240572D01*
X1763554Y1244434D01*
X1761006Y1247941D01*
X1757941Y1251006D01*
X1754434Y1253554D01*
X1750572Y1255522D01*
X1746449Y1256862D01*
X1742168Y1257540D01*
D02*
G37*
G36*
X621919Y1255540D02*
X618881D01*
X615946Y1254754D01*
X613314Y1253234D01*
X611166Y1251086D01*
X609646Y1248454D01*
X608860Y1245519D01*
Y1242481D01*
X609646Y1239546D01*
X611166Y1236914D01*
X613314Y1234766D01*
X615612Y1233439D01*
Y1224500D01*
X611250D01*
Y1201500D01*
X628750D01*
Y1224500D01*
X624788D01*
Y1233229D01*
X624854Y1233247D01*
X627486Y1234766D01*
X629634Y1236914D01*
X631154Y1239546D01*
X631940Y1242481D01*
Y1245519D01*
X631154Y1248454D01*
X629634Y1251086D01*
X627486Y1253234D01*
X624854Y1254754D01*
X621919Y1255540D01*
D02*
G37*
G36*
X596519D02*
X593481D01*
X590546Y1254754D01*
X587914Y1253234D01*
X585766Y1251086D01*
X584246Y1248454D01*
X583460Y1245519D01*
Y1242481D01*
X584246Y1239546D01*
X585766Y1236914D01*
X587914Y1234766D01*
X590412Y1233324D01*
Y1197000D01*
X590761Y1195244D01*
X591756Y1193756D01*
X600756Y1184756D01*
X602244Y1183761D01*
X604000Y1183412D01*
X611250D01*
Y1176500D01*
X628750D01*
Y1199500D01*
X611250D01*
Y1192588D01*
X605900D01*
X599588Y1198900D01*
Y1233324D01*
X602086Y1234766D01*
X604234Y1236914D01*
X605754Y1239546D01*
X606540Y1242481D01*
Y1245519D01*
X605754Y1248454D01*
X604234Y1251086D01*
X602086Y1253234D01*
X599454Y1254754D01*
X596519Y1255540D01*
D02*
G37*
G36*
X682730Y1174040D02*
X677210D01*
Y1171270D01*
X682730D01*
Y1174040D01*
D02*
G37*
G36*
X1326322Y1171040D02*
X1323678D01*
X1321125Y1170356D01*
X1318835Y1169034D01*
X1316966Y1167165D01*
X1316792Y1166863D01*
X906000D01*
X903756Y1166416D01*
X901854Y1165145D01*
X898595Y1161886D01*
X897455Y1161572D01*
X896970Y1162057D01*
X891784Y1167243D01*
X883271Y1158729D01*
X874757Y1150216D01*
X879943Y1145030D01*
X880428Y1144545D01*
X880114Y1143405D01*
X833571Y1096862D01*
X831362D01*
X831071Y1097565D01*
Y1097565D01*
X824000Y1104636D01*
X816227Y1096862D01*
X797500D01*
Y1099750D01*
X774500D01*
Y1096862D01*
X676609D01*
X675500Y1097250D01*
Y1114750D01*
X652500D01*
Y1097250D01*
X651391Y1096862D01*
X639594D01*
Y1101282D01*
X639896Y1101457D01*
X641765Y1103326D01*
X643087Y1105615D01*
X643771Y1108169D01*
Y1110813D01*
X643087Y1113366D01*
X641765Y1115656D01*
X639896Y1117525D01*
X637606Y1118847D01*
X635053Y1119531D01*
X632409D01*
X629856Y1118847D01*
X627566Y1117525D01*
X625697Y1115656D01*
X624375Y1113366D01*
X623691Y1110813D01*
Y1108169D01*
X624375Y1105615D01*
X625697Y1103326D01*
X627566Y1101457D01*
X627868Y1101282D01*
Y1091000D01*
Y1084159D01*
X608572Y1064863D01*
X590740D01*
Y1067750D01*
X567740D01*
Y1063588D01*
X559740D01*
Y1067750D01*
X536740D01*
X535809Y1068568D01*
Y1118243D01*
X535537Y1119608D01*
X534764Y1120766D01*
X524006Y1131523D01*
X522849Y1132297D01*
X521483Y1132569D01*
X509000D01*
X507635Y1132297D01*
X506477Y1131523D01*
X498717Y1123763D01*
X497943Y1122606D01*
X497672Y1121240D01*
Y1115478D01*
X485217Y1103024D01*
X485216Y1103024D01*
X485216Y1103023D01*
X482482Y1100289D01*
X481309Y1100775D01*
Y1108260D01*
X481037Y1109625D01*
X480263Y1110783D01*
X472120Y1118927D01*
X470962Y1119701D01*
X469596Y1119972D01*
X409674D01*
X383795Y1145852D01*
X384253Y1146646D01*
X385040Y1149581D01*
Y1152619D01*
X384253Y1155554D01*
X382734Y1158186D01*
X380586Y1160334D01*
X377954Y1161854D01*
X375019Y1162640D01*
X371981D01*
X369046Y1161854D01*
X366414Y1160334D01*
X364266Y1158186D01*
X362746Y1155554D01*
X361960Y1152619D01*
Y1149581D01*
X362746Y1146646D01*
X364266Y1144014D01*
X366414Y1141866D01*
X369046Y1140347D01*
X371981Y1139560D01*
X375019D01*
X377954Y1140347D01*
X378748Y1140805D01*
X405673Y1113880D01*
X406222Y1113513D01*
X405837Y1112243D01*
X392003D01*
X358395Y1145852D01*
X358853Y1146646D01*
X359640Y1149581D01*
Y1152619D01*
X358853Y1155554D01*
X357334Y1158186D01*
X355186Y1160334D01*
X352554Y1161854D01*
X349619Y1162640D01*
X346581D01*
X343646Y1161854D01*
X341014Y1160334D01*
X338866Y1158186D01*
X337346Y1155554D01*
X336560Y1152619D01*
Y1149581D01*
X337346Y1146646D01*
X338866Y1144014D01*
X341014Y1141866D01*
X343646Y1140347D01*
X346581Y1139560D01*
X349619D01*
X352554Y1140347D01*
X353348Y1140805D01*
X388002Y1106152D01*
X389159Y1105378D01*
X390525Y1105106D01*
X464847D01*
X469172Y1100782D01*
Y1094540D01*
X469010D01*
Y1088000D01*
X466470D01*
Y1094540D01*
X463700D01*
Y1094000D01*
X459240D01*
Y1084540D01*
X458700D01*
Y1084000D01*
X449240D01*
Y1079069D01*
X310500D01*
X309135Y1078797D01*
X307977Y1078023D01*
X296477Y1066523D01*
X295703Y1065366D01*
X295432Y1064000D01*
Y640000D01*
X295703Y638634D01*
X296477Y637477D01*
X409477Y524477D01*
X410634Y523703D01*
X412000Y523431D01*
X1635000D01*
X1636366Y523703D01*
X1637523Y524477D01*
X1698523Y585477D01*
X1699297Y586634D01*
X1699569Y588000D01*
Y723000D01*
X1699297Y724366D01*
X1698523Y725523D01*
X1676523Y747523D01*
X1675366Y748297D01*
X1674000Y748569D01*
X1629478D01*
X1621523Y756524D01*
X1620365Y757297D01*
X1619000Y757569D01*
X1542500D01*
Y762750D01*
X1519500D01*
Y745250D01*
X1542500D01*
Y750432D01*
X1617521D01*
X1622953Y745000D01*
X1611022Y733069D01*
X1603750D01*
Y733500D01*
X1589250D01*
Y725500D01*
Y719000D01*
Y712500D01*
X1603750D01*
Y712931D01*
X1606022D01*
X1610020Y708934D01*
X1609451Y706813D01*
Y704169D01*
X1610135Y701616D01*
X1611457Y699326D01*
X1613327Y697457D01*
X1615616Y696135D01*
X1616725Y695838D01*
X1616557Y694568D01*
X1569478D01*
X1565569Y698478D01*
Y710522D01*
X1567978Y712931D01*
X1570250D01*
Y712500D01*
X1584750D01*
Y719000D01*
Y725500D01*
Y733500D01*
X1570250D01*
Y733069D01*
X1561478D01*
X1555023Y739523D01*
X1553866Y740297D01*
X1552500Y740569D01*
X1517565D01*
X1517456Y740975D01*
X1516134Y743265D01*
X1514265Y745134D01*
X1511975Y746456D01*
X1509422Y747140D01*
X1506778D01*
X1504225Y746456D01*
X1501935Y745134D01*
X1500066Y743265D01*
X1498744Y740975D01*
X1498060Y738422D01*
Y735778D01*
X1498744Y733225D01*
X1500066Y730935D01*
X1501935Y729066D01*
X1504225Y727744D01*
X1506778Y727060D01*
X1509422D01*
X1511975Y727744D01*
X1514265Y729066D01*
X1516134Y730935D01*
X1517456Y733225D01*
X1517511Y733431D01*
X1551022D01*
X1556615Y727839D01*
X1556089Y726569D01*
X1542500D01*
Y730750D01*
X1519500D01*
Y713250D01*
X1542500D01*
Y719432D01*
X1562589D01*
X1563115Y718162D01*
X1559477Y714523D01*
X1558703Y713366D01*
X1558431Y712000D01*
Y697000D01*
X1558703Y695634D01*
X1559477Y694477D01*
X1565477Y688476D01*
X1566635Y687703D01*
X1568000Y687431D01*
X1606725D01*
X1607211Y686258D01*
X1466522Y545569D01*
X1344046D01*
X1343660Y546839D01*
X1345074Y547783D01*
X1471145Y673855D01*
X1472416Y675757D01*
X1472863Y678000D01*
Y734572D01*
X1520428Y782137D01*
X1551607D01*
X1553850Y782584D01*
X1555752Y783855D01*
X1560146Y788248D01*
X1561416Y790150D01*
X1561863Y792393D01*
Y873000D01*
X1561416Y875244D01*
X1560146Y877145D01*
X1542146Y895145D01*
X1540244Y896416D01*
X1538000Y896862D01*
X1520208D01*
X1520034Y897165D01*
X1518165Y899034D01*
X1515875Y900356D01*
X1513322Y901040D01*
X1510678D01*
X1508125Y900356D01*
X1505835Y899034D01*
X1503966Y897165D01*
X1503056Y895588D01*
X1449901D01*
X1352890Y992599D01*
X1407146Y1046854D01*
X1408416Y1048756D01*
X1408863Y1051000D01*
Y1125000D01*
X1408416Y1127243D01*
X1407146Y1129146D01*
X1371145Y1165145D01*
X1369243Y1166416D01*
X1367000Y1166863D01*
X1333208D01*
X1333034Y1167165D01*
X1331165Y1169034D01*
X1328875Y1170356D01*
X1326322Y1171040D01*
D02*
G37*
G36*
X476619Y1162640D02*
X476370D01*
Y1152370D01*
X486640D01*
Y1152619D01*
X485853Y1155554D01*
X484334Y1158186D01*
X482186Y1160334D01*
X479554Y1161854D01*
X476619Y1162640D01*
D02*
G37*
G36*
X473830D02*
X473581D01*
X470646Y1161854D01*
X468014Y1160334D01*
X465866Y1158186D01*
X464346Y1155554D01*
X463560Y1152619D01*
Y1152370D01*
X473830D01*
Y1162640D01*
D02*
G37*
G36*
X486640Y1149830D02*
X476370D01*
Y1139560D01*
X476619D01*
X479554Y1140347D01*
X482186Y1141866D01*
X484334Y1144014D01*
X485853Y1146646D01*
X486640Y1149581D01*
Y1149830D01*
D02*
G37*
G36*
X473830D02*
X463560D01*
Y1149581D01*
X464346Y1146646D01*
X465866Y1144014D01*
X468014Y1141866D01*
X470646Y1140347D01*
X473581Y1139560D01*
X473830D01*
Y1149830D01*
D02*
G37*
G36*
X425819Y1162640D02*
X422781D01*
X419846Y1161854D01*
X417214Y1160334D01*
X415066Y1158186D01*
X413546Y1155554D01*
X412760Y1152619D01*
Y1149581D01*
X413546Y1146646D01*
X415066Y1144014D01*
X417214Y1141866D01*
X419846Y1140347D01*
X422781Y1139560D01*
X425819D01*
X428754Y1140347D01*
X431386Y1141866D01*
X433534Y1144014D01*
X435053Y1146646D01*
X435840Y1149581D01*
Y1152619D01*
X435053Y1155554D01*
X433534Y1158186D01*
X431386Y1160334D01*
X428754Y1161854D01*
X425819Y1162640D01*
D02*
G37*
G36*
X400419D02*
X397381D01*
X394446Y1161854D01*
X391814Y1160334D01*
X389666Y1158186D01*
X388146Y1155554D01*
X387360Y1152619D01*
Y1149581D01*
X388146Y1146646D01*
X389666Y1144014D01*
X391814Y1141866D01*
X394446Y1140347D01*
X397381Y1139560D01*
X400419D01*
X403354Y1140347D01*
X405986Y1141866D01*
X408134Y1144014D01*
X409653Y1146646D01*
X410440Y1149581D01*
Y1152619D01*
X409653Y1155554D01*
X408134Y1158186D01*
X405986Y1160334D01*
X403354Y1161854D01*
X400419Y1162640D01*
D02*
G37*
G36*
X324219D02*
X321181D01*
X318246Y1161854D01*
X315614Y1160334D01*
X313466Y1158186D01*
X311946Y1155554D01*
X311160Y1152619D01*
Y1149581D01*
X311946Y1146646D01*
X313466Y1144014D01*
X315614Y1141866D01*
X318246Y1140347D01*
X321181Y1139560D01*
X324219D01*
X327154Y1140347D01*
X329786Y1141866D01*
X331934Y1144014D01*
X333453Y1146646D01*
X334240Y1149581D01*
Y1152619D01*
X333453Y1155554D01*
X331934Y1158186D01*
X329786Y1160334D01*
X327154Y1161854D01*
X324219Y1162640D01*
D02*
G37*
G36*
X298819D02*
X295781D01*
X292846Y1161854D01*
X290214Y1160334D01*
X288066Y1158186D01*
X286546Y1155554D01*
X285760Y1152619D01*
Y1149581D01*
X286546Y1146646D01*
X288066Y1144014D01*
X290214Y1141866D01*
X292846Y1140347D01*
X295781Y1139560D01*
X298819D01*
X301754Y1140347D01*
X304386Y1141866D01*
X306534Y1144014D01*
X308053Y1146646D01*
X308840Y1149581D01*
Y1152619D01*
X308053Y1155554D01*
X306534Y1158186D01*
X304386Y1160334D01*
X301754Y1161854D01*
X298819Y1162640D01*
D02*
G37*
G36*
X834823Y1156167D02*
X827399Y1148742D01*
X838005Y1138135D01*
X838473Y1138603D01*
X843537Y1133539D01*
X840367Y1130369D01*
X852742Y1117995D01*
X869005Y1134258D01*
X856631Y1146633D01*
X850026Y1140028D01*
X844962Y1145092D01*
X845430Y1145560D01*
X834823Y1156167D01*
D02*
G37*
G36*
X798040Y1121730D02*
X787270D01*
Y1113710D01*
X798040D01*
Y1121730D01*
D02*
G37*
G36*
X784730D02*
X773960D01*
Y1113710D01*
X784730D01*
Y1121730D01*
D02*
G37*
G36*
X810565Y1118835D02*
X807192Y1115462D01*
X810211Y1112442D01*
X813584Y1115815D01*
X810565Y1118835D01*
D02*
G37*
G36*
X815380Y1114019D02*
X812007Y1110646D01*
X815027Y1107627D01*
X818400Y1111000D01*
X815380Y1114019D01*
D02*
G37*
G36*
X805396Y1113666D02*
X802023Y1110293D01*
X805042Y1107273D01*
X808415Y1110646D01*
X805396Y1113666D01*
D02*
G37*
G36*
X810211Y1108850D02*
X806838Y1105477D01*
X809858Y1102458D01*
X813231Y1105831D01*
X810211Y1108850D01*
D02*
G37*
G36*
X560530Y1096040D02*
X552510D01*
Y1085270D01*
X560530D01*
Y1096040D01*
D02*
G37*
G36*
X549970D02*
X541950D01*
Y1085270D01*
X549970D01*
Y1096040D01*
D02*
G37*
G36*
X587280Y1091290D02*
X576510D01*
Y1083270D01*
X587280D01*
Y1091290D01*
D02*
G37*
G36*
X573970D02*
X563200D01*
Y1083270D01*
X573970D01*
Y1091290D01*
D02*
G37*
G36*
X587280Y1080730D02*
X576510D01*
Y1072710D01*
X587280D01*
Y1080730D01*
D02*
G37*
G36*
X573970D02*
X563200D01*
Y1072710D01*
X573970D01*
Y1080730D01*
D02*
G37*
G36*
X560530Y1082730D02*
X552510D01*
Y1071960D01*
X560530D01*
Y1082730D01*
D02*
G37*
G36*
X549970D02*
X541950D01*
Y1071960D01*
X549970D01*
Y1082730D01*
D02*
G37*
G36*
X1411322Y989040D02*
X1411270D01*
Y980270D01*
X1420040D01*
Y980322D01*
X1419356Y982875D01*
X1418034Y985165D01*
X1416165Y987034D01*
X1413875Y988356D01*
X1411322Y989040D01*
D02*
G37*
G36*
X1408730D02*
X1408678D01*
X1406125Y988356D01*
X1403835Y987034D01*
X1401966Y985165D01*
X1400644Y982875D01*
X1399960Y980322D01*
Y980270D01*
X1408730D01*
Y989040D01*
D02*
G37*
G36*
X1662322Y984040D02*
X1662270D01*
Y975270D01*
X1671040D01*
Y975322D01*
X1670356Y977875D01*
X1669034Y980165D01*
X1667165Y982034D01*
X1664875Y983356D01*
X1662322Y984040D01*
D02*
G37*
G36*
X1659730D02*
X1659678D01*
X1657125Y983356D01*
X1654835Y982034D01*
X1652966Y980165D01*
X1651644Y977875D01*
X1650960Y975322D01*
Y975270D01*
X1659730D01*
Y984040D01*
D02*
G37*
G36*
X1420040Y977730D02*
X1411270D01*
Y968960D01*
X1411322D01*
X1413875Y969644D01*
X1416165Y970966D01*
X1418034Y972835D01*
X1419356Y975125D01*
X1420040Y977678D01*
Y977730D01*
D02*
G37*
G36*
X1408730D02*
X1399960D01*
Y977678D01*
X1400644Y975125D01*
X1401966Y972835D01*
X1403835Y970966D01*
X1406125Y969644D01*
X1408678Y968960D01*
X1408730D01*
Y977730D01*
D02*
G37*
G36*
X1671040Y972730D02*
X1662270D01*
Y963960D01*
X1662322D01*
X1664875Y964644D01*
X1667165Y965966D01*
X1669034Y967835D01*
X1670356Y970125D01*
X1671040Y972678D01*
Y972730D01*
D02*
G37*
G36*
X1659730D02*
X1650960D01*
Y972678D01*
X1651644Y970125D01*
X1652966Y967835D01*
X1654835Y965966D01*
X1657125Y964644D01*
X1659678Y963960D01*
X1659730D01*
Y972730D01*
D02*
G37*
G36*
X1513322Y926040D02*
X1513270D01*
Y917270D01*
X1522040D01*
Y917322D01*
X1521356Y919875D01*
X1520034Y922165D01*
X1518165Y924034D01*
X1515875Y925356D01*
X1513322Y926040D01*
D02*
G37*
G36*
X1510730D02*
X1510678D01*
X1508125Y925356D01*
X1505835Y924034D01*
X1503966Y922165D01*
X1502644Y919875D01*
X1501960Y917322D01*
Y917270D01*
X1510730D01*
Y926040D01*
D02*
G37*
G36*
X1522040Y914730D02*
X1513270D01*
Y905960D01*
X1513322D01*
X1515875Y906644D01*
X1518165Y907966D01*
X1520034Y909835D01*
X1521356Y912125D01*
X1522040Y914678D01*
Y914730D01*
D02*
G37*
G36*
X1510730D02*
X1501960D01*
Y914678D01*
X1502644Y912125D01*
X1503966Y909835D01*
X1505835Y907966D01*
X1508125Y906644D01*
X1510678Y905960D01*
X1510730D01*
Y914730D01*
D02*
G37*
G36*
X1742168Y701540D02*
X1737832D01*
X1733551Y700862D01*
X1729428Y699522D01*
X1725566Y697554D01*
X1722059Y695006D01*
X1718994Y691941D01*
X1716446Y688434D01*
X1714478Y684572D01*
X1713138Y680449D01*
X1712460Y676168D01*
Y671833D01*
X1713138Y667551D01*
X1714478Y663428D01*
X1716446Y659566D01*
X1718994Y656059D01*
X1722059Y652994D01*
X1725566Y650446D01*
X1729428Y648478D01*
X1733551Y647138D01*
X1737832Y646460D01*
X1742168D01*
X1746449Y647138D01*
X1750572Y648478D01*
X1754434Y650446D01*
X1757941Y652994D01*
X1761006Y656059D01*
X1763554Y659566D01*
X1765522Y663428D01*
X1766862Y667551D01*
X1767540Y671833D01*
Y676168D01*
X1766862Y680449D01*
X1765522Y684572D01*
X1763554Y688434D01*
X1761006Y691941D01*
X1757941Y695006D01*
X1754434Y697554D01*
X1750572Y699522D01*
X1746449Y700862D01*
X1742168Y701540D01*
D02*
G37*
G36*
X322168Y587540D02*
X317833D01*
X313551Y586862D01*
X309428Y585522D01*
X305566Y583554D01*
X302059Y581006D01*
X298994Y577941D01*
X296446Y574434D01*
X294478Y570572D01*
X293138Y566449D01*
X292460Y562168D01*
Y557832D01*
X293138Y553551D01*
X294478Y549428D01*
X296446Y545566D01*
X298994Y542059D01*
X302059Y538994D01*
X305566Y536446D01*
X309428Y534478D01*
X313551Y533138D01*
X317833Y532460D01*
X322168D01*
X326449Y533138D01*
X330572Y534478D01*
X334434Y536446D01*
X337941Y538994D01*
X341006Y542059D01*
X343554Y545566D01*
X345522Y549428D01*
X346862Y553551D01*
X347540Y557832D01*
Y562168D01*
X346862Y566449D01*
X345522Y570572D01*
X343554Y574434D01*
X341006Y577941D01*
X337941Y581006D01*
X334434Y583554D01*
X330572Y585522D01*
X326449Y586862D01*
X322168Y587540D01*
D02*
G37*
%LPD*%
G36*
X1397137Y1122572D02*
Y1053428D01*
X1341355Y997646D01*
X1341355Y997645D01*
X1277759Y934050D01*
X1277422Y934140D01*
X1274778D01*
X1272225Y933456D01*
X1269935Y932134D01*
X1268066Y930265D01*
X1266744Y927975D01*
X1266060Y925422D01*
Y922778D01*
X1266744Y920225D01*
X1268066Y917935D01*
X1269935Y916066D01*
X1272225Y914744D01*
X1274778Y914060D01*
X1277422D01*
X1279975Y914744D01*
X1282265Y916066D01*
X1284134Y917935D01*
X1285456Y920225D01*
X1286140Y922778D01*
Y925422D01*
X1286050Y925759D01*
X1346401Y986110D01*
X1444756Y887756D01*
X1446244Y886761D01*
X1448000Y886412D01*
X1503056D01*
X1503966Y884835D01*
X1505835Y882966D01*
X1508125Y881644D01*
X1510678Y880960D01*
X1513322D01*
X1515875Y881644D01*
X1518165Y882966D01*
X1520034Y884835D01*
X1520208Y885137D01*
X1535572D01*
X1550137Y870572D01*
Y794822D01*
X1549178Y793863D01*
X1518000D01*
X1515757Y793416D01*
X1513855Y792145D01*
X1462854Y741145D01*
X1461584Y739244D01*
X1461137Y737000D01*
Y680428D01*
X1338501Y557792D01*
X1275732D01*
X1275564Y559062D01*
X1276254Y559246D01*
X1278886Y560766D01*
X1281034Y562914D01*
X1282554Y565546D01*
X1283340Y568481D01*
Y568730D01*
X1271800D01*
Y570000D01*
D01*
Y568730D01*
X1260260D01*
Y568481D01*
X1261046Y565546D01*
X1262566Y562914D01*
X1264714Y560766D01*
X1267346Y559246D01*
X1268036Y559062D01*
X1267868Y557792D01*
X1250332D01*
X1250164Y559062D01*
X1250854Y559246D01*
X1253486Y560766D01*
X1255634Y562914D01*
X1257153Y565546D01*
X1257940Y568481D01*
Y568730D01*
X1246400D01*
X1234860D01*
Y568481D01*
X1235646Y565546D01*
X1237166Y562914D01*
X1239314Y560766D01*
X1241946Y559246D01*
X1242636Y559062D01*
X1242468Y557792D01*
X1224932D01*
X1224764Y559062D01*
X1225454Y559246D01*
X1228086Y560766D01*
X1230234Y562914D01*
X1231753Y565546D01*
X1232540Y568481D01*
Y571519D01*
X1231753Y574454D01*
X1230234Y577086D01*
X1228086Y579234D01*
X1225454Y580754D01*
X1222519Y581540D01*
X1219481D01*
X1216546Y580754D01*
X1213914Y579234D01*
X1211766Y577086D01*
X1210246Y574454D01*
X1209460Y571519D01*
Y568481D01*
X1210246Y565546D01*
X1211766Y562914D01*
X1213914Y560766D01*
X1216546Y559246D01*
X1217236Y559062D01*
X1217068Y557792D01*
X1199532D01*
X1199364Y559062D01*
X1200054Y559246D01*
X1202686Y560766D01*
X1204834Y562914D01*
X1206354Y565546D01*
X1207140Y568481D01*
Y571519D01*
X1206354Y574454D01*
X1204834Y577086D01*
X1202686Y579234D01*
X1200054Y580754D01*
X1197119Y581540D01*
X1194081D01*
X1191146Y580754D01*
X1188514Y579234D01*
X1186366Y577086D01*
X1184846Y574454D01*
X1184060Y571519D01*
Y568481D01*
X1184846Y565546D01*
X1186366Y562914D01*
X1188514Y560766D01*
X1191146Y559246D01*
X1191836Y559062D01*
X1191668Y557792D01*
X1174132D01*
X1173964Y559062D01*
X1174654Y559246D01*
X1177286Y560766D01*
X1179434Y562914D01*
X1180954Y565546D01*
X1181740Y568481D01*
Y571519D01*
X1180954Y574454D01*
X1179434Y577086D01*
X1177286Y579234D01*
X1174654Y580754D01*
X1171719Y581540D01*
X1168681D01*
X1165746Y580754D01*
X1163114Y579234D01*
X1160966Y577086D01*
X1159446Y574454D01*
X1158660Y571519D01*
Y568481D01*
X1159446Y565546D01*
X1160966Y562914D01*
X1163114Y560766D01*
X1165746Y559246D01*
X1166436Y559062D01*
X1166268Y557792D01*
X1148732D01*
X1148564Y559062D01*
X1149254Y559246D01*
X1151886Y560766D01*
X1154034Y562914D01*
X1155554Y565546D01*
X1156340Y568481D01*
Y571519D01*
X1155554Y574454D01*
X1154034Y577086D01*
X1151886Y579234D01*
X1149254Y580754D01*
X1146319Y581540D01*
X1143281D01*
X1140346Y580754D01*
X1137714Y579234D01*
X1135566Y577086D01*
X1134046Y574454D01*
X1133260Y571519D01*
Y568481D01*
X1134046Y565546D01*
X1135566Y562914D01*
X1137714Y560766D01*
X1140346Y559246D01*
X1141036Y559062D01*
X1140868Y557792D01*
X1123332D01*
X1123164Y559062D01*
X1123854Y559246D01*
X1126486Y560766D01*
X1128634Y562914D01*
X1130154Y565546D01*
X1130940Y568481D01*
Y568730D01*
X1119400D01*
X1107860D01*
Y568481D01*
X1108646Y565546D01*
X1110166Y562914D01*
X1112314Y560766D01*
X1114946Y559246D01*
X1115636Y559062D01*
X1115468Y557792D01*
X1097932D01*
X1097764Y559062D01*
X1098454Y559246D01*
X1101086Y560766D01*
X1103234Y562914D01*
X1104753Y565546D01*
X1105540Y568481D01*
Y568730D01*
X1094000D01*
X1082460D01*
Y568481D01*
X1083246Y565546D01*
X1084766Y562914D01*
X1086914Y560766D01*
X1089546Y559246D01*
X1090236Y559062D01*
X1090068Y557792D01*
X1072532D01*
X1072364Y559062D01*
X1073054Y559246D01*
X1075686Y560766D01*
X1077834Y562914D01*
X1079353Y565546D01*
X1080140Y568481D01*
Y568730D01*
X1068600D01*
Y570000D01*
D01*
Y568730D01*
X1057060D01*
Y568481D01*
X1057846Y565546D01*
X1059366Y562914D01*
X1061514Y560766D01*
X1064146Y559246D01*
X1064836Y559062D01*
X1064668Y557792D01*
X1047132D01*
X1046964Y559062D01*
X1047654Y559246D01*
X1050286Y560766D01*
X1052434Y562914D01*
X1053953Y565546D01*
X1054740Y568481D01*
Y568730D01*
X1043200D01*
Y570000D01*
D01*
Y568730D01*
X1031660D01*
Y568481D01*
X1032446Y565546D01*
X1033966Y562914D01*
X1036114Y560766D01*
X1038746Y559246D01*
X1039436Y559062D01*
X1039268Y557792D01*
X1021732D01*
X1021564Y559062D01*
X1022254Y559246D01*
X1024886Y560766D01*
X1027034Y562914D01*
X1028553Y565546D01*
X1029340Y568481D01*
Y568730D01*
X1017800D01*
X1006260D01*
Y568481D01*
X1007046Y565546D01*
X1008566Y562914D01*
X1010714Y560766D01*
X1013346Y559246D01*
X1014036Y559062D01*
X1013868Y557792D01*
X996332D01*
X996164Y559062D01*
X996854Y559246D01*
X999486Y560766D01*
X1001634Y562914D01*
X1003154Y565546D01*
X1003940Y568481D01*
Y568730D01*
X992400D01*
X980860D01*
Y568481D01*
X981646Y565546D01*
X983166Y562914D01*
X985314Y560766D01*
X987946Y559246D01*
X988636Y559062D01*
X988468Y557792D01*
X970932D01*
X970764Y559062D01*
X971454Y559246D01*
X974086Y560766D01*
X976234Y562914D01*
X977754Y565546D01*
X978540Y568481D01*
Y571519D01*
X977754Y574454D01*
X976234Y577086D01*
X974086Y579234D01*
X972588Y580099D01*
Y593100D01*
X990900Y611412D01*
X1268056D01*
X1268966Y609835D01*
X1270835Y607966D01*
X1273125Y606644D01*
X1275678Y605960D01*
X1278322D01*
X1280875Y606644D01*
X1283165Y607966D01*
X1285034Y609835D01*
X1286356Y612125D01*
X1287040Y614678D01*
Y617322D01*
X1286356Y619875D01*
X1285034Y622165D01*
X1283165Y624034D01*
X1280875Y625356D01*
X1278322Y626040D01*
X1275678D01*
X1273125Y625356D01*
X1270835Y624034D01*
X1268966Y622165D01*
X1268056Y620588D01*
X989000D01*
X987244Y620239D01*
X985756Y619244D01*
X964756Y598244D01*
X963761Y596756D01*
X963412Y595000D01*
Y580986D01*
X962546Y580754D01*
X959914Y579234D01*
X957766Y577086D01*
X956246Y574454D01*
X955460Y571519D01*
Y568481D01*
X956246Y565546D01*
X957766Y562914D01*
X959914Y560766D01*
X962546Y559246D01*
X963236Y559062D01*
X963068Y557792D01*
X945532D01*
X945364Y559062D01*
X946054Y559246D01*
X948686Y560766D01*
X950834Y562914D01*
X952354Y565546D01*
X953140Y568481D01*
Y571519D01*
X952354Y574454D01*
X950834Y577086D01*
X948686Y579234D01*
X946054Y580754D01*
X943119Y581540D01*
X940081D01*
X937146Y580754D01*
X934514Y579234D01*
X932366Y577086D01*
X930846Y574454D01*
X930060Y571519D01*
Y568481D01*
X930846Y565546D01*
X932366Y562914D01*
X934514Y560766D01*
X937146Y559246D01*
X937836Y559062D01*
X937668Y557792D01*
X920132D01*
X919964Y559062D01*
X920654Y559246D01*
X923286Y560766D01*
X925434Y562914D01*
X926954Y565546D01*
X927740Y568481D01*
Y568730D01*
X916200D01*
X904660D01*
Y568481D01*
X905446Y565546D01*
X906966Y562914D01*
X909114Y560766D01*
X911746Y559246D01*
X912436Y559062D01*
X912268Y557792D01*
X894732D01*
X894564Y559062D01*
X895254Y559246D01*
X897886Y560766D01*
X900034Y562914D01*
X901553Y565546D01*
X902340Y568481D01*
Y568730D01*
X890800D01*
X879260D01*
Y568481D01*
X880046Y565546D01*
X881566Y562914D01*
X883714Y560766D01*
X886346Y559246D01*
X887036Y559062D01*
X886868Y557792D01*
X869332D01*
X869164Y559062D01*
X869854Y559246D01*
X872486Y560766D01*
X874634Y562914D01*
X876153Y565546D01*
X876940Y568481D01*
Y571519D01*
X876153Y574454D01*
X874634Y577086D01*
X872486Y579234D01*
X869854Y580754D01*
X866919Y581540D01*
X863881D01*
X860946Y580754D01*
X858314Y579234D01*
X856166Y577086D01*
X854646Y574454D01*
X853860Y571519D01*
Y568481D01*
X854646Y565546D01*
X856166Y562914D01*
X858314Y560766D01*
X860946Y559246D01*
X861636Y559062D01*
X861468Y557792D01*
X843932D01*
X843764Y559062D01*
X844454Y559246D01*
X847086Y560766D01*
X849234Y562914D01*
X850753Y565546D01*
X851540Y568481D01*
Y571519D01*
X850753Y574454D01*
X849234Y577086D01*
X847086Y579234D01*
X844454Y580754D01*
X841519Y581540D01*
X838481D01*
X835546Y580754D01*
X832914Y579234D01*
X830766Y577086D01*
X829246Y574454D01*
X828460Y571519D01*
Y568481D01*
X829246Y565546D01*
X830766Y562914D01*
X832914Y560766D01*
X835546Y559246D01*
X836236Y559062D01*
X836068Y557792D01*
X819188D01*
Y559324D01*
X821686Y560766D01*
X823834Y562914D01*
X825353Y565546D01*
X826140Y568481D01*
Y571519D01*
X825353Y574454D01*
X823834Y577086D01*
X821686Y579234D01*
X819054Y580754D01*
X816119Y581540D01*
X813081D01*
X810146Y580754D01*
X807514Y579234D01*
X805366Y577086D01*
X803846Y574454D01*
X803060Y571519D01*
Y568481D01*
X803846Y565546D01*
X805366Y562914D01*
X807514Y560766D01*
X810012Y559324D01*
Y557792D01*
X801733D01*
X800740Y558460D01*
X800740Y559062D01*
Y568730D01*
X789200D01*
X777660D01*
Y559062D01*
X777660Y558460D01*
X776667Y557792D01*
X453499D01*
X346863Y664428D01*
Y859572D01*
X373000Y885709D01*
X405854Y852855D01*
X425355Y833354D01*
X427257Y832084D01*
X429500Y831637D01*
X480250D01*
Y826500D01*
X483912D01*
Y819500D01*
X479250D01*
Y802989D01*
X473903Y797642D01*
X472908Y796153D01*
X472559Y794397D01*
Y783305D01*
X471832Y782708D01*
X447667D01*
Y785220D01*
X428967D01*
Y771020D01*
X447667D01*
Y773532D01*
X467522D01*
Y771930D01*
X486772D01*
Y782430D01*
X481735D01*
Y792497D01*
X485739Y796500D01*
X496750D01*
X497412Y795504D01*
Y762900D01*
X490880Y756368D01*
X486772D01*
Y757030D01*
X467522D01*
Y746530D01*
X486772D01*
Y747192D01*
X491907D01*
X492433Y745922D01*
X490930Y744418D01*
X477897D01*
X477454Y744330D01*
X467522D01*
Y733830D01*
X486772D01*
Y735242D01*
X490930D01*
X550416Y675756D01*
X551905Y674761D01*
X553661Y674412D01*
X1015000D01*
X1016756Y674761D01*
X1018244Y675756D01*
X1075900Y733412D01*
X1205099D01*
X1213412Y725099D01*
Y677944D01*
X1211835Y677034D01*
X1209966Y675165D01*
X1208644Y672875D01*
X1207960Y670322D01*
Y667678D01*
X1208644Y665125D01*
X1209966Y662835D01*
X1211835Y660966D01*
X1212022Y660858D01*
X1211682Y659588D01*
X1163944D01*
X1163034Y661165D01*
X1161165Y663034D01*
X1158875Y664356D01*
X1156322Y665040D01*
X1153678D01*
X1151125Y664356D01*
X1148835Y663034D01*
X1146966Y661165D01*
X1145644Y658875D01*
X1144960Y656322D01*
Y653678D01*
X1145644Y651125D01*
X1146966Y648835D01*
X1148835Y646966D01*
X1151125Y645644D01*
X1153678Y644960D01*
X1156322D01*
X1158875Y645644D01*
X1161165Y646966D01*
X1163034Y648835D01*
X1163944Y650412D01*
X1304000D01*
X1305756Y650761D01*
X1307244Y651756D01*
X1313244Y657756D01*
X1314239Y659244D01*
X1314588Y661000D01*
Y711099D01*
X1439900Y836412D01*
X1503056D01*
X1503966Y834835D01*
X1505835Y832966D01*
X1508125Y831644D01*
X1510678Y830960D01*
X1513322D01*
X1515875Y831644D01*
X1518165Y832966D01*
X1520034Y834835D01*
X1521356Y837125D01*
X1522040Y839678D01*
Y842322D01*
X1521356Y844875D01*
X1520034Y847165D01*
X1518165Y849034D01*
X1515875Y850356D01*
X1513322Y851040D01*
X1510678D01*
X1508125Y850356D01*
X1505835Y849034D01*
X1503966Y847165D01*
X1503056Y845588D01*
X1438000D01*
X1436244Y845239D01*
X1434756Y844244D01*
X1306756Y716244D01*
X1305761Y714756D01*
X1305412Y713000D01*
Y662900D01*
X1302099Y659588D01*
X1263318D01*
X1262978Y660858D01*
X1263165Y660966D01*
X1265034Y662835D01*
X1266356Y665125D01*
X1267040Y667678D01*
Y670322D01*
X1266356Y672875D01*
X1265034Y675165D01*
X1263165Y677034D01*
X1261588Y677944D01*
Y727000D01*
X1261239Y728756D01*
X1260244Y730244D01*
X1233244Y757244D01*
X1231756Y758239D01*
X1230000Y758588D01*
X958000D01*
X956244Y758239D01*
X954756Y757244D01*
X943100Y745588D01*
X723082D01*
X627426Y841244D01*
X625938Y842239D01*
X624182Y842588D01*
X529750D01*
Y849500D01*
X512250D01*
Y841588D01*
X504929D01*
X503173Y841239D01*
X501685Y840244D01*
X499020Y837580D01*
X497979Y837886D01*
X497750Y838055D01*
Y849500D01*
X480250D01*
Y843363D01*
X431928D01*
X425327Y849964D01*
X425813Y851137D01*
X803178D01*
X804137Y850178D01*
Y828744D01*
X802910Y828415D01*
X802835Y828546D01*
X800546Y830835D01*
X797744Y832452D01*
X794618Y833290D01*
X794270D01*
Y821000D01*
Y808710D01*
X794618D01*
X797744Y809548D01*
X800546Y811166D01*
X802835Y813454D01*
X802910Y813585D01*
X804137Y813256D01*
Y802500D01*
X801250D01*
Y779500D01*
X803787D01*
X804313Y778230D01*
X799755Y773673D01*
X798761Y772184D01*
X798412Y770428D01*
Y766750D01*
X791500D01*
Y749250D01*
X814500D01*
Y766750D01*
X807588D01*
Y768528D01*
X812745Y773685D01*
X813739Y775173D01*
X814088Y776929D01*
Y779500D01*
X818750D01*
Y802500D01*
X815862D01*
Y852607D01*
X815416Y854850D01*
X814145Y856752D01*
X809752Y861145D01*
X807850Y862416D01*
X805606Y862863D01*
X412428D01*
X378863Y896428D01*
Y952250D01*
X384500D01*
Y969750D01*
X361500D01*
Y965588D01*
X354901D01*
X344588Y975900D01*
Y1021099D01*
X355900Y1032412D01*
X446945D01*
Y1029020D01*
X466775D01*
Y1032412D01*
X472775D01*
X473017Y1032171D01*
Y1011376D01*
X473366Y1009620D01*
X474361Y1008131D01*
X487482Y995010D01*
X478801Y986328D01*
X466235D01*
Y991000D01*
Y997500D01*
Y1004000D01*
Y1010500D01*
Y1017000D01*
Y1022960D01*
X466775D01*
Y1026480D01*
X446945D01*
Y1024569D01*
X386000D01*
X384635Y1024297D01*
X383477Y1023524D01*
X370477Y1010523D01*
X369703Y1009366D01*
X369431Y1008000D01*
Y1001750D01*
X361500D01*
Y984250D01*
X384500D01*
Y1001750D01*
X376569D01*
Y1006522D01*
X387478Y1017432D01*
X447485D01*
Y1011746D01*
X425178D01*
X423812Y1011475D01*
X422654Y1010701D01*
X421429Y1009475D01*
X419322Y1010040D01*
X416678D01*
X414125Y1009356D01*
X411835Y1008034D01*
X409966Y1006165D01*
X408644Y1003875D01*
X407960Y1001322D01*
Y998678D01*
X408525Y996571D01*
X399477Y987523D01*
X398703Y986366D01*
X398431Y985000D01*
Y956000D01*
X398703Y954634D01*
X399477Y953477D01*
X484477Y868477D01*
X485634Y867703D01*
X487000Y867431D01*
X747000D01*
X748366Y867703D01*
X749523Y868477D01*
X809478Y928431D01*
X1030522D01*
X1049477Y909477D01*
X1050634Y908703D01*
X1052000Y908431D01*
X1100562D01*
X1100644Y908125D01*
X1101966Y905835D01*
X1103835Y903966D01*
X1106125Y902644D01*
X1108678Y901960D01*
X1111322D01*
X1113875Y902644D01*
X1116165Y903966D01*
X1118034Y905835D01*
X1119356Y908125D01*
X1120040Y910678D01*
Y913322D01*
X1119356Y915875D01*
X1118034Y918165D01*
X1116165Y920034D01*
X1113875Y921356D01*
X1111322Y922040D01*
X1108678D01*
X1106125Y921356D01*
X1103835Y920034D01*
X1101966Y918165D01*
X1100644Y915875D01*
X1100562Y915569D01*
X1053478D01*
X1034523Y934523D01*
X1033366Y935297D01*
X1032000Y935569D01*
X808000D01*
X806634Y935297D01*
X805477Y934523D01*
X745522Y874569D01*
X488478D01*
X405569Y957478D01*
Y983522D01*
X413216Y991169D01*
X414125Y990644D01*
X416678Y989960D01*
X419322D01*
X421875Y990644D01*
X424165Y991966D01*
X426034Y993835D01*
X427356Y996125D01*
X428040Y998678D01*
Y1001322D01*
X427499Y1003339D01*
X428272Y1004609D01*
X437766D01*
X438293Y1003339D01*
X416477Y981523D01*
X415703Y980366D01*
X415431Y979000D01*
Y974845D01*
X415125Y974762D01*
X412835Y973441D01*
X410966Y971572D01*
X409644Y969282D01*
X408960Y966729D01*
Y964085D01*
X409644Y961532D01*
X410966Y959242D01*
X412835Y957373D01*
X415125Y956051D01*
X417678Y955367D01*
X420322D01*
X422875Y956051D01*
X425165Y957373D01*
X427034Y959242D01*
X428356Y961532D01*
X429040Y964085D01*
Y966729D01*
X428356Y969282D01*
X427034Y971572D01*
X425165Y973441D01*
X422875Y974762D01*
X422569Y974845D01*
Y977522D01*
X433209Y988163D01*
X433248Y988158D01*
X434431Y987589D01*
Y967000D01*
X434703Y965634D01*
X435477Y964477D01*
X451803Y948150D01*
X451644Y947875D01*
X450960Y945322D01*
Y942678D01*
X451644Y940125D01*
X452966Y937835D01*
X454835Y935966D01*
X457125Y934644D01*
X459678Y933960D01*
X462322D01*
X464875Y934644D01*
X467165Y935966D01*
X469034Y937835D01*
X470356Y940125D01*
X471040Y942678D01*
Y945322D01*
X470356Y947875D01*
X469034Y950165D01*
X467165Y952034D01*
X464875Y953356D01*
X462322Y954040D01*
X459678D01*
X457125Y953356D01*
X456850Y953197D01*
X441569Y968478D01*
Y986555D01*
X445946Y990932D01*
X447485D01*
Y984500D01*
Y978000D01*
X466235D01*
Y978172D01*
X480490D01*
X480490Y978172D01*
X482051Y978482D01*
X483374Y979366D01*
X495083Y991075D01*
X495366Y991131D01*
X495606Y991292D01*
X506245D01*
Y984500D01*
Y978000D01*
X524995D01*
Y978172D01*
X527301D01*
X531162Y974311D01*
Y945000D01*
X531162Y945000D01*
X531472Y943439D01*
X532356Y942116D01*
X540240Y934232D01*
Y913000D01*
X586240D01*
Y922412D01*
X601240D01*
Y919250D01*
X623240D01*
Y934750D01*
X601240D01*
Y931588D01*
X586240D01*
Y940000D01*
X546007D01*
X539318Y946689D01*
Y975159D01*
X540240Y976000D01*
X540515Y976000D01*
X586240D01*
Y984412D01*
X600240D01*
Y981250D01*
X622240D01*
Y996750D01*
X600240D01*
Y993588D01*
X586240D01*
Y1003000D01*
X540240D01*
Y992828D01*
X524995D01*
Y1004000D01*
Y1010500D01*
Y1022960D01*
X525535D01*
Y1026480D01*
X515620D01*
Y1027750D01*
X514350D01*
Y1032540D01*
X507808D01*
Y1051950D01*
X507673Y1052628D01*
X507537Y1053315D01*
X507537Y1053315D01*
X507537Y1053315D01*
X507122Y1053935D01*
X506763Y1054473D01*
X503213Y1058023D01*
X503213Y1058023D01*
X503213Y1058023D01*
X502593Y1058438D01*
X502056Y1058797D01*
X502056Y1058797D01*
X502056Y1058797D01*
X501240Y1058959D01*
Y1063244D01*
X502413Y1063730D01*
X504523Y1061620D01*
X504758Y1060436D01*
X505753Y1058948D01*
X508946Y1055756D01*
X508946Y1055756D01*
X508946Y1055756D01*
X508946Y1055756D01*
X509685Y1055262D01*
X510434Y1054761D01*
X510434Y1054761D01*
X510434Y1054761D01*
X511371Y1054575D01*
X512190Y1054412D01*
X536740D01*
Y1050250D01*
X559740D01*
Y1054412D01*
X567740D01*
Y1050250D01*
X590740D01*
Y1053138D01*
X611000D01*
X613244Y1053584D01*
X615146Y1054855D01*
X637877Y1077586D01*
X639147Y1079488D01*
X639594Y1081731D01*
Y1085137D01*
X774500D01*
Y1082250D01*
X797500D01*
Y1085137D01*
X836000D01*
X838243Y1085583D01*
X840145Y1086854D01*
X908428Y1155137D01*
X1316792D01*
X1316966Y1154835D01*
X1318835Y1152966D01*
X1321125Y1151644D01*
X1323678Y1150960D01*
X1326322D01*
X1328875Y1151644D01*
X1331165Y1152966D01*
X1333034Y1154835D01*
X1333208Y1155137D01*
X1364572D01*
X1397137Y1122572D01*
D02*
G37*
G36*
X717937Y737756D02*
X719426Y736761D01*
X721182Y736412D01*
X945000D01*
X946756Y736761D01*
X948244Y737756D01*
X959901Y749412D01*
X1228100D01*
X1252412Y725099D01*
Y677944D01*
X1250835Y677034D01*
X1248966Y675165D01*
X1247644Y672875D01*
X1246960Y670322D01*
Y667678D01*
X1247644Y665125D01*
X1248966Y662835D01*
X1250835Y660966D01*
X1251022Y660858D01*
X1250682Y659588D01*
X1224318D01*
X1223978Y660858D01*
X1224165Y660966D01*
X1226034Y662835D01*
X1227356Y665125D01*
X1228040Y667678D01*
Y670322D01*
X1227356Y672875D01*
X1226034Y675165D01*
X1224165Y677034D01*
X1222588Y677944D01*
Y727000D01*
X1222239Y728756D01*
X1221244Y730244D01*
X1210244Y741244D01*
X1208756Y742239D01*
X1207000Y742588D01*
X1074000D01*
X1072244Y742239D01*
X1070756Y741244D01*
X1013100Y683588D01*
X555561D01*
X499319Y739830D01*
X514244Y754756D01*
X515239Y756244D01*
X515588Y758000D01*
Y783100D01*
X522173Y789685D01*
X523168Y791173D01*
X523517Y792929D01*
Y796500D01*
X528750D01*
Y819500D01*
X511250D01*
Y796500D01*
X514341D01*
Y794830D01*
X507858Y788347D01*
X507427Y788396D01*
X506588Y788783D01*
Y832171D01*
X506829Y832412D01*
X512250D01*
Y826500D01*
X529750D01*
Y833412D01*
X622281D01*
X717937Y737756D01*
D02*
G37*
%LPC*%
G36*
X705429Y1083749D02*
X682429D01*
Y1066250D01*
X689412D01*
Y1056750D01*
X685000D01*
Y1052738D01*
X679185Y1046923D01*
X678939Y1046555D01*
X677213Y1046252D01*
X677000Y1046406D01*
Y1047250D01*
X674088D01*
Y1058500D01*
X673739Y1060256D01*
X672744Y1061744D01*
X670412Y1064077D01*
X670898Y1065250D01*
X675500D01*
Y1082750D01*
X652500D01*
Y1065250D01*
X657102D01*
X657588Y1064077D01*
X648256Y1054745D01*
X647261Y1053256D01*
X646912Y1051500D01*
Y1047500D01*
X646000D01*
Y1036500D01*
X646412D01*
Y1028040D01*
X642770D01*
Y1022000D01*
Y1015960D01*
X646412D01*
Y923901D01*
X620099Y897588D01*
X559944D01*
X559034Y899165D01*
X557165Y901034D01*
X554875Y902356D01*
X552322Y903040D01*
X549678D01*
X547125Y902356D01*
X544835Y901034D01*
X542966Y899165D01*
X541644Y896875D01*
X540960Y894322D01*
Y891678D01*
X541644Y889125D01*
X542966Y886835D01*
X544835Y884966D01*
X547125Y883644D01*
X549678Y882960D01*
X552322D01*
X554875Y883644D01*
X557165Y884966D01*
X559034Y886835D01*
X559944Y888412D01*
X622000D01*
X623756Y888761D01*
X625244Y889756D01*
X654245Y918756D01*
X655239Y920245D01*
X655588Y922000D01*
Y1016500D01*
X665500D01*
Y1018412D01*
X669000D01*
X670756Y1018761D01*
X672244Y1019756D01*
X683827Y1031338D01*
X685000Y1030852D01*
Y1027250D01*
X691262D01*
X717756Y1000756D01*
X719245Y999761D01*
X721000Y999412D01*
X981099D01*
X1046756Y933756D01*
X1048244Y932761D01*
X1050000Y932412D01*
X1112854D01*
X1131186Y914080D01*
X1130714Y912322D01*
Y909678D01*
X1131399Y907125D01*
X1132720Y904835D01*
X1134590Y902966D01*
X1136879Y901644D01*
X1139433Y900960D01*
X1142076D01*
X1144630Y901644D01*
X1146919Y902966D01*
X1148788Y904835D01*
X1150110Y907125D01*
X1150794Y909678D01*
Y912322D01*
X1150110Y914875D01*
X1148788Y917165D01*
X1146919Y919034D01*
X1144630Y920356D01*
X1142076Y921040D01*
X1139433D01*
X1137674Y920569D01*
X1117999Y940244D01*
X1116510Y941239D01*
X1114754Y941588D01*
X1051900D01*
X986244Y1007244D01*
X984756Y1008239D01*
X983000Y1008588D01*
X722901D01*
X700000Y1031489D01*
Y1037750D01*
X687017D01*
Y1041778D01*
X691489Y1046250D01*
X700000D01*
Y1056750D01*
X698588D01*
Y1066250D01*
X705429D01*
Y1083749D01*
D02*
G37*
G36*
X1157140Y1056140D02*
X1137060D01*
Y1036060D01*
X1157140D01*
Y1056140D01*
D02*
G37*
G36*
X1072222D02*
X1069578D01*
X1067025Y1055456D01*
X1064735Y1054134D01*
X1062866Y1052265D01*
X1061544Y1049976D01*
X1060860Y1047422D01*
Y1044778D01*
X1061544Y1042225D01*
X1062866Y1039936D01*
X1064735Y1038066D01*
X1067025Y1036744D01*
X1069578Y1036060D01*
X1072222D01*
X1074775Y1036744D01*
X1077065Y1038066D01*
X1078934Y1039936D01*
X1080256Y1042225D01*
X1080940Y1044778D01*
Y1047422D01*
X1080256Y1049976D01*
X1078934Y1052265D01*
X1077065Y1054134D01*
X1074775Y1055456D01*
X1072222Y1056140D01*
D02*
G37*
G36*
X525535Y1032540D02*
X516890D01*
Y1029020D01*
X525535D01*
Y1032540D01*
D02*
G37*
G36*
X591280Y1036290D02*
X580510D01*
Y1028270D01*
X591280D01*
Y1036290D01*
D02*
G37*
G36*
X560280D02*
X549510D01*
Y1028270D01*
X560280D01*
Y1036290D01*
D02*
G37*
G36*
X546970D02*
X536200D01*
Y1028270D01*
X546970D01*
Y1036290D01*
D02*
G37*
G36*
X577970D02*
X567200D01*
Y1028270D01*
X577970D01*
Y1036290D01*
D02*
G37*
G36*
X640230Y1028040D02*
X635960D01*
Y1023270D01*
X640230D01*
Y1028040D01*
D02*
G37*
G36*
X1148422Y1030740D02*
X1148370D01*
Y1021970D01*
X1157140D01*
Y1022022D01*
X1156456Y1024576D01*
X1155134Y1026865D01*
X1153265Y1028734D01*
X1150975Y1030056D01*
X1148422Y1030740D01*
D02*
G37*
G36*
X1145830D02*
X1145779D01*
X1143225Y1030056D01*
X1140936Y1028734D01*
X1139066Y1026865D01*
X1137745Y1024576D01*
X1137060Y1022022D01*
Y1021970D01*
X1145830D01*
Y1030740D01*
D02*
G37*
G36*
X622780Y1027290D02*
X612510D01*
Y1020270D01*
X622780D01*
Y1027290D01*
D02*
G37*
G36*
X609970D02*
X599700D01*
Y1020270D01*
X609970D01*
Y1027290D01*
D02*
G37*
G36*
X591280Y1025730D02*
X580510D01*
Y1017710D01*
X591280D01*
Y1025730D01*
D02*
G37*
G36*
X577970D02*
X567200D01*
Y1017710D01*
X577970D01*
Y1025730D01*
D02*
G37*
G36*
X560280D02*
X549510D01*
Y1017710D01*
X560280D01*
Y1025730D01*
D02*
G37*
G36*
X546970D02*
X536200D01*
Y1017710D01*
X546970D01*
Y1025730D01*
D02*
G37*
G36*
X640230Y1020730D02*
X635960D01*
Y1015960D01*
X640230D01*
Y1020730D01*
D02*
G37*
G36*
X622780Y1017730D02*
X612510D01*
Y1010710D01*
X622780D01*
Y1017730D01*
D02*
G37*
G36*
X609970D02*
X599700D01*
Y1010710D01*
X609970D01*
Y1017730D01*
D02*
G37*
G36*
X1157140Y1019430D02*
X1148370D01*
Y1010660D01*
X1148422D01*
X1150975Y1011344D01*
X1153265Y1012666D01*
X1155134Y1014536D01*
X1156456Y1016825D01*
X1157140Y1019378D01*
Y1019430D01*
D02*
G37*
G36*
X1145830D02*
X1137060D01*
Y1019378D01*
X1137745Y1016825D01*
X1139066Y1014536D01*
X1140936Y1012666D01*
X1143225Y1011344D01*
X1145779Y1010660D01*
X1145830D01*
Y1019430D01*
D02*
G37*
G36*
X1072222Y1030740D02*
X1069578D01*
X1067025Y1030056D01*
X1064735Y1028734D01*
X1062866Y1026865D01*
X1061544Y1024576D01*
X1060860Y1022022D01*
Y1019378D01*
X1061544Y1016825D01*
X1062866Y1014536D01*
X1064735Y1012666D01*
X1067025Y1011344D01*
X1069578Y1010660D01*
X1072222D01*
X1074775Y1011344D01*
X1077065Y1012666D01*
X1078934Y1014536D01*
X1080256Y1016825D01*
X1080940Y1019378D01*
Y1022022D01*
X1080256Y1024576D01*
X1078934Y1026865D01*
X1077065Y1028734D01*
X1074775Y1030056D01*
X1072222Y1030740D01*
D02*
G37*
G36*
X1148422Y1005340D02*
X1145779D01*
X1143225Y1004656D01*
X1140936Y1003334D01*
X1139066Y1001465D01*
X1137745Y999175D01*
X1137060Y996622D01*
Y993978D01*
X1137745Y991425D01*
X1139066Y989136D01*
X1140936Y987266D01*
X1143225Y985944D01*
X1145779Y985260D01*
X1148422D01*
X1150975Y985944D01*
X1153265Y987266D01*
X1155134Y989136D01*
X1156456Y991425D01*
X1157140Y993978D01*
Y996622D01*
X1156456Y999175D01*
X1155134Y1001465D01*
X1153265Y1003334D01*
X1150975Y1004656D01*
X1148422Y1005340D01*
D02*
G37*
G36*
X1072222D02*
X1069578D01*
X1067025Y1004656D01*
X1064735Y1003334D01*
X1062866Y1001465D01*
X1061544Y999175D01*
X1060860Y996622D01*
Y993978D01*
X1061544Y991425D01*
X1062866Y989136D01*
X1064735Y987266D01*
X1067025Y985944D01*
X1069578Y985260D01*
X1072222D01*
X1074775Y985944D01*
X1077065Y987266D01*
X1078934Y989136D01*
X1080256Y991425D01*
X1080940Y993978D01*
Y996622D01*
X1080256Y999175D01*
X1078934Y1001465D01*
X1077065Y1003334D01*
X1074775Y1004656D01*
X1072222Y1005340D01*
D02*
G37*
G36*
X862051Y985540D02*
X861670D01*
Y974270D01*
X872940D01*
Y974651D01*
X872085Y977840D01*
X870434Y980700D01*
X868100Y983035D01*
X865240Y984685D01*
X862051Y985540D01*
D02*
G37*
G36*
X859130D02*
X858749D01*
X855560Y984685D01*
X852700Y983035D01*
X850366Y980700D01*
X848715Y977840D01*
X847860Y974651D01*
Y974270D01*
X859130D01*
Y985540D01*
D02*
G37*
G36*
X497322Y974040D02*
X497270D01*
Y965270D01*
X506040D01*
Y965322D01*
X505356Y967875D01*
X504034Y970165D01*
X502165Y972034D01*
X499875Y973356D01*
X497322Y974040D01*
D02*
G37*
G36*
X494730D02*
X494678D01*
X492125Y973356D01*
X489835Y972034D01*
X487966Y970165D01*
X486644Y967875D01*
X485960Y965322D01*
Y965270D01*
X494730D01*
Y974040D01*
D02*
G37*
G36*
X963651Y985540D02*
X960349D01*
X957160Y984685D01*
X954300Y983035D01*
X951965Y980700D01*
X950315Y977840D01*
X949460Y974651D01*
Y971349D01*
X950315Y968160D01*
X951965Y965300D01*
X954300Y962965D01*
X957160Y961315D01*
X960349Y960460D01*
X963651D01*
X966840Y961315D01*
X969700Y962965D01*
X972035Y965300D01*
X973685Y968160D01*
X974540Y971349D01*
Y974651D01*
X973685Y977840D01*
X972035Y980700D01*
X969700Y983035D01*
X966840Y984685D01*
X963651Y985540D01*
D02*
G37*
G36*
X872940Y971730D02*
X861670D01*
Y960460D01*
X862051D01*
X865240Y961315D01*
X868100Y962965D01*
X870434Y965300D01*
X872085Y968160D01*
X872940Y971349D01*
Y971730D01*
D02*
G37*
G36*
X859130D02*
X847860D01*
Y971349D01*
X848715Y968160D01*
X850366Y965300D01*
X852700Y962965D01*
X855560Y961315D01*
X858749Y960460D01*
X859130D01*
Y971730D01*
D02*
G37*
G36*
X1148422Y979940D02*
X1145779D01*
X1143225Y979256D01*
X1140936Y977934D01*
X1139066Y976065D01*
X1137745Y973775D01*
X1137060Y971222D01*
Y968578D01*
X1137745Y966025D01*
X1139066Y963736D01*
X1140936Y961866D01*
X1143225Y960544D01*
X1145779Y959860D01*
X1148422D01*
X1150975Y960544D01*
X1153265Y961866D01*
X1155134Y963736D01*
X1156456Y966025D01*
X1157140Y968578D01*
Y971222D01*
X1156456Y973775D01*
X1155134Y976065D01*
X1153265Y977934D01*
X1150975Y979256D01*
X1148422Y979940D01*
D02*
G37*
G36*
X1072222D02*
X1069578D01*
X1067025Y979256D01*
X1064735Y977934D01*
X1062866Y976065D01*
X1061544Y973775D01*
X1060860Y971222D01*
Y968578D01*
X1061544Y966025D01*
X1062866Y963736D01*
X1064735Y961866D01*
X1067025Y960544D01*
X1069578Y959860D01*
X1072222D01*
X1074775Y960544D01*
X1077065Y961866D01*
X1078934Y963736D01*
X1080256Y966025D01*
X1080940Y968578D01*
Y971222D01*
X1080256Y973775D01*
X1078934Y976065D01*
X1077065Y977934D01*
X1074775Y979256D01*
X1072222Y979940D01*
D02*
G37*
G36*
X623780Y965290D02*
X613510D01*
Y958270D01*
X623780D01*
Y965290D01*
D02*
G37*
G36*
X610970D02*
X600700D01*
Y958270D01*
X610970D01*
Y965290D01*
D02*
G37*
G36*
X506040Y962730D02*
X497270D01*
Y953960D01*
X497322D01*
X499875Y954644D01*
X502165Y955966D01*
X504034Y957835D01*
X505356Y960125D01*
X506040Y962678D01*
Y962730D01*
D02*
G37*
G36*
X494730D02*
X485960D01*
Y962678D01*
X486644Y960125D01*
X487966Y957835D01*
X489835Y955966D01*
X492125Y954644D01*
X494678Y953960D01*
X494730D01*
Y962730D01*
D02*
G37*
G36*
X623780Y955730D02*
X613510D01*
Y948710D01*
X623780D01*
Y955730D01*
D02*
G37*
G36*
X610970D02*
X600700D01*
Y948710D01*
X610970D01*
Y955730D01*
D02*
G37*
G36*
X906945Y1151319D02*
X890681Y1135055D01*
X893688Y1132049D01*
X882451Y1120812D01*
X879258Y1124005D01*
X862995Y1107742D01*
X875369Y1095368D01*
X891632Y1111631D01*
X888940Y1114324D01*
X900176Y1125560D01*
X903055Y1122681D01*
X907943Y1127569D01*
X941440Y1094072D01*
X942928Y1093077D01*
X944684Y1092728D01*
X944684Y1092728D01*
X1162783D01*
X1223412Y1032100D01*
Y907944D01*
X1221835Y907034D01*
X1219966Y905165D01*
X1218644Y902875D01*
X1218081Y900774D01*
X1216811Y900863D01*
X1216127Y903416D01*
X1214805Y905706D01*
X1212936Y907575D01*
X1210646Y908897D01*
X1208093Y909581D01*
X1205449D01*
X1202896Y908897D01*
X1200606Y907575D01*
X1198737Y905706D01*
X1197827Y904129D01*
X1170541D01*
X1168785Y903780D01*
X1167297Y902785D01*
X1162100Y897588D01*
X1035000D01*
X1033244Y897239D01*
X1031756Y896244D01*
X973100Y837588D01*
X856395D01*
X854639Y837239D01*
X853151Y836244D01*
X849134Y832227D01*
X848744Y832452D01*
X845618Y833290D01*
X842382D01*
X839256Y832452D01*
X836454Y830835D01*
X834165Y828546D01*
X832548Y825744D01*
X831710Y822618D01*
Y819382D01*
X832548Y816256D01*
X834165Y813454D01*
X836454Y811166D01*
X838412Y810035D01*
Y802500D01*
X833250D01*
Y779500D01*
X850750D01*
Y802500D01*
X847588D01*
Y809238D01*
X848744Y809548D01*
X851546Y811166D01*
X853834Y813454D01*
X855452Y816256D01*
X856290Y819382D01*
Y822618D01*
X855489Y825606D01*
X858296Y828412D01*
X975000D01*
X976756Y828761D01*
X978244Y829756D01*
X1036900Y888412D01*
X1164000D01*
X1165756Y888761D01*
X1167244Y889756D01*
X1172441Y894953D01*
X1197827D01*
X1198737Y893376D01*
X1200606Y891507D01*
X1202896Y890185D01*
X1205449Y889501D01*
X1208093D01*
X1210646Y890185D01*
X1212936Y891507D01*
X1214805Y893376D01*
X1216127Y895666D01*
X1216690Y897767D01*
X1217960Y897678D01*
X1218644Y895125D01*
X1219966Y892835D01*
X1221835Y890966D01*
X1224125Y889644D01*
X1226678Y888960D01*
X1229322D01*
X1231875Y889644D01*
X1234165Y890966D01*
X1236034Y892835D01*
X1237356Y895125D01*
X1238040Y897678D01*
Y900322D01*
X1237356Y902875D01*
X1236034Y905165D01*
X1234165Y907034D01*
X1232588Y907944D01*
Y926414D01*
X1233858Y926754D01*
X1234966Y924835D01*
X1236835Y922966D01*
X1238412Y922056D01*
Y914000D01*
X1238761Y912244D01*
X1239756Y910756D01*
X1254756Y895756D01*
X1256244Y894761D01*
X1258000Y894412D01*
X1402099D01*
X1433756Y862756D01*
X1435244Y861761D01*
X1437000Y861412D01*
X1503056D01*
X1503966Y859835D01*
X1505835Y857966D01*
X1508125Y856644D01*
X1510678Y855960D01*
X1513322D01*
X1515875Y856644D01*
X1518165Y857966D01*
X1520034Y859835D01*
X1521356Y862125D01*
X1522040Y864678D01*
Y867322D01*
X1521356Y869875D01*
X1520034Y872165D01*
X1518165Y874034D01*
X1515875Y875356D01*
X1513322Y876040D01*
X1510678D01*
X1508125Y875356D01*
X1505835Y874034D01*
X1503966Y872165D01*
X1503056Y870588D01*
X1438900D01*
X1407244Y902244D01*
X1405756Y903239D01*
X1404000Y903588D01*
X1259901D01*
X1247588Y915900D01*
Y922056D01*
X1249165Y922966D01*
X1251034Y924835D01*
X1252356Y927125D01*
X1253040Y929678D01*
Y932322D01*
X1252356Y934875D01*
X1251034Y937165D01*
X1249165Y939034D01*
X1246875Y940356D01*
X1244322Y941040D01*
X1241678D01*
X1239125Y940356D01*
X1236835Y939034D01*
X1234966Y937165D01*
X1233858Y935246D01*
X1232588Y935586D01*
Y1034000D01*
X1232239Y1035756D01*
X1231244Y1037244D01*
X1167928Y1100561D01*
X1166440Y1101555D01*
X1164684Y1101904D01*
X946584D01*
X914432Y1134057D01*
X919319Y1138944D01*
X906945Y1151319D01*
D02*
G37*
G36*
X791730Y833290D02*
X791382D01*
X788257Y832452D01*
X785454Y830835D01*
X783166Y828546D01*
X781548Y825744D01*
X780710Y822618D01*
Y822270D01*
X791730D01*
Y833290D01*
D02*
G37*
G36*
X1226440Y818040D02*
X1220670D01*
Y812270D01*
X1226440D01*
Y818040D01*
D02*
G37*
G36*
X1190130D02*
X1184360D01*
Y812270D01*
X1190130D01*
Y818040D01*
D02*
G37*
G36*
X1218130D02*
X1206670D01*
Y811000D01*
X1204130D01*
Y818040D01*
X1192670D01*
Y811000D01*
X1191400D01*
Y809730D01*
X1184360D01*
Y803960D01*
Y798270D01*
X1191400D01*
Y795730D01*
X1184360D01*
Y789960D01*
Y784270D01*
X1191400D01*
Y783000D01*
X1192670D01*
Y775960D01*
X1204130D01*
Y783000D01*
X1206670D01*
Y775960D01*
X1218130D01*
Y783000D01*
X1219400D01*
Y784270D01*
X1226440D01*
Y789960D01*
Y795730D01*
X1219400D01*
Y798270D01*
X1226440D01*
Y803960D01*
Y809730D01*
X1219400D01*
Y811000D01*
X1218130D01*
Y818040D01*
D02*
G37*
G36*
X791730Y819730D02*
X780710D01*
Y819382D01*
X781548Y816256D01*
X783166Y813454D01*
X785454Y811166D01*
X788257Y809548D01*
X791382Y808710D01*
X791730D01*
Y819730D01*
D02*
G37*
G36*
X1513322Y826040D02*
X1510678D01*
X1508125Y825356D01*
X1505835Y824034D01*
X1503966Y822164D01*
X1502644Y819875D01*
X1501960Y817321D01*
Y814678D01*
X1502644Y812124D01*
X1502783Y811884D01*
X1498843Y807944D01*
X1497848Y806455D01*
X1497539Y804900D01*
X1331228Y638588D01*
X1138901D01*
X1134588Y642900D01*
Y645056D01*
X1136165Y645966D01*
X1138034Y647835D01*
X1139356Y650125D01*
X1140040Y652678D01*
Y655322D01*
X1139356Y657875D01*
X1138034Y660165D01*
X1136165Y662034D01*
X1133875Y663356D01*
X1131322Y664040D01*
X1128678D01*
X1126125Y663356D01*
X1123835Y662034D01*
X1121966Y660165D01*
X1120644Y657875D01*
X1119960Y655322D01*
Y652678D01*
X1120644Y650125D01*
X1121966Y647835D01*
X1123835Y645966D01*
X1125412Y645056D01*
Y641000D01*
X1125761Y639244D01*
X1126756Y637756D01*
X1133756Y630756D01*
X1135244Y629761D01*
X1137000Y629412D01*
X1333128D01*
X1334884Y629761D01*
X1336372Y630756D01*
X1505332Y799715D01*
X1506326Y801203D01*
X1506635Y802759D01*
X1510014Y806138D01*
X1510678Y805960D01*
X1513322D01*
X1515875Y806644D01*
X1518165Y807966D01*
X1520034Y809835D01*
X1521356Y812124D01*
X1522040Y814678D01*
Y817321D01*
X1521356Y819875D01*
X1520034Y822164D01*
X1518165Y824034D01*
X1515875Y825356D01*
X1513322Y826040D01*
D02*
G37*
G36*
X448207Y801960D02*
X439587D01*
Y795590D01*
X448207D01*
Y801960D01*
D02*
G37*
G36*
X437047D02*
X428427D01*
Y795590D01*
X437047D01*
Y801960D01*
D02*
G37*
G36*
X448207Y793050D02*
X439587D01*
Y786680D01*
X448207D01*
Y793050D01*
D02*
G37*
G36*
X437047D02*
X428427D01*
Y786680D01*
X437047D01*
Y793050D01*
D02*
G37*
G36*
X374270Y784836D02*
Y776570D01*
X382537D01*
X381890Y778982D01*
X380634Y781158D01*
X378858Y782934D01*
X376683Y784190D01*
X374270Y784836D01*
D02*
G37*
G36*
X371730D02*
X369318Y784190D01*
X367143Y782934D01*
X365366Y781158D01*
X364110Y778982D01*
X363464Y776570D01*
X371730D01*
Y784836D01*
D02*
G37*
G36*
X1226440Y781730D02*
X1220670D01*
Y775960D01*
X1226440D01*
Y781730D01*
D02*
G37*
G36*
X1190130D02*
X1184360D01*
Y775960D01*
X1190130D01*
Y781730D01*
D02*
G37*
G36*
X382537Y774030D02*
X374270D01*
Y765764D01*
X376683Y766410D01*
X378858Y767666D01*
X380634Y769442D01*
X381890Y771618D01*
X382537Y774030D01*
D02*
G37*
G36*
X371730D02*
X363464D01*
X364110Y771618D01*
X365366Y769442D01*
X367143Y767666D01*
X369318Y766410D01*
X371730Y765764D01*
Y774030D01*
D02*
G37*
G36*
X486772Y769730D02*
X467522D01*
Y759230D01*
X486772D01*
Y769730D01*
D02*
G37*
G36*
X631322Y660040D02*
X628678D01*
X626125Y659356D01*
X623835Y658034D01*
X621966Y656165D01*
X620644Y653875D01*
X619960Y651322D01*
Y648678D01*
X620431Y646920D01*
X607099Y633588D01*
X593415D01*
Y639415D01*
X572585D01*
Y618585D01*
X593415D01*
Y624412D01*
X609000D01*
X610756Y624761D01*
X612244Y625756D01*
X626920Y640431D01*
X628678Y639960D01*
X631322D01*
X633875Y640644D01*
X636165Y641966D01*
X638034Y643835D01*
X639356Y646125D01*
X640040Y648678D01*
Y651322D01*
X639356Y653875D01*
X638034Y656165D01*
X636165Y658034D01*
X633875Y659356D01*
X631322Y660040D01*
D02*
G37*
G36*
X559371Y639415D02*
X559270D01*
Y630270D01*
X568415D01*
Y630371D01*
X567705Y633020D01*
X566334Y635395D01*
X564395Y637334D01*
X562020Y638705D01*
X559371Y639415D01*
D02*
G37*
G36*
X556730D02*
X556629D01*
X553980Y638705D01*
X551605Y637334D01*
X549666Y635395D01*
X548295Y633020D01*
X547585Y630371D01*
Y630270D01*
X556730D01*
Y639415D01*
D02*
G37*
G36*
X568415Y627730D02*
X559270D01*
Y618585D01*
X559371D01*
X562020Y619295D01*
X564395Y620666D01*
X566334Y622605D01*
X567705Y624980D01*
X568415Y627629D01*
Y627730D01*
D02*
G37*
G36*
X556730D02*
X547585D01*
Y627629D01*
X548295Y624980D01*
X549666Y622605D01*
X551605Y620666D01*
X553980Y619295D01*
X556629Y618585D01*
X556730D01*
Y627730D01*
D02*
G37*
G36*
X800740Y581540D02*
X790470D01*
Y571270D01*
X800740D01*
Y581540D01*
D02*
G37*
G36*
X1120919D02*
X1120670D01*
Y571270D01*
X1130940D01*
Y571519D01*
X1130154Y574454D01*
X1128634Y577086D01*
X1126486Y579234D01*
X1123854Y580754D01*
X1120919Y581540D01*
D02*
G37*
G36*
X993919D02*
X993670D01*
Y571270D01*
X1003940D01*
Y571519D01*
X1003154Y574454D01*
X1001634Y577086D01*
X999486Y579234D01*
X996854Y580754D01*
X993919Y581540D01*
D02*
G37*
G36*
X892319D02*
X892070D01*
Y571270D01*
X902340D01*
Y571519D01*
X901553Y574454D01*
X900034Y577086D01*
X897886Y579234D01*
X895254Y580754D01*
X892319Y581540D01*
D02*
G37*
G36*
X1247919D02*
X1247670D01*
Y571270D01*
X1257940D01*
Y571519D01*
X1257153Y574454D01*
X1255634Y577086D01*
X1253486Y579234D01*
X1250854Y580754D01*
X1247919Y581540D01*
D02*
G37*
G36*
X1095519D02*
X1095270D01*
Y571270D01*
X1105540D01*
Y571519D01*
X1104753Y574454D01*
X1103234Y577086D01*
X1101086Y579234D01*
X1098454Y580754D01*
X1095519Y581540D01*
D02*
G37*
G36*
X1019319D02*
X1019070D01*
Y571270D01*
X1029340D01*
Y571519D01*
X1028553Y574454D01*
X1027034Y577086D01*
X1024886Y579234D01*
X1022254Y580754D01*
X1019319Y581540D01*
D02*
G37*
G36*
X917719D02*
X917470D01*
Y571270D01*
X927740D01*
Y571519D01*
X926954Y574454D01*
X925434Y577086D01*
X923286Y579234D01*
X920654Y580754D01*
X917719Y581540D01*
D02*
G37*
G36*
X1273319D02*
X1273070D01*
Y571270D01*
X1283340D01*
Y571519D01*
X1282554Y574454D01*
X1281034Y577086D01*
X1278886Y579234D01*
X1276254Y580754D01*
X1273319Y581540D01*
D02*
G37*
G36*
X1070119D02*
X1069870D01*
Y571270D01*
X1080140D01*
Y571519D01*
X1079353Y574454D01*
X1077834Y577086D01*
X1075686Y579234D01*
X1073054Y580754D01*
X1070119Y581540D01*
D02*
G37*
G36*
X1044719D02*
X1044470D01*
Y571270D01*
X1054740D01*
Y571519D01*
X1053953Y574454D01*
X1052434Y577086D01*
X1050286Y579234D01*
X1047654Y580754D01*
X1044719Y581540D01*
D02*
G37*
G36*
X1118130D02*
X1117881D01*
X1114946Y580754D01*
X1112314Y579234D01*
X1110166Y577086D01*
X1108646Y574454D01*
X1107860Y571519D01*
Y571270D01*
X1118130D01*
Y581540D01*
D02*
G37*
G36*
X1016530D02*
X1016281D01*
X1013346Y580754D01*
X1010714Y579234D01*
X1008566Y577086D01*
X1007046Y574454D01*
X1006260Y571519D01*
Y571270D01*
X1016530D01*
Y581540D01*
D02*
G37*
G36*
X991130D02*
X990881D01*
X987946Y580754D01*
X985314Y579234D01*
X983166Y577086D01*
X981646Y574454D01*
X980860Y571519D01*
Y571270D01*
X991130D01*
Y581540D01*
D02*
G37*
G36*
X889530D02*
X889281D01*
X886346Y580754D01*
X883714Y579234D01*
X881566Y577086D01*
X880046Y574454D01*
X879260Y571519D01*
Y571270D01*
X889530D01*
Y581540D01*
D02*
G37*
G36*
X1270530D02*
X1270281D01*
X1267346Y580754D01*
X1264714Y579234D01*
X1262566Y577086D01*
X1261046Y574454D01*
X1260260Y571519D01*
Y571270D01*
X1270530D01*
Y581540D01*
D02*
G37*
G36*
X1245130D02*
X1244881D01*
X1241946Y580754D01*
X1239314Y579234D01*
X1237166Y577086D01*
X1235646Y574454D01*
X1234860Y571519D01*
Y571270D01*
X1245130D01*
Y581540D01*
D02*
G37*
G36*
X1092730D02*
X1092481D01*
X1089546Y580754D01*
X1086914Y579234D01*
X1084766Y577086D01*
X1083246Y574454D01*
X1082460Y571519D01*
Y571270D01*
X1092730D01*
Y581540D01*
D02*
G37*
G36*
X1041930D02*
X1041681D01*
X1038746Y580754D01*
X1036114Y579234D01*
X1033966Y577086D01*
X1032446Y574454D01*
X1031660Y571519D01*
Y571270D01*
X1041930D01*
Y581540D01*
D02*
G37*
G36*
X914930D02*
X914681D01*
X911746Y580754D01*
X909114Y579234D01*
X906966Y577086D01*
X905446Y574454D01*
X904660Y571519D01*
Y571270D01*
X914930D01*
Y581540D01*
D02*
G37*
G36*
X1067330D02*
X1067081D01*
X1064146Y580754D01*
X1061514Y579234D01*
X1059366Y577086D01*
X1057846Y574454D01*
X1057060Y571519D01*
Y571270D01*
X1067330D01*
Y581540D01*
D02*
G37*
G36*
X787930D02*
X777660D01*
Y571270D01*
X787930D01*
Y581540D01*
D02*
G37*
G36*
X610890Y804640D02*
X602270D01*
Y798270D01*
X610890D01*
Y804640D01*
D02*
G37*
G36*
X599730D02*
X591110D01*
Y798270D01*
X599730D01*
Y804640D01*
D02*
G37*
G36*
X601000Y797000D02*
D01*
Y795730D01*
X591110D01*
Y789360D01*
X591626D01*
X591650Y788100D01*
X591650Y788090D01*
Y786563D01*
X583767D01*
Y789950D01*
X561767D01*
Y787538D01*
X555524D01*
X553769Y787189D01*
X552280Y786194D01*
X547854Y781768D01*
X541012D01*
Y782430D01*
X521762D01*
Y771930D01*
X541012D01*
Y772592D01*
X549755D01*
X551510Y772941D01*
X552999Y773936D01*
X557425Y778362D01*
X561767D01*
Y775950D01*
X583767D01*
Y777387D01*
X591650D01*
Y773900D01*
X610350D01*
Y788090D01*
X610350Y788100D01*
X610374Y789360D01*
X610890D01*
Y795730D01*
X601000D01*
Y797000D01*
D02*
G37*
G36*
X621640Y766890D02*
X615270D01*
Y758270D01*
X621640D01*
Y766890D01*
D02*
G37*
G36*
X643256Y797540D02*
X640744D01*
X638318Y796890D01*
X636142Y795634D01*
X634366Y793858D01*
X633110Y791682D01*
X632460Y789256D01*
Y786744D01*
X633110Y784318D01*
X634366Y782142D01*
X636142Y780366D01*
X637412Y779633D01*
Y770967D01*
X636142Y770234D01*
X634366Y768458D01*
X633110Y766282D01*
X632460Y763856D01*
Y761344D01*
X632840Y759928D01*
X622813Y749902D01*
X621640Y750388D01*
Y755730D01*
X614000D01*
Y757000D01*
X612730D01*
Y766890D01*
X606360D01*
Y766374D01*
X605100Y766350D01*
X605090Y766350D01*
X590900D01*
Y762063D01*
X583767D01*
Y764950D01*
X561767D01*
Y762538D01*
X556180D01*
X550994Y767725D01*
X549505Y768719D01*
X547749Y769068D01*
X541012D01*
Y769730D01*
X521762D01*
Y759230D01*
X541012D01*
Y759892D01*
X545849D01*
X548569Y757171D01*
X547994Y756086D01*
X547913Y756031D01*
X546220Y756368D01*
X541012D01*
Y757030D01*
X521762D01*
Y746530D01*
X541012D01*
Y747192D01*
X544319D01*
X551756Y739756D01*
X553244Y738761D01*
X555000Y738412D01*
X622400D01*
X624156Y738761D01*
X625644Y739756D01*
X639328Y753439D01*
X640744Y753060D01*
X643256D01*
X645682Y753710D01*
X647858Y754966D01*
X649634Y756742D01*
X650890Y758918D01*
X651540Y761344D01*
Y763856D01*
X650890Y766282D01*
X649634Y768458D01*
X647858Y770234D01*
X646588Y770967D01*
Y779633D01*
X647858Y780366D01*
X649634Y782142D01*
X650890Y784318D01*
X651540Y786744D01*
Y789256D01*
X650890Y791682D01*
X649634Y793858D01*
X647858Y795634D01*
X645682Y796890D01*
X643256Y797540D01*
D02*
G37*
G36*
X541552Y744870D02*
X532657D01*
Y740350D01*
X541552D01*
Y744870D01*
D02*
G37*
G36*
X530117D02*
X521222D01*
Y740350D01*
X530117D01*
Y744870D01*
D02*
G37*
G36*
X541552Y737810D02*
X532657D01*
Y733290D01*
X541552D01*
Y737810D01*
D02*
G37*
G36*
X530117D02*
X521222D01*
Y733290D01*
X530117D01*
Y737810D01*
D02*
G37*
G36*
X835618Y714290D02*
X835270D01*
Y703270D01*
X846290D01*
Y703618D01*
X845452Y706744D01*
X843834Y709546D01*
X841546Y711834D01*
X838744Y713452D01*
X835618Y714290D01*
D02*
G37*
G36*
X832730D02*
X832382D01*
X829256Y713452D01*
X826454Y711834D01*
X824165Y709546D01*
X822548Y706744D01*
X821710Y703618D01*
Y703270D01*
X832730D01*
Y714290D01*
D02*
G37*
G36*
X846290Y700730D02*
X835270D01*
Y689710D01*
X835618D01*
X838744Y690547D01*
X841546Y692166D01*
X843834Y694454D01*
X845452Y697256D01*
X846290Y700382D01*
Y700730D01*
D02*
G37*
G36*
X832730D02*
X821710D01*
Y700382D01*
X822548Y697256D01*
X824165Y694454D01*
X826454Y692166D01*
X829256Y690547D01*
X832382Y689710D01*
X832730D01*
Y700730D01*
D02*
G37*
G36*
X814500Y734750D02*
X791500D01*
Y717250D01*
X798412D01*
Y713494D01*
X798257Y713452D01*
X795454Y711834D01*
X793166Y709546D01*
X791548Y706744D01*
X790710Y703618D01*
Y700382D01*
X791548Y697256D01*
X793166Y694454D01*
X795454Y692166D01*
X798257Y690547D01*
X801382Y689710D01*
X804618D01*
X807744Y690547D01*
X810546Y692166D01*
X812835Y694454D01*
X814453Y697256D01*
X815290Y700382D01*
Y703618D01*
X814453Y706744D01*
X812835Y709546D01*
X810546Y711834D01*
X807744Y713452D01*
X807588Y713494D01*
Y717250D01*
X814500D01*
Y734750D01*
D02*
G37*
G36*
X798322Y1228040D02*
X798270D01*
Y1219270D01*
X807040D01*
Y1219322D01*
X806356Y1221875D01*
X805034Y1224165D01*
X803165Y1226034D01*
X800875Y1227356D01*
X798322Y1228040D01*
D02*
G37*
G36*
X795730D02*
X795678D01*
X793125Y1227356D01*
X790835Y1226034D01*
X788966Y1224165D01*
X787644Y1221875D01*
X786960Y1219322D01*
Y1219270D01*
X795730D01*
Y1228040D01*
D02*
G37*
G36*
X807040Y1216730D02*
X798270D01*
Y1207960D01*
X798322D01*
X800875Y1208644D01*
X803165Y1209966D01*
X805034Y1211835D01*
X806356Y1214125D01*
X807040Y1216678D01*
Y1216730D01*
D02*
G37*
G36*
X795730D02*
X786960D01*
Y1216678D01*
X787644Y1214125D01*
X788966Y1211835D01*
X790835Y1209966D01*
X793125Y1208644D01*
X795678Y1207960D01*
X795730D01*
Y1216730D01*
D02*
G37*
G36*
X767040Y1212290D02*
X756270D01*
Y1204270D01*
X767040D01*
Y1212290D01*
D02*
G37*
G36*
Y1201730D02*
X756270D01*
Y1193710D01*
X767040D01*
Y1201730D01*
D02*
G37*
G36*
X753730D02*
X742960D01*
Y1193710D01*
X753730D01*
Y1201730D01*
D02*
G37*
%LPD*%
D15*
X693929Y1107000D02*
D03*
Y1075000D02*
D03*
X783000Y1172000D02*
D03*
Y1139999D02*
D03*
X664000Y1106000D02*
D03*
Y1074000D02*
D03*
X786000Y1091000D02*
D03*
Y1123000D02*
D03*
X373000Y993000D02*
D03*
Y961000D02*
D03*
X579240Y1059000D02*
D03*
Y1027000D02*
D03*
X575240Y1114000D02*
D03*
Y1082000D02*
D03*
X1531000Y754000D02*
D03*
Y722000D02*
D03*
X803000Y726000D02*
D03*
Y758000D02*
D03*
X1644000Y691000D02*
D03*
Y723000D02*
D03*
X548240Y1027000D02*
D03*
Y1059000D02*
D03*
X755000Y1171000D02*
D03*
Y1203000D02*
D03*
D18*
X519240Y1084000D02*
D03*
X551240D02*
D03*
X547240Y1113000D02*
D03*
X515240D02*
D03*
X842000Y791000D02*
D03*
X810000D02*
D03*
X521000Y838000D02*
D03*
X489000D02*
D03*
X520000Y808000D02*
D03*
X488000D02*
D03*
X652000Y1188000D02*
D03*
X620000D02*
D03*
X652000Y1213000D02*
D03*
X620000D02*
D03*
D22*
X612240Y927000D02*
D03*
Y957000D02*
D03*
X611240Y989000D02*
D03*
Y1019000D02*
D03*
D23*
X684000Y1150000D02*
D03*
Y1155000D02*
D03*
Y1160000D02*
D03*
Y1165000D02*
D03*
Y1170000D02*
D03*
X714000D02*
D03*
Y1165000D02*
D03*
Y1160000D02*
D03*
Y1155000D02*
D03*
Y1150000D02*
D03*
D28*
X651000Y1042000D02*
D03*
X641500Y1022000D02*
D03*
X660500D02*
D03*
D83*
X733000Y1139999D02*
X783000D01*
X716000Y1123000D02*
X733000Y1139999D01*
X700000Y1185000D02*
X706000Y1179000D01*
X700000Y1215000D02*
X717000Y1232000D01*
X700000Y1185000D02*
Y1215000D01*
X746000Y1187000D02*
X780071D01*
X783000Y1172000D02*
Y1184071D01*
X780071Y1187000D02*
X783000Y1184071D01*
X738000Y1179000D02*
X746000Y1187000D01*
X706000Y1179000D02*
X738000D01*
X742000Y1213750D02*
Y1232000D01*
X725250Y1197000D02*
X742000Y1213750D01*
X725000Y1197000D02*
X725250D01*
X652000Y1188000D02*
Y1188571D01*
X656250Y1192821D01*
X665429Y1194929D02*
X678929D01*
X656250Y1192821D02*
X663321D01*
X665429Y1194929D01*
X678929D02*
X681000Y1197000D01*
X802972Y1153972D02*
X854000Y1205000D01*
X670000Y1154000D02*
X670094D01*
X654000D02*
X670000D01*
X583000Y629000D02*
X609000D01*
X630000Y650000D01*
X967000Y570000D02*
X968000Y571000D01*
Y595000D01*
X989000Y616000D02*
X1277000D01*
X968000Y595000D02*
X989000Y616000D01*
X1333128Y634000D02*
X1502087Y802959D01*
X1130000Y641000D02*
X1137000Y634000D01*
X1333128D01*
X1130000Y641000D02*
Y654000D01*
X1304000Y655000D02*
X1310000Y661000D01*
X1155000Y655000D02*
X1304000D01*
X1448000Y891000D02*
X1512000D01*
X1345500Y993500D02*
X1448000Y891000D01*
X1502087Y802959D02*
Y804699D01*
X1512000Y814612D02*
Y816000D01*
X1502087Y804699D02*
X1512000Y814612D01*
X1310000Y661000D02*
Y713000D01*
X1438000Y841000D01*
X1512000D01*
X1437000Y866000D02*
X1512000D01*
X1404000Y899000D02*
X1437000Y866000D01*
X1243000Y914000D02*
X1258000Y899000D01*
X1404000D01*
X1243000Y914000D02*
Y931000D01*
X692500Y1032500D02*
X721000Y1004000D01*
X983000D02*
X1050000Y937000D01*
X721000Y1004000D02*
X983000D01*
X474676Y1037000D02*
X477605Y1034071D01*
Y1011376D02*
Y1034071D01*
X340000Y1023000D02*
X354000Y1037000D01*
X474676D01*
X477605Y1011376D02*
X493610Y995370D01*
X340000Y974000D02*
Y1023000D01*
Y974000D02*
X353000Y961000D01*
X373000D01*
X958000Y754000D02*
X1230000D01*
X945000Y741000D02*
X958000Y754000D01*
X1230000D02*
X1257000Y727000D01*
X624182Y838000D02*
X721182Y741000D01*
X945000D01*
X521000Y838000D02*
X624182D01*
X844000Y821000D02*
X844395D01*
X856395Y833000D01*
X975000D01*
X492830Y739830D02*
X553661Y679000D01*
X1015000D02*
X1074000Y738000D01*
X553661Y679000D02*
X1015000D01*
X814600Y551929D02*
Y570000D01*
X664000Y1092000D02*
Y1106000D01*
Y1092000D02*
X665000Y1091000D01*
X1218000Y669000D02*
Y727000D01*
X1074000Y738000D02*
X1207000D01*
X1218000Y727000D01*
X1257000Y669000D02*
Y727000D01*
X1114754Y937000D02*
X1140754Y911000D01*
X1050000Y937000D02*
X1114754D01*
X551000Y893000D02*
X622000D01*
X651000Y922000D01*
X518929Y792929D02*
Y806929D01*
X511000Y758000D02*
Y785000D01*
X518929Y792929D01*
Y806929D02*
X520000Y808000D01*
X477897Y739830D02*
X492830D01*
X511000Y758000D01*
X477147Y739080D02*
X477897Y739830D01*
X492780Y751780D02*
X502000Y761000D01*
Y834071D01*
X504929Y837000D02*
X520000D01*
X502000Y834071D02*
X504929Y837000D01*
X477147Y751780D02*
X492780D01*
X520000Y837000D02*
X521000Y838000D01*
X622400Y743000D02*
X642000Y762600D01*
X555000Y743000D02*
X622400D01*
X531387Y751780D02*
X546220D01*
X555000Y743000D01*
X597525Y757475D02*
X598000Y757000D01*
X573242Y757475D02*
X597525D01*
X572767Y757950D02*
X573242Y757475D01*
X642000Y762600D02*
Y788000D01*
X555524Y782950D02*
X572767D01*
X549755Y777180D02*
X555524Y782950D01*
X531387Y777180D02*
X549755D01*
X600025Y781975D02*
X601000Y781000D01*
X573742Y781975D02*
X600025D01*
X572767Y782950D02*
X573742Y781975D01*
X554280Y757950D02*
X572767D01*
X547749Y764480D02*
X554280Y757950D01*
X531387Y764480D02*
X547749D01*
X488500Y808500D02*
Y837500D01*
X488000Y808000D02*
X488500Y808500D01*
X488000Y805250D02*
Y808000D01*
X477147Y794397D02*
X488000Y805250D01*
X477147Y777180D02*
Y794397D01*
X438317Y778120D02*
X471832D01*
X472772Y777180D01*
X477147D01*
X905000Y1137000D02*
X944684Y1097316D01*
Y1097316D02*
X1164684D01*
X1228000Y899000D02*
Y1034000D01*
X1164684Y1097316D02*
X1228000Y1034000D01*
X803000Y758000D02*
Y770428D01*
X809500Y776929D02*
Y790500D01*
X803000Y770428D02*
X809500Y776929D01*
Y790500D02*
X810000Y791000D01*
X842000D02*
X843000Y792000D01*
Y820000D01*
X844000Y821000D01*
X803000Y702000D02*
Y725999D01*
X803000Y726000D02*
X803000Y725999D01*
X975000Y833000D02*
X1035000Y893000D01*
X1164000D01*
X1170541Y899541D02*
X1206771D01*
X1164000Y893000D02*
X1170541Y899541D01*
X651000Y922000D02*
Y1042000D01*
X660500Y1022000D02*
Y1022500D01*
X661000Y1023000D01*
X669000D01*
X651000Y1042000D02*
X651500Y1042500D01*
Y1051500D01*
X664000Y1064000D01*
X669500Y1058500D01*
Y1042000D02*
Y1058500D01*
X664000Y1064000D02*
Y1074000D01*
X669000Y1023000D02*
X682429Y1036429D01*
X690250Y1051500D02*
X692500D01*
X682429Y1043679D02*
X690250Y1051500D01*
X682429Y1036429D02*
Y1043679D01*
X694000Y1052250D02*
Y1075000D01*
X693250Y1051500D02*
X694000Y1052250D01*
X692500Y1051500D02*
X693250D01*
X689679Y1111250D02*
X693929Y1107000D01*
X654000Y1154000D02*
X689679Y1118321D01*
X693929Y1107000D02*
X694000D01*
X555000Y1154000D02*
X654000D01*
X689679Y1111250D02*
Y1118321D01*
X817435Y1091000D02*
X823646Y1097211D01*
X823646D01*
X905000Y1136873D02*
Y1137000D01*
X877814Y1109686D02*
X905000Y1136873D01*
X877314Y1109686D02*
X877814D01*
X836414Y1147151D02*
X851252Y1132314D01*
X854686D01*
X849849Y1160586D02*
X860005Y1170742D01*
X866369D01*
X868314Y1172686D01*
X575240Y1114000D02*
Y1133760D01*
X555000Y1154000D02*
X575240Y1133760D01*
X548240Y1114000D02*
X575240D01*
X563240Y926500D02*
X563740Y927000D01*
X612240D01*
X563240Y989500D02*
X563740Y989000D01*
X611240D01*
X512190Y1059000D02*
X532240D01*
X548240D02*
X579240D01*
X508997Y1062192D02*
X512190Y1059000D01*
X532240D02*
X548240D01*
X547240Y1113000D02*
X548240Y1114000D01*
X449700Y1151100D02*
Y1183700D01*
X487500Y1221500D02*
X529000Y1263000D01*
X449700Y1183700D02*
X487500Y1221500D01*
X555000Y1154000D01*
X604000Y1188000D02*
X620000D01*
X595000Y1197000D02*
Y1244000D01*
Y1197000D02*
X604000Y1188000D01*
X620200Y1243800D02*
X620400Y1244000D01*
X620200Y1213200D02*
Y1243800D01*
X620000Y1213000D02*
X620200Y1213200D01*
X652000Y1188000D02*
Y1213000D01*
Y1253000D01*
X642000Y1263000D02*
X652000Y1253000D01*
X529000Y1263000D02*
X642000D01*
X544000Y1243800D02*
X544200Y1244000D01*
X756184Y1153972D02*
X802972D01*
X854000Y1205000D02*
Y1247000D01*
X742000Y1232000D02*
X765704D01*
X780705Y1247000D02*
X810000D01*
X765704Y1232000D02*
X780705Y1247000D01*
X810000D02*
X813604Y1243396D01*
X854000Y1247000D02*
X902000D01*
X917000Y1232000D01*
D84*
X753999Y1170000D02*
X755000Y1171000D01*
X714000Y1170000D02*
X753999D01*
X669442Y1154558D02*
X670095Y1155000D01*
X684000D01*
X669442Y1154558D02*
X670000Y1154000D01*
X674000Y1150000D02*
X683000D01*
X670000Y1154000D02*
X674000Y1150000D01*
X714000Y1155000D02*
X740000D01*
X740000Y1155000D01*
X714000Y1150000D02*
X752521D01*
X714000Y1160000D02*
X799000D01*
X825000Y1186000D01*
Y1244700D01*
X402000Y985000D02*
X425178Y1008178D01*
X402000Y956000D02*
Y985000D01*
X425178Y1008178D02*
X452353D01*
X402000Y956000D02*
X487000Y871000D01*
X747000D01*
X419000Y979000D02*
X441750Y1001750D01*
X419000Y965407D02*
Y979000D01*
X441750Y1001750D02*
X456860D01*
X426000Y537000D02*
X1506000D01*
X1571000Y602000D01*
X1538000Y532000D02*
X1581000Y575000D01*
X420000Y532000D02*
X1538000D01*
X438000Y967000D02*
Y988033D01*
X444467Y994500D02*
X451740D01*
X438000Y988033D02*
X444467Y994500D01*
X438000Y967000D02*
X461000Y944000D01*
X451740Y994500D02*
X452240Y995000D01*
X467740Y1080500D02*
Y1088000D01*
X1032000Y932000D02*
X1052000Y912000D01*
X1110000D01*
X808000Y932000D02*
X1032000D01*
X747000Y871000D02*
X808000Y932000D01*
X432000Y542000D02*
X1468000D01*
X1617000Y691000D01*
X324500Y649500D02*
X432000Y542000D01*
X312000Y651000D02*
X426000Y537000D01*
X306000Y646000D02*
X420000Y532000D01*
X1635000Y527000D02*
X1696000Y588000D01*
X299000Y640000D02*
X412000Y527000D01*
X1635000D01*
X1568000Y691000D02*
X1617000D01*
X1644000D01*
X1562000Y697000D02*
X1568000Y691000D01*
X1562000Y697000D02*
Y712000D01*
X1628000Y745000D02*
X1674000D01*
X1696000Y588000D02*
Y723000D01*
X1674000Y745000D02*
X1696000Y723000D01*
X1607500Y716500D02*
X1619000Y705000D01*
X1508000Y737000D02*
X1552500D01*
X1560000Y729500D01*
X816000Y1133142D02*
Y1146000D01*
Y1133142D02*
X831071Y1118071D01*
X816000Y1146000D02*
X837000Y1167000D01*
X843435D01*
X849849Y1160586D01*
X956600Y1264000D02*
X1002000Y1218600D01*
X844300Y1264000D02*
X956600D01*
X825000Y1244700D02*
X844300Y1264000D01*
X1531000Y754000D02*
X1619000D01*
X1628000Y745000D01*
X1531000Y722000D02*
X1532000Y723000D01*
X1612500Y729500D02*
X1628000Y745000D01*
X1562000Y712000D02*
X1566500Y716500D01*
X1607000Y723000D02*
X1644000D01*
X1607000Y723000D02*
X1607000Y723000D01*
X1566500Y716500D02*
X1577500D01*
X1532000Y723000D02*
X1577500D01*
X1560000Y729500D02*
X1577500D01*
X1596500D02*
X1612500D01*
X1596500Y723000D02*
X1607000D01*
X1596500Y716500D02*
X1607500D01*
X1644000Y723000D02*
X1646750D01*
X1652000Y728250D01*
X324500Y649500D02*
Y1040500D01*
X312000Y651000D02*
Y1041000D01*
X306000Y646000D02*
Y1049000D01*
X299000Y640000D02*
Y1064000D01*
X373000Y993656D02*
Y1008000D01*
X386000Y1021000D01*
X452240D01*
X324500Y1040500D02*
X339500Y1055500D01*
X312000Y1041000D02*
X331500Y1060500D01*
X306000Y1049000D02*
X322500Y1065500D01*
X299000Y1064000D02*
X310500Y1075500D01*
X455240D01*
X322500Y1065500D02*
X455240D01*
X331500Y1060500D02*
X455240D01*
X339500Y1055500D02*
X455240D01*
X501240Y1114000D02*
Y1121240D01*
X509000Y1129000D01*
X521483D01*
X390525Y1108675D02*
X466325D01*
X348100Y1151100D02*
X390525Y1108675D01*
X472740Y1088000D02*
Y1102260D01*
X466325Y1108675D02*
X472740Y1102260D01*
X408196Y1116404D02*
X469596D01*
X373500Y1151100D02*
X408196Y1116404D01*
X469596D02*
X477740Y1108260D01*
Y1088000D02*
Y1108260D01*
X521483Y1129000D02*
X532240Y1118243D01*
Y1059000D02*
Y1118243D01*
X502490Y1001750D02*
X515620D01*
X487740Y1016500D02*
X502490Y1001750D01*
X487740Y1016500D02*
Y1048000D01*
X514870Y1009000D02*
X515620Y1008250D01*
X506796Y1009000D02*
X514870D01*
X504240Y1011555D02*
X506796Y1009000D01*
X504240Y1011555D02*
Y1051950D01*
X500690Y1055500D02*
X504240Y1051950D01*
X495240Y1055500D02*
X500690D01*
X487740Y1100500D02*
X501240Y1114000D01*
X500690Y1070500D02*
X508997Y1062192D01*
X495240Y1075500D02*
X503554D01*
X509748Y1081693D01*
X516934D01*
X519240Y1084000D01*
Y1109000D01*
X515240Y1113000D02*
X519240Y1109000D01*
X495240Y1070500D02*
X500690D01*
X499740Y1100500D02*
X503240Y1097000D01*
X495240Y1080500D02*
X501483D01*
X503240Y1082257D02*
Y1097000D01*
X501483Y1080500D02*
X503240Y1082257D01*
X487740Y1100500D02*
X499740D01*
X482740Y1088000D02*
Y1095500D01*
X487740Y1088000D02*
Y1100500D01*
X482740Y1095500D02*
X487740Y1100500D01*
X562000Y1160000D02*
X684000D01*
X544000Y1178000D02*
Y1243800D01*
Y1178000D02*
X562000Y1160000D01*
X587000Y1165000D02*
X684000D01*
X569600Y1182400D02*
Y1244000D01*
Y1182400D02*
X587000Y1165000D01*
X740000Y1155000D02*
X756184D01*
X752521Y1150000D02*
X756184Y1153663D01*
D85*
X1512000Y891000D02*
X1538000D01*
X1556000Y873000D01*
X1518000Y788000D02*
X1551607D01*
X1556000Y792393D01*
Y873000D01*
X1467000Y737000D02*
X1518000Y788000D01*
X1340929Y551929D02*
X1467000Y678000D01*
X814600Y551929D02*
X1340929D01*
X1467000Y678000D02*
Y737000D01*
X1345500Y993500D02*
X1403000Y1051000D01*
X1276100Y924100D02*
X1345500Y993500D01*
X817435Y1091000D02*
X836000D01*
X810000Y791000D02*
Y852607D01*
X410000Y857000D02*
X805606D01*
X810000Y852607D01*
X410000Y857000D02*
X429500Y837500D01*
X373000Y894000D02*
X410000Y857000D01*
X633731Y1091000D02*
Y1109491D01*
Y1091000D02*
X665000D01*
X633731Y1081731D02*
Y1091000D01*
X579240Y1059000D02*
X611000D01*
X633731Y1081731D01*
X341000Y662000D02*
X451071Y551929D01*
X814600D01*
X341000Y862000D02*
X373000Y894000D01*
X341000Y662000D02*
Y862000D01*
X665000Y1091000D02*
X786000D01*
X1403000Y1051000D02*
Y1125000D01*
X429500Y837500D02*
X488500D01*
X373000Y894000D02*
Y961000D01*
X1325000Y1161000D02*
X1367000D01*
X906000D02*
X1325000D01*
X1367000D02*
X1403000Y1125000D01*
X836000Y1091000D02*
X906000Y1161000D01*
X786000Y1091000D02*
X817435D01*
D86*
X1219400Y783000D02*
D03*
Y797000D02*
D03*
X1205400D02*
D03*
Y783000D02*
D03*
X1191400D02*
D03*
Y797000D02*
D03*
Y811000D02*
D03*
X1205400D02*
D03*
X1219400D02*
D03*
D87*
X860400Y973000D02*
D03*
X962000D02*
D03*
D88*
X1740000Y674000D02*
D03*
X320000Y560000D02*
D03*
X1740000Y1230000D02*
D03*
X310000Y1240000D02*
D03*
X462400D02*
D03*
D89*
X803000Y702000D02*
D03*
X793000Y821000D02*
D03*
X844000D02*
D03*
X834000Y702000D02*
D03*
D90*
X789200Y570000D02*
D03*
D91*
X814600D02*
D03*
X840000D02*
D03*
X865400D02*
D03*
X890800D02*
D03*
X916200D02*
D03*
X941600D02*
D03*
X967000D02*
D03*
X992400D02*
D03*
X1017800D02*
D03*
X1043200D02*
D03*
X1068600D02*
D03*
X1094000D02*
D03*
X1119400D02*
D03*
X1144800D02*
D03*
X1170200D02*
D03*
X1195600D02*
D03*
X1221000D02*
D03*
X1246400D02*
D03*
X1271800D02*
D03*
X569600Y1244000D02*
D03*
X595000D02*
D03*
X620400D02*
D03*
X544200D02*
D03*
X475100Y1151100D02*
D03*
X449700D02*
D03*
X424300D02*
D03*
X398900D02*
D03*
X373500D02*
D03*
X348100D02*
D03*
X322700D02*
D03*
X297300D02*
D03*
D92*
X833000Y1236250D02*
D03*
Y1263750D02*
D03*
D93*
X1002000Y1218600D02*
D03*
Y1244000D02*
D03*
D94*
X917000Y1232000D02*
D03*
X717000D02*
D03*
X583000Y629000D02*
D03*
D95*
X942000Y1232000D02*
D03*
X742000D02*
D03*
X558000Y629000D02*
D03*
D96*
X1070900Y969900D02*
D03*
Y995300D02*
D03*
Y1020700D02*
D03*
Y1046100D02*
D03*
X1147100Y969900D02*
D03*
Y995300D02*
D03*
Y1020700D02*
D03*
X1512000Y916000D02*
D03*
Y891000D02*
D03*
Y866000D02*
D03*
Y841000D02*
D03*
Y816000D02*
D03*
X1661000Y974000D02*
D03*
X1410000Y979000D02*
D03*
X496000Y964000D02*
D03*
X418000Y1000000D02*
D03*
X1277000Y616000D02*
D03*
X1571000Y602000D02*
D03*
X1130000Y654000D02*
D03*
X1155000Y655000D02*
D03*
X1243000Y931000D02*
D03*
X1581000Y575000D02*
D03*
X461000Y944000D02*
D03*
X797000Y1218000D02*
D03*
X630000Y650000D02*
D03*
X1276100Y924100D02*
D03*
X1508100Y737100D02*
D03*
X1218000Y669000D02*
D03*
X1257000D02*
D03*
X1110000Y912000D02*
D03*
X551000Y893000D02*
D03*
X1325000Y1161000D02*
D03*
X1228000Y899000D02*
D03*
X1206771Y899541D02*
D03*
X1140754Y911000D02*
D03*
X1619491Y705491D02*
D03*
X419000Y965407D02*
D03*
X633731Y1109491D02*
D03*
X716000Y1123000D02*
D03*
D97*
X1147100Y1046100D02*
D03*
D98*
X642000Y762600D02*
D03*
Y788000D02*
D03*
X373000Y775300D02*
D03*
D99*
X758000Y1252000D02*
D03*
D100*
X725000Y1197000D02*
D03*
X681000D02*
D03*
X854000Y1247000D02*
D03*
X810000D02*
D03*
D101*
X699000Y1160000D02*
D03*
D102*
X669500Y1042000D02*
D03*
X692500Y1032500D02*
D03*
Y1051500D02*
D03*
D103*
X1577500Y729500D02*
D03*
Y723000D02*
D03*
Y716500D02*
D03*
X1596500D02*
D03*
Y723000D02*
D03*
Y729500D02*
D03*
D104*
X831071Y1118071D02*
D03*
X810211Y1110646D02*
D03*
X823646Y1097211D02*
D03*
D105*
X572767Y757950D02*
D03*
Y782950D02*
D03*
D106*
X845686Y1195313D02*
D03*
X868314Y1172686D02*
D03*
X905000Y1137000D02*
D03*
X882373Y1159627D02*
D03*
X854686Y1132314D02*
D03*
X877314Y1109686D02*
D03*
D107*
X826868Y1170132D02*
D03*
X836414Y1147151D02*
D03*
X849849Y1160586D02*
D03*
D108*
X438317Y794320D02*
D03*
Y778120D02*
D03*
X601000Y781000D02*
D03*
Y797000D02*
D03*
D109*
X598000Y757000D02*
D03*
X614000D02*
D03*
D110*
X477147Y777180D02*
D03*
Y764480D02*
D03*
Y751780D02*
D03*
Y739080D02*
D03*
X531387D02*
D03*
Y751780D02*
D03*
Y764480D02*
D03*
Y777180D02*
D03*
D111*
X563240Y989500D02*
D03*
Y926500D02*
D03*
D112*
X515620Y982250D02*
D03*
Y988750D02*
D03*
Y995250D02*
D03*
Y1001750D02*
D03*
Y1008250D02*
D03*
Y1014750D02*
D03*
Y1021250D02*
D03*
Y1027750D02*
D03*
X456860D02*
D03*
Y1021250D02*
D03*
Y1014750D02*
D03*
Y1008250D02*
D03*
Y1001750D02*
D03*
Y995250D02*
D03*
Y988750D02*
D03*
Y982250D02*
D03*
D113*
X475240Y1068000D02*
D03*
D114*
X455240Y1080500D02*
D03*
Y1075500D02*
D03*
Y1070500D02*
D03*
Y1065500D02*
D03*
Y1060500D02*
D03*
Y1055500D02*
D03*
X495240D02*
D03*
Y1060500D02*
D03*
Y1065500D02*
D03*
Y1070500D02*
D03*
Y1075500D02*
D03*
Y1080500D02*
D03*
D115*
X462740Y1048000D02*
D03*
X467740D02*
D03*
X472740D02*
D03*
X477740D02*
D03*
X482740D02*
D03*
X487740D02*
D03*
Y1088000D02*
D03*
X482740D02*
D03*
X477740D02*
D03*
X472740D02*
D03*
X467740D02*
D03*
X462740D02*
D03*
D116*
X515500Y995370D02*
X515620Y995250D01*
X493610Y995370D02*
X515500D01*
X515620Y982250D02*
X528990D01*
X535240Y945000D02*
X553740Y926500D01*
X528990Y982250D02*
X535240Y976000D01*
Y945000D02*
Y976000D01*
X553740Y926500D02*
X563240D01*
X515620Y988750D02*
X547620D01*
X456860Y982250D02*
X480490D01*
X493610Y995370D01*
M02*
