G04*
G04 #@! TF.GenerationSoftware,Altium Limited,Altium Designer,23.5.1 (21)*
G04*
G04 Layer_Color=65535*
%FSLAX44Y44*%
%MOMM*%
G71*
G04*
G04 #@! TF.SameCoordinates,AC0D0ECA-3AFF-452C-A70E-833A7A7F191F*
G04*
G04*
G04 #@! TF.FilePolarity,Positive*
G04*
G01*
G75*
%ADD10C,0.1000*%
%ADD11C,0.2540*%
G36*
X433300Y321665D02*
X424840D01*
Y316936D01*
X423703D01*
Y322941D01*
X433300D01*
Y321665D01*
D02*
G37*
G36*
Y308462D02*
X432163D01*
Y314135D01*
X429236D01*
Y308823D01*
X428099D01*
Y314135D01*
X424840D01*
Y308241D01*
X423703D01*
Y315410D01*
X433300D01*
Y308462D01*
D02*
G37*
G36*
Y302790D02*
X433286Y302541D01*
X433272Y302263D01*
X433244Y301986D01*
X433203Y301709D01*
X433161Y301473D01*
Y301459D01*
X433147Y301431D01*
Y301390D01*
X433120Y301334D01*
X433078Y301182D01*
X433009Y300987D01*
X432912Y300765D01*
X432787Y300530D01*
X432648Y300294D01*
X432468Y300072D01*
X432454Y300058D01*
X432440Y300044D01*
X432398Y300003D01*
X432357Y299947D01*
X432218Y299809D01*
X432024Y299642D01*
X431788Y299462D01*
X431511Y299268D01*
X431192Y299087D01*
X430831Y298935D01*
X430817D01*
X430790Y298921D01*
X430734Y298893D01*
X430651Y298879D01*
X430554Y298838D01*
X430443Y298810D01*
X430318Y298782D01*
X430166Y298741D01*
X430013Y298699D01*
X429833Y298671D01*
X429445Y298602D01*
X429015Y298560D01*
X428543Y298547D01*
X428529D01*
X428501D01*
X428432D01*
X428363D01*
X428266Y298560D01*
X428155D01*
X427891Y298574D01*
X427586Y298616D01*
X427267Y298657D01*
X426934Y298727D01*
X426601Y298810D01*
X426588D01*
X426560Y298824D01*
X426518Y298838D01*
X426463Y298852D01*
X426310Y298907D01*
X426116Y298990D01*
X425894Y299074D01*
X425672Y299184D01*
X425437Y299323D01*
X425215Y299462D01*
X425187Y299476D01*
X425117Y299531D01*
X425020Y299614D01*
X424896Y299725D01*
X424757Y299850D01*
X424618Y300003D01*
X424466Y300155D01*
X424341Y300336D01*
X424327Y300363D01*
X424285Y300419D01*
X424230Y300516D01*
X424161Y300655D01*
X424077Y300821D01*
X424008Y301015D01*
X423925Y301237D01*
X423856Y301487D01*
Y301514D01*
X423842Y301556D01*
X423828Y301597D01*
X423814Y301736D01*
X423786Y301930D01*
X423758Y302152D01*
X423731Y302416D01*
X423717Y302707D01*
X423703Y303026D01*
Y306479D01*
X433300D01*
Y302790D01*
D02*
G37*
G36*
X430928Y296369D02*
X430956Y296341D01*
X430970Y296286D01*
X431012Y296217D01*
X431053Y296133D01*
X431109Y296036D01*
X431247Y295800D01*
X431400Y295523D01*
X431594Y295246D01*
X431816Y294955D01*
X432052Y294663D01*
X432066Y294649D01*
X432080Y294636D01*
X432121Y294594D01*
X432163Y294538D01*
X432301Y294414D01*
X432468Y294247D01*
X432662Y294081D01*
X432884Y293901D01*
X433106Y293748D01*
X433341Y293609D01*
Y292847D01*
X423703D01*
Y294025D01*
X431206D01*
X431192Y294039D01*
X431136Y294109D01*
X431053Y294192D01*
X430956Y294331D01*
X430831Y294483D01*
X430693Y294677D01*
X430540Y294899D01*
X430387Y295149D01*
Y295163D01*
X430374Y295176D01*
X430318Y295260D01*
X430249Y295398D01*
X430166Y295565D01*
X430069Y295759D01*
X429972Y295967D01*
X429874Y296175D01*
X429791Y296383D01*
X430928D01*
Y296369D01*
D02*
G37*
G36*
X248023Y263069D02*
X240520D01*
X240534Y263055D01*
X240590Y262985D01*
X240673Y262902D01*
X240770Y262763D01*
X240895Y262611D01*
X241033Y262417D01*
X241186Y262195D01*
X241338Y261945D01*
Y261931D01*
X241352Y261917D01*
X241408Y261834D01*
X241477Y261696D01*
X241560Y261529D01*
X241657Y261335D01*
X241754Y261127D01*
X241852Y260919D01*
X241935Y260711D01*
X240798D01*
Y260725D01*
X240770Y260753D01*
X240756Y260808D01*
X240714Y260877D01*
X240673Y260961D01*
X240617Y261058D01*
X240478Y261293D01*
X240326Y261571D01*
X240132Y261848D01*
X239910Y262139D01*
X239674Y262431D01*
X239660Y262444D01*
X239646Y262458D01*
X239605Y262500D01*
X239563Y262555D01*
X239424Y262680D01*
X239258Y262847D01*
X239064Y263013D01*
X238842Y263193D01*
X238620Y263346D01*
X238384Y263485D01*
Y264247D01*
X248023D01*
Y263069D01*
D02*
G37*
G36*
X245277Y258201D02*
X245388D01*
X245651Y258173D01*
X245957Y258145D01*
X246276Y258090D01*
X246567Y258007D01*
X246844Y257910D01*
X246858D01*
X246872Y257896D01*
X246955Y257854D01*
X247066Y257785D01*
X247219Y257688D01*
X247371Y257549D01*
X247538Y257396D01*
X247704Y257202D01*
X247843Y256980D01*
X247857Y256953D01*
X247898Y256869D01*
X247954Y256744D01*
X248009Y256564D01*
X248078Y256342D01*
X248134Y256093D01*
X248176Y255815D01*
X248189Y255510D01*
Y255385D01*
X248176Y255302D01*
X248162Y255191D01*
X248148Y255080D01*
X248092Y254789D01*
X248009Y254484D01*
X247884Y254165D01*
X247801Y253999D01*
X247704Y253846D01*
X247593Y253707D01*
X247468Y253569D01*
X247454Y253555D01*
X247440Y253541D01*
X247385Y253513D01*
X247330Y253472D01*
X247260Y253416D01*
X247163Y253361D01*
X247052Y253305D01*
X246927Y253236D01*
X246789Y253180D01*
X246622Y253125D01*
X246456Y253069D01*
X246262Y253014D01*
X246054Y252986D01*
X245818Y252945D01*
X245582Y252931D01*
X245319D01*
X245152Y254082D01*
X245166D01*
X245194D01*
X245249D01*
X245333Y254096D01*
X245416Y254110D01*
X245513D01*
X245749Y254151D01*
X245998Y254193D01*
X246248Y254276D01*
X246470Y254359D01*
X246567Y254415D01*
X246650Y254484D01*
X246664Y254498D01*
X246705Y254553D01*
X246775Y254636D01*
X246844Y254748D01*
X246927Y254900D01*
X246983Y255067D01*
X247038Y255275D01*
X247052Y255496D01*
Y255580D01*
X247038Y255663D01*
X247024Y255788D01*
X246997Y255912D01*
X246969Y256051D01*
X246914Y256190D01*
X246844Y256329D01*
X246830Y256342D01*
X246803Y256384D01*
X246747Y256439D01*
X246692Y256523D01*
X246595Y256592D01*
X246497Y256675D01*
X246387Y256744D01*
X246248Y256800D01*
X246234D01*
X246178Y256828D01*
X246081Y256842D01*
X245957Y256869D01*
X245790Y256897D01*
X245582Y256911D01*
X245333Y256939D01*
X245041D01*
X238426D01*
Y258215D01*
X244972D01*
X244986D01*
X245027D01*
X245083D01*
X245166D01*
X245277Y258201D01*
D02*
G37*
%LPC*%
G36*
X432163Y305203D02*
X424840D01*
Y302929D01*
X424854Y302832D01*
X424868Y302624D01*
X424882Y302388D01*
X424910Y302138D01*
X424951Y301889D01*
X425007Y301681D01*
X425020Y301653D01*
X425034Y301584D01*
X425076Y301487D01*
X425131Y301362D01*
X425215Y301223D01*
X425298Y301084D01*
X425395Y300946D01*
X425506Y300807D01*
X425534Y300793D01*
X425589Y300738D01*
X425686Y300655D01*
X425825Y300557D01*
X426005Y300446D01*
X426213Y300322D01*
X426449Y300211D01*
X426712Y300114D01*
X426726D01*
X426754Y300100D01*
X426796Y300086D01*
X426851Y300072D01*
X426920Y300058D01*
X427018Y300030D01*
X427115Y300003D01*
X427225Y299975D01*
X427503Y299933D01*
X427822Y299892D01*
X428182Y299864D01*
X428571Y299850D01*
X428585D01*
X428640D01*
X428709D01*
X428820Y299864D01*
X428945D01*
X429084Y299878D01*
X429250Y299892D01*
X429417Y299906D01*
X429791Y299975D01*
X430179Y300058D01*
X430540Y300183D01*
X430720Y300266D01*
X430873Y300349D01*
X430887D01*
X430914Y300377D01*
X430956Y300405D01*
X431012Y300433D01*
X431150Y300543D01*
X431317Y300682D01*
X431497Y300863D01*
X431677Y301070D01*
X431830Y301306D01*
X431955Y301556D01*
X431968Y301584D01*
X431982Y301653D01*
X432024Y301778D01*
X432066Y301958D01*
X432093Y302180D01*
X432135Y302457D01*
X432149Y302624D01*
Y302804D01*
X432163Y302984D01*
Y305203D01*
D02*
G37*
%LPD*%
D10*
X407000Y303000D02*
G03*
X408000Y303000I500J0D01*
G01*
D02*
G03*
X407000Y303000I-500J0D01*
G01*
D11*
X254500Y254300D02*
X356100D01*
X254500D02*
Y279700D01*
X356100D01*
Y254300D02*
Y279700D01*
M02*
